<svg xmlns="http://www.w3.org/2000/svg" width="16" height="16" fill="currentColor" class="bi bi-body-text" viewBox="0 0 16 16">
  <path fill-rule="evenodd" d="M0 .5A.5.5 0 0 1 .5 0h4a.5.5 0 0 1 0 1h-4A.5.5 0 0 1 0 .5Zm0 2A.5.5 0 0 1 .5 2h7a.5.5 0 0 1 0 1h-7a.5.5 0 0 1-.5-.5Zm9 0a.5.5 0 0 1 .5-.5h5a.5.5 0 0 1 0 1h-5a.5.5 0 0 1-.5-.5Zm-9 2A.5.5 0 0 1 .5 4h3a.5.5 0 0 1 0 1h-3a.5.5 0 0 1-.5-.5Zm5 0a.5.5 0 0 1 .5-.5h5a.5.5 0 0 1 0 1h-5a.5.5 0 0 1-.5-.5Zm7 0a.5.5 0 0 1 .5-.5h3a.5.5 0 0 1 0 1h-3a.5.5 0 0 1-.5-.5Zm-12 2A.5.5 0 0 1 .5 6h6a.5.5 0 0 1 0 1h-6a.5.5 0 0 1-.5-.5Zm8 0a.5.5 0 0 1 .5-.5h5a.5.5 0 0 1 0 1h-5a.5.5 0 0 1-.5-.5Zm-8 2A.5.5 0 0 1 .5 8h5a.5.5 0 0 1 0 1h-5a.5.5 0 0 1-.5-.5Zm7 0a.5.5 0 0 1 .5-.5h7a.5.5 0 0 1 0 1h-7a.5.5 0 0 1-.5-.5Zm-7 2a.5.5 0 0 1 .5-.5h8a.5.5 0 0 1 0 1h-8a.5.5 0 0 1-.5-.5Zm0 2a.5.5 0 0 1 .5-.5h4a.5.5 0 0 1 0 1h-4a.5.5 0 0 1-.5-.5Zm0 2a.5.5 0 0 1 .5-.5h2a.5.5 0 0 1 0 1h-2a.5.5 0 0 1-.5-.5Z"/>
</svg>