<svg xmlns="http://www.w3.org/2000/svg" width="16" height="16" fill="currentColor" class="bi bi-boombox-fill" viewBox="0 0 16 16">
  <path d="M14 0a.5.5 0 0 1 .5.5V2h.5a1 1 0 0 1 1 1v2H0V3a1 1 0 0 1 1-1h12.5V.5A.5.5 0 0 1 14 0ZM2 3.5a.5.5 0 1 0 1 0 .5.5 0 0 0-1 0Zm2 0a.5.5 0 1 0 1 0 .5.5 0 0 0-1 0Zm7.5.5a.5.5 0 1 0 0-1 .5.5 0 0 0 0 1Zm1.5-.5a.5.5 0 1 0 1 0 .5.5 0 0 0-1 0ZM9.5 3h-3a.5.5 0 0 0 0 1h3a.5.5 0 0 0 0-1ZM6 10.5a1.5 1.5 0 1 1-3 0 1.5 1.5 0 0 1 3 0Zm-1.5.5a.5.5 0 1 0 0-1 .5.5 0 0 0 0 1Zm7 1a1.5 1.5 0 1 0 0-3 1.5 1.5 0 0 0 0 3Zm.5-1.5a.5.5 0 1 1-1 0 .5.5 0 0 1 1 0Z"/>
  <path d="M0 6h16v8a1 1 0 0 1-1 1H1a1 1 0 0 1-1-1V6Zm2 4.5a2.5 2.5 0 1 0 5 0 2.5 2.5 0 0 0-5 0Zm7 0a2.5 2.5 0 1 0 5 0 2.5 2.5 0 0 0-5 0Z"/>
</svg>