<svg xmlns="http://www.w3.org/2000/svg" width="16" height="16" fill="currentColor" class="bi bi-border-left" viewBox="0 0 16 16">
  <path d="M0 0v16h1V0H0zm1.906 1h.938V0h-.938v1zm1.875 0h.938V0H3.78v1zm1.875 0h.938V0h-.938v1zM7.531.969V1h.938V.969H8.5V.5h-.031V0H7.53v.5H7.5v.469h.031zM9.406 1h.938V0h-.938v1zm1.875 0h.938V0h-.938v1zm1.875 0h.938V0h-.938v1zm1.875 0h.469V.969h.5V0h-.969v.5H15v.469h.031V1zM7.5 1.906v.938h1v-.938h-1zm7.5 0v.938h1v-.938h-1zM7.5 3.781v.938h1V3.78h-1zm7.5 0v.938h1V3.78h-1zM7.5 5.656v.938h1v-.938h-1zm7.5 0v.938h1v-.938h-1zM1.906 8.5h.938v-1h-.938v1zm1.875 0h.938v-1H3.78v1zm1.875 0h.938v-1h-.938v1zm2.813 0v-.031H8.5V7.53h-.031V7.5H7.53v.031H7.5v.938h.031V8.5h.938zm.937 0h.938v-1h-.938v1zm1.875 0h.938v-1h-.938v1zm1.875 0h.938v-1h-.938v1zm1.875 0h.469v-.031h.5V7.53h-.5V7.5h-.469v.031H15v.938h.031V8.5zM7.5 9.406v.938h1v-.938h-1zm8.5.938v-.938h-1v.938h1zm-8.5.937v.938h1v-.938h-1zm8.5.938v-.938h-1v.938h1zm-8.5.937v.938h1v-.938h-1zm8.5.938v-.938h-1v.938h1zM1.906 16h.938v-1h-.938v1zm1.875 0h.938v-1H3.78v1zm1.875 0h.938v-1h-.938v1zm1.875-.5v.5h.938v-.5H8.5v-.469h-.031V15H7.53v.031H7.5v.469h.031zm1.875.5h.938v-1h-.938v1zm1.875 0h.938v-1h-.938v1zm1.875 0h.938v-1h-.938v1zm1.875-.5v.5H16v-.969h-.5V15h-.469v.031H15v.469h.031z"/>
</svg>