<svg xmlns="http://www.w3.org/2000/svg" width="16" height="16" fill="currentColor" class="bi bi-border-center" viewBox="0 0 16 16">
  <path d="M.969 0H0v.969h.5V1h.469V.969H1V.5H.969V0zm.937 1h.938V0h-.938v1zm1.875 0h.938V0H3.78v1zm1.875 0h.938V0h-.938v1zM7.531.969V1h.938V.969H8.5V.5h-.031V0H7.53v.5H7.5v.469h.031zM9.406 1h.938V0h-.938v1zm1.875 0h.938V0h-.938v1zm1.875 0h.938V0h-.938v1zm1.875 0h.469V.969h.5V0h-.969v.5H15v.469h.031V1zM1 2.844v-.938H0v.938h1zm6.5-.938v.938h1v-.938h-1zm7.5 0v.938h1v-.938h-1zM1 4.719V3.78H0v.938h1zm6.5-.938v.938h1V3.78h-1zm7.5 0v.938h1V3.78h-1zM1 6.594v-.938H0v.938h1zm6.5-.938v.938h1v-.938h-1zm7.5 0v.938h1v-.938h-1zM0 8.5v-1h16v1H0zm0 .906v.938h1v-.938H0zm7.5 0v.938h1v-.938h-1zm8.5.938v-.938h-1v.938h1zm-16 .937v.938h1v-.938H0zm7.5 0v.938h1v-.938h-1zm8.5.938v-.938h-1v.938h1zm-16 .937v.938h1v-.938H0zm7.5 0v.938h1v-.938h-1zm8.5.938v-.938h-1v.938h1zM0 16h.969v-.5H1v-.469H.969V15H.5v.031H0V16zm1.906 0h.938v-1h-.938v1zm1.875 0h.938v-1H3.78v1zm1.875 0h.938v-1h-.938v1zm1.875-.5v.5h.938v-.5H8.5v-.469h-.031V15H7.53v.031H7.5v.469h.031zm1.875.5h.938v-1h-.938v1zm1.875 0h.938v-1h-.938v1zm1.875 0h.938v-1h-.938v1zm1.875-.5v.5H16v-.969h-.5V15h-.469v.031H15v.469h.031z"/>
</svg>