<svg xmlns="http://www.w3.org/2000/svg" width="16" height="16" fill="currentColor" class="bi bi-chat-right-quote-fill" viewBox="0 0 16 16">
  <path d="M16 2a2 2 0 0 0-2-2H2a2 2 0 0 0-2 2v8a2 2 0 0 0 2 2h9.586a1 1 0 0 1 .707.293l2.853 2.853a.5.5 0 0 0 .854-.353V2zM7.194 4.766c.087.124.163.26.227.401.428.948.393 2.377-.942 3.706a.446.446 0 0 1-.612.01.405.405 0 0 1-.011-.59c.419-.416.672-.831.809-1.22-.269.165-.588.26-.93.26C4.775 7.333 4 6.587 4 5.667 4 4.747 4.776 4 5.734 4c.271 0 .528.06.756.166l.008.004c.169.07.327.182.469.324.085.083.161.174.227.272zM11 7.073c-.269.165-.588.26-.93.26-.958 0-1.735-.746-1.735-1.666 0-.92.777-1.667 1.734-1.667.271 0 .528.06.756.166l.008.004c.17.07.327.182.469.324.085.083.161.174.227.272.087.124.164.26.228.401.428.948.392 2.377-.942 3.706a.446.446 0 0 1-.613.01.405.405 0 0 1-.011-.59c.42-.416.672-.831.81-1.22z"/>
</svg>