<svg xmlns="http://www.w3.org/2000/svg" width="16" height="16" fill="currentColor" class="bi bi-cloud-moon-fill" viewBox="0 0 16 16">
  <path d="M11.473 11a4.5 4.5 0 0 0-8.72-.99A3 3 0 0 0 3 16h8.5a2.5 2.5 0 0 0 0-5h-.027z"/>
  <path d="M11.286 1.778a.5.5 0 0 0-.565-.755 4.595 4.595 0 0 0-3.18 5.003 5.46 5.46 0 0 1 1.055.209A3.603 3.603 0 0 1 9.83 2.617a4.593 4.593 0 0 0 4.31 5.744 3.576 3.576 0 0 1-2.241.634c.162.317.295.652.394 1a4.59 4.59 0 0 0 3.624-2.04.5.5 0 0 0-.565-.755 3.593 3.593 0 0 1-4.065-5.422z"/>
</svg>