<svg xmlns="http://www.w3.org/2000/svg" width="16" height="16" fill="currentColor" class="bi bi-envelope-slash-fill" viewBox="0 0 16 16">
  <path d="M.05 3.555A2 2 0 0 1 2 2h12a2 2 0 0 1 1.95 1.555L8 8.414.05 3.555ZM0 4.697v7.104l5.803-3.558L0 4.697ZM6.761 8.83l-6.57 4.026A2 2 0 0 0 2 14h6.256A4.493 4.493 0 0 1 8 12.5a4.49 4.49 0 0 1 1.606-3.446l-.367-.225L8 9.586l-1.239-.757ZM16 4.697v4.974A4.491 4.491 0 0 0 12.5 8a4.49 4.49 0 0 0-1.965.45l-.338-.207L16 4.697Z"/>
  <path d="M14.975 10.025a3.5 3.5 0 1 0-4.95 4.95 3.5 3.5 0 0 0 4.95-4.95Zm-4.243.707a2.501 2.501 0 0 1 3.147-.318l-3.465 3.465a2.501 2.501 0 0 1 .318-3.147Zm.39 3.854 3.464-3.465a2.501 2.501 0 0 1-3.465 3.465Z"/>
</svg>