<svg xmlns="http://www.w3.org/2000/svg" width="16" height="16" fill="currentColor" class="bi bi-filetype-heic" viewBox="0 0 16 16">
  <path fill-rule="evenodd" d="M14 4.5V11h-1V4.5h-2A1.5 1.5 0 0 1 9.5 3V1H4a1 1 0 0 0-1 1v9H2V2a2 2 0 0 1 2-2h5.5L14 4.5Zm-4.637 8.554a1.732 1.732 0 0 0-.103.633v.495c0 .246.034.455.103.627a.834.834 0 0 0 .299.393.846.846 0 0 0 .477.131.868.868 0 0 0 .401-.088.698.698 0 0 0 .273-.248.8.8 0 0 0 .117-.364h.765v.076a1.268 1.268 0 0 1-.226.674c-.137.194-.32.345-.55.454a1.81 1.81 0 0 1-.786.164c-.36 0-.664-.072-.914-.216a1.424 1.424 0 0 1-.571-.627c-.129-.272-.194-.597-.194-.976v-.498c0-.379.066-.705.197-.978.13-.274.321-.485.571-.633.252-.149.556-.223.911-.223.219 0 .421.032.607.097.187.062.35.153.489.272a1.324 1.324 0 0 1 .466.964v.073h-.765a.85.85 0 0 0-.12-.38.7.7 0 0 0-.273-.261.802.802 0 0 0-.398-.097.814.814 0 0 0-.475.138.868.868 0 0 0-.301.398Zm-6.1-1.128v4h-.79V14.21H.79v1.714H0v-3.999h.791v1.626h1.682v-1.626h.79Zm1.488 3.352h1.79v.647H3.966v-3.999H6.54v.648H4.75v1.025h1.684v.607H4.751v1.072Zm3.163.647v-3.999h-.791v4h.79Z"/>
</svg>