<svg xmlns="http://www.w3.org/2000/svg" width="16" height="16" fill="currentColor" class="bi bi-filetype-cs" viewBox="0 0 16 16">
  <path fill-rule="evenodd" d="M14 4.5V14a2 2 0 0 1-2 2H8v-1h4a1 1 0 0 0 1-1V4.5h-2A1.5 1.5 0 0 1 9.5 3V1H4a1 1 0 0 0-1 1v9H2V2a2 2 0 0 1 2-2h5.5L14 4.5ZM3.629 15.29a1.176 1.176 0 0 1-.112-.449h.765a.578.578 0 0 0 .255.384c.07.049.153.087.249.114.096.028.202.041.32.041.163 0 .301-.023.412-.07a.559.559 0 0 0 .255-.193.507.507 0 0 0 .085-.29.387.387 0 0 0-.152-.326c-.102-.08-.256-.144-.463-.193l-.618-.143a1.72 1.72 0 0 1-.54-.214 1.001 1.001 0 0 1-.35-.367 1.068 1.068 0 0 1-.124-.524c0-.244.064-.457.19-.639.128-.181.303-.322.528-.422.225-.1.483-.149.776-.149.305 0 .565.05.78.152.216.102.383.239.5.41.12.17.186.359.2.566h-.75a.56.56 0 0 0-.12-.258.624.624 0 0 0-.246-.181.923.923 0 0 0-.37-.068c-.216 0-.387.05-.512.152a.472.472 0 0 0-.185.384c0 .121.048.22.144.3a.97.97 0 0 0 .404.175l.621.143c.217.05.405.12.566.211.16.09.285.21.375.358.09.148.134.335.134.56 0 .247-.062.466-.187.656a1.216 1.216 0 0 1-.54.439c-.234.105-.52.158-.858.158a2.21 2.21 0 0 1-.665-.09 1.404 1.404 0 0 1-.477-.252 1.13 1.13 0 0 1-.29-.375Zm-2.72-2.23a1.732 1.732 0 0 0-.103.633v.495c0 .246.034.455.102.627a.833.833 0 0 0 .299.392.845.845 0 0 0 .478.132.86.86 0 0 0 .4-.088.7.7 0 0 0 .273-.249.799.799 0 0 0 .118-.363h.764v.076a1.27 1.27 0 0 1-.225.674c-.137.193-.32.345-.551.454a1.81 1.81 0 0 1-.785.164c-.36 0-.664-.072-.914-.217a1.424 1.424 0 0 1-.572-.626C.064 14.892 0 14.567 0 14.188v-.498c0-.38.065-.705.196-.979a1.44 1.44 0 0 1 .572-.633c.252-.148.555-.222.91-.222.22 0 .422.032.607.097.188.062.35.153.49.272a1.324 1.324 0 0 1 .465.964v.073h-.764a.85.85 0 0 0-.12-.38.7.7 0 0 0-.273-.261.803.803 0 0 0-.398-.097.814.814 0 0 0-.475.138.868.868 0 0 0-.302.398Z"/>
</svg>