<svg xmlns="http://www.w3.org/2000/svg" width="16" height="16" fill="currentColor" class="bi bi-filetype-java" viewBox="0 0 16 16">
  <path fill-rule="evenodd" d="M14 4.5V11h-1V4.5h-2A1.5 1.5 0 0 1 9.5 3V1H4a1 1 0 0 0-1 1v9H2V2a2 2 0 0 1 2-2h5.5L14 4.5ZM1.521 15.175a1.321 1.321 0 0 1-.082-.466h.765a.577.577 0 0 0 .073.27.499.499 0 0 0 .454.246c.19 0 .33-.055.422-.164.092-.11.138-.265.138-.466V11.85h.79v2.725c0 .44-.118.774-.357 1.005-.236.23-.564.345-.984.345a1.59 1.59 0 0 1-.568-.094 1.144 1.144 0 0 1-.408-.266 1.139 1.139 0 0 1-.243-.39Zm3.972-.354-.314 1.028h-.8l1.342-3.999h.926l1.336 3.999h-.84l-.314-1.028H5.493Zm1.178-.59-.49-1.616h-.035l-.49 1.617h1.015Zm2.342 1.618h.952l1.327-3.999h-.878l-.888 3.138h-.038L8.59 11.85h-.917l1.34 3.999Zm3.087-1.028-.314 1.028h-.8l1.342-3.999h.926l1.336 3.999h-.84l-.314-1.028H12.1Zm1.178-.59-.49-1.616h-.035l-.49 1.617h1.015Z"/>
</svg>