<svg xmlns="http://www.w3.org/2000/svg" width="16" height="16" fill="currentColor" class="bi bi-filetype-mdx" viewBox="0 0 16 16">
  <path fill-rule="evenodd" d="M14 4.5V14a2 2 0 0 1-2 2v-1a1 1 0 0 0 1-1V4.5h-2A1.5 1.5 0 0 1 9.5 3V1H4a1 1 0 0 0-1 1v9H2V2a2 2 0 0 1 2-2h5.5L14 4.5ZM.706 15.849v-2.66h.038l.952 2.159h.516l.946-2.16h.038v2.661h.715V11.85h-.8l-1.14 2.596h-.026L.805 11.85H0v3.999h.706Zm3.559-3.999v3.999h1.459c.402 0 .735-.08.999-.237a1.45 1.45 0 0 0 .595-.689c.13-.3.196-.662.196-1.084 0-.42-.066-.778-.196-1.075a1.426 1.426 0 0 0-.59-.68c-.263-.156-.598-.234-1.004-.234h-1.46Zm.79.645h.563c.248 0 .451.05.61.152a.89.89 0 0 1 .354.454c.078.201.117.452.117.753 0 .227-.022.424-.067.592a1.14 1.14 0 0 1-.196.422.8.8 0 0 1-.334.252 1.298 1.298 0 0 1-.484.082h-.562v-2.707Zm4.787-.645h.894L9.46 13.857l1.254 1.992h-.908l-.85-1.415h-.035l-.852 1.415h-.862l1.24-2.016L7.22 11.85h.932l.832 1.439h.035l.823-1.439Z"/>
</svg>