<svg xmlns="http://www.w3.org/2000/svg" width="16" height="16" fill="currentColor" class="bi bi-filetype-psd" viewBox="0 0 16 16">
  <path fill-rule="evenodd" d="M14 4.5V14a2 2 0 0 1-2 2h-.5v-1h.5a1 1 0 0 0 1-1V4.5h-2A1.5 1.5 0 0 1 9.5 3V1H4a1 1 0 0 0-1 1v9H2V2a2 2 0 0 1 2-2h5.5L14 4.5ZM3.116 14.841a1.13 1.13 0 0 0 .401.823c.13.108.288.192.478.252.19.061.411.091.665.091.338 0 .624-.053.858-.158.237-.105.416-.252.54-.44a1.17 1.17 0 0 0 .187-.656c0-.224-.045-.41-.135-.56a1 1 0 0 0-.375-.357 2.027 2.027 0 0 0-.565-.21l-.621-.144a.97.97 0 0 1-.405-.176.37.37 0 0 1-.143-.299c0-.156.061-.284.184-.384.125-.101.296-.152.513-.152.143 0 .266.023.37.068a.625.625 0 0 1 .245.181.56.56 0 0 1 .12.258h.75a1.092 1.092 0 0 0-.199-.566 1.21 1.21 0 0 0-.5-.41 1.813 1.813 0 0 0-.78-.152c-.293 0-.552.05-.776.15-.225.099-.4.24-.528.421-.127.182-.19.395-.19.639 0 .201.04.376.123.524.082.149.199.27.351.367.153.095.332.167.54.213l.618.144c.207.049.36.113.462.193a.387.387 0 0 1 .153.326.505.505 0 0 1-.085.29.559.559 0 0 1-.255.193c-.111.047-.249.07-.413.07-.117 0-.224-.013-.32-.04a.837.837 0 0 1-.248-.115.578.578 0 0 1-.255-.384h-.765ZM1.6 11.932H0v4h.791v-1.343h.803c.287 0 .531-.057.732-.173.203-.117.358-.275.463-.474a1.42 1.42 0 0 0 .161-.677c0-.25-.053-.476-.158-.677a1.176 1.176 0 0 0-.46-.477c-.2-.12-.443-.179-.732-.179Zm.545 1.333a.795.795 0 0 1-.085.38.574.574 0 0 1-.238.241.793.793 0 0 1-.375.082H.788v-1.406h.66c.218 0 .389.06.512.182.123.12.185.295.185.521Zm4.609 2.666v-3.999h1.459c.406 0 .74.078 1.004.234.264.157.46.383.59.68.13.297.195.655.195 1.075 0 .422-.065.784-.196 1.084-.13.301-.329.53-.594.689-.264.158-.597.237-1 .237H6.755Zm1.353-3.354h-.562v2.707h.562c.186 0 .347-.028.483-.082a.8.8 0 0 0 .334-.252 1.14 1.14 0 0 0 .197-.422c.045-.168.067-.366.067-.592a2.1 2.1 0 0 0-.117-.753.89.89 0 0 0-.355-.454c-.158-.102-.36-.152-.609-.152Z"/>
</svg>