<svg xmlns="http://www.w3.org/2000/svg" width="16" height="16" fill="currentColor" class="bi bi-filetype-jpg" viewBox="0 0 16 16">
  <path fill-rule="evenodd" d="M14 4.5V14a2 2 0 0 1-2 2h-1v-1h1a1 1 0 0 0 1-1V4.5h-2A1.5 1.5 0 0 1 9.5 3V1H4a1 1 0 0 0-1 1v9H2V2a2 2 0 0 1 2-2h5.5L14 4.5Zm-4.34 8.132c.076.153.123.317.14.492h-.776a.797.797 0 0 0-.097-.249.689.689 0 0 0-.17-.19.707.707 0 0 0-.237-.126.96.96 0 0 0-.299-.044c-.285 0-.507.1-.665.302-.156.201-.234.484-.234.85v.498c0 .234.032.439.097.615a.881.881 0 0 0 .304.413.87.87 0 0 0 .519.146.967.967 0 0 0 .457-.096.67.67 0 0 0 .272-.264c.06-.11.091-.23.091-.363v-.255H8.24v-.59h1.576v.798c0 .193-.032.377-.097.55a1.29 1.29 0 0 1-.293.458 1.37 1.37 0 0 1-.495.313c-.197.074-.43.111-.697.111a1.98 1.98 0 0 1-.753-.132 1.447 1.447 0 0 1-.533-.377 1.58 1.58 0 0 1-.32-.58 2.482 2.482 0 0 1-.105-.745v-.506c0-.362.066-.678.2-.95.134-.271.328-.482.582-.633.256-.152.565-.228.926-.228.238 0 .45.033.636.1.187.066.347.158.48.275.133.117.238.253.314.407ZM0 14.786c0 .164.027.319.082.465.055.147.136.277.243.39.11.113.245.202.407.267.164.062.354.093.569.093.42 0 .748-.115.984-.345.238-.23.358-.566.358-1.005v-2.725h-.791v2.745c0 .202-.046.357-.138.466-.092.11-.233.164-.422.164a.499.499 0 0 1-.454-.246.577.577 0 0 1-.073-.27H0Zm4.92-2.86H3.322v4h.791v-1.343h.803c.287 0 .531-.057.732-.172.203-.118.358-.276.463-.475.108-.201.161-.427.161-.677 0-.25-.052-.475-.158-.677a1.176 1.176 0 0 0-.46-.477c-.2-.12-.443-.179-.732-.179Zm.546 1.333a.795.795 0 0 1-.085.381.574.574 0 0 1-.238.24.794.794 0 0 1-.375.082H4.11v-1.406h.66c.218 0 .389.06.512.182.123.12.185.295.185.521Z"/>
</svg>