<svg xmlns="http://www.w3.org/2000/svg" width="16" height="16" fill="currentColor" class="bi bi-filetype-png" viewBox="0 0 16 16">
  <path fill-rule="evenodd" d="M14 4.5V14a2 2 0 0 1-2 2v-1a1 1 0 0 0 1-1V4.5h-2A1.5 1.5 0 0 1 9.5 3V1H4a1 1 0 0 0-1 1v9H2V2a2 2 0 0 1 2-2h5.5L14 4.5Zm-3.76 8.132c.076.153.123.317.14.492h-.776a.797.797 0 0 0-.097-.249.689.689 0 0 0-.17-.19.707.707 0 0 0-.237-.126.96.96 0 0 0-.299-.044c-.285 0-.506.1-.665.302-.156.201-.234.484-.234.85v.498c0 .234.032.439.097.615a.881.881 0 0 0 .304.413.87.87 0 0 0 .519.146.967.967 0 0 0 .457-.096.67.67 0 0 0 .272-.264c.06-.11.091-.23.091-.363v-.255H8.82v-.59h1.576v.798c0 .193-.032.377-.097.55a1.29 1.29 0 0 1-.293.458 1.37 1.37 0 0 1-.495.313c-.197.074-.43.111-.697.111a1.98 1.98 0 0 1-.753-.132 1.447 1.447 0 0 1-.533-.377 1.58 1.58 0 0 1-.32-.58 2.482 2.482 0 0 1-.105-.745v-.506c0-.362.067-.678.2-.95.134-.271.328-.482.582-.633.256-.152.565-.228.926-.228.238 0 .45.033.636.1.187.066.348.158.48.275.133.117.238.253.314.407Zm-8.64-.706H0v4h.791v-1.343h.803c.287 0 .531-.057.732-.172.203-.118.358-.276.463-.475a1.42 1.42 0 0 0 .161-.677c0-.25-.053-.475-.158-.677a1.176 1.176 0 0 0-.46-.477c-.2-.12-.443-.179-.732-.179Zm.545 1.333a.795.795 0 0 1-.085.381.574.574 0 0 1-.238.24.794.794 0 0 1-.375.082H.788v-1.406h.66c.218 0 .389.06.512.182.123.12.185.295.185.521Zm1.964 2.666V13.25h.032l1.761 2.675h.656v-3.999h-.75v2.66h-.032l-1.752-2.66h-.662v4h.747Z"/>
</svg>