<svg xmlns="http://www.w3.org/2000/svg" width="16" height="16" fill="currentColor" class="bi bi-filetype-bmp" viewBox="0 0 16 16">
  <path fill-rule="evenodd" d="M14 4.5V14a2 2 0 0 1-2 2v-1a1 1 0 0 0 1-1V4.5h-2A1.5 1.5 0 0 1 9.5 3V1H4a1 1 0 0 0-1 1v9H2V2a2 2 0 0 1 2-2h5.5L14 4.5ZM0 15.849h1.664c.272 0 .512-.044.72-.132.21-.09.374-.219.493-.386.12-.168.179-.372.179-.61a.986.986 0 0 0-.123-.51.846.846 0 0 0-.323-.325 1.084 1.084 0 0 0-.445-.14v-.036a1 1 0 0 0 .352-.16.79.79 0 0 0 .243-.294.932.932 0 0 0 .09-.422c0-.308-.107-.55-.322-.723-.215-.174-.5-.261-.858-.261H0v3.999Zm.785-3.404h.7c.186 0 .33.047.431.14.104.092.155.22.155.384a.52.52 0 0 1-.082.296.497.497 0 0 1-.249.185 1.222 1.222 0 0 1-.433.064H.785v-1.07Zm0 1.62h.75c.154 0 .285.024.393.073a.51.51 0 0 1 .24.211.61.61 0 0 1 .082.325c0 .19-.068.334-.205.434-.137.098-.36.146-.671.146H.785v-1.19Zm3.474 1.784v-2.66h.038l.952 2.16h.515l.947-2.16h.038v2.66h.715V11.85h-.8l-1.14 2.596h-.026l-1.14-2.596h-.805v3.999h.706Zm3.918-3.999h1.6c.289 0 .533.06.732.179.201.117.355.276.46.477.106.201.159.427.159.677 0 .25-.054.476-.162.677-.105.199-.26.357-.462.474a1.452 1.452 0 0 1-.733.173h-.803v1.342h-.79V11.85Zm2.06 1.714a.794.794 0 0 0 .085-.381c0-.226-.062-.4-.185-.521-.123-.122-.294-.182-.512-.182h-.66v1.406h.66a.794.794 0 0 0 .375-.082.574.574 0 0 0 .237-.24Z"/>
</svg>