<svg xmlns="http://www.w3.org/2000/svg" width="16" height="16" fill="currentColor" class="bi bi-filetype-sass" viewBox="0 0 16 16">
  <path fill-rule="evenodd" d="M14 4.5V11h-1V4.5h-2A1.5 1.5 0 0 1 9.5 3V1H4a1 1 0 0 0-1 1v9H2V2a2 2 0 0 1 2-2h5.5L14 4.5ZM1.41 15.29a1.176 1.176 0 0 1-.111-.449h.764a.578.578 0 0 0 .255.384.81.81 0 0 0 .25.114c.095.028.201.041.319.041.164 0 .301-.023.413-.07a.559.559 0 0 0 .255-.193.506.506 0 0 0 .084-.29.387.387 0 0 0-.152-.326c-.101-.08-.256-.144-.463-.193l-.618-.143a1.72 1.72 0 0 1-.539-.214 1.001 1.001 0 0 1-.352-.367 1.068 1.068 0 0 1-.123-.524c0-.244.064-.457.19-.639.128-.181.304-.322.528-.422.225-.1.484-.149.777-.149.304 0 .564.05.779.152.217.102.384.239.5.41.12.17.186.359.2.566h-.75a.56.56 0 0 0-.12-.258.624.624 0 0 0-.246-.181.923.923 0 0 0-.37-.068c-.216 0-.387.05-.512.152a.472.472 0 0 0-.185.384c0 .121.048.22.144.3a.97.97 0 0 0 .404.175l.621.143c.217.05.406.12.566.211.16.09.285.21.375.358.09.148.135.335.135.56 0 .247-.063.466-.188.656a1.216 1.216 0 0 1-.539.439c-.234.105-.52.158-.858.158-.254 0-.476-.03-.665-.09a1.404 1.404 0 0 1-.478-.252 1.13 1.13 0 0 1-.29-.375Zm4.188-.387-.313 1.028h-.8l1.342-3.999h.926l1.335 4h-.84l-.314-1.03H5.598Zm1.178-.59-.49-1.616h-.034l-.49 1.617h1.014Zm1.352.528a1.13 1.13 0 0 0 .401.823c.13.108.289.192.478.252.19.061.411.091.665.091.338 0 .624-.053.859-.158.236-.105.416-.252.539-.44.125-.189.187-.408.187-.656 0-.224-.045-.41-.134-.56a1.002 1.002 0 0 0-.375-.357 2.028 2.028 0 0 0-.566-.21l-.621-.144a.97.97 0 0 1-.404-.176.37.37 0 0 1-.144-.299c0-.156.062-.284.185-.384.125-.101.296-.152.512-.152.143 0 .266.023.37.068a.623.623 0 0 1 .246.181.56.56 0 0 1 .12.258h.75a1.093 1.093 0 0 0-.2-.566 1.21 1.21 0 0 0-.5-.41 1.813 1.813 0 0 0-.78-.152c-.293 0-.552.05-.776.15-.225.099-.4.24-.527.421-.127.182-.19.395-.19.639 0 .201.04.376.122.524.082.149.2.27.352.367.152.095.332.167.539.213l.618.144c.207.049.361.113.463.193a.387.387 0 0 1 .152.326.505.505 0 0 1-.085.29.558.558 0 0 1-.255.193c-.111.047-.249.07-.413.07-.117 0-.223-.013-.32-.04a.838.838 0 0 1-.248-.115.578.578 0 0 1-.255-.384h-.765Zm3.503.449a1.178 1.178 0 0 1-.111-.449h.764a.58.58 0 0 0 .255.384c.07.049.154.087.25.114.095.028.201.041.319.041.164 0 .301-.023.413-.07a.558.558 0 0 0 .255-.193.507.507 0 0 0 .085-.29.387.387 0 0 0-.153-.326c-.101-.08-.256-.144-.463-.193l-.618-.143a1.72 1.72 0 0 1-.539-.214 1.002 1.002 0 0 1-.351-.367 1.068 1.068 0 0 1-.123-.524c0-.244.063-.457.19-.639.127-.181.303-.322.527-.422.225-.1.484-.149.777-.149.304 0 .564.05.779.152.217.102.384.239.5.41.12.17.186.359.2.566h-.75a.56.56 0 0 0-.12-.258.623.623 0 0 0-.246-.181.923.923 0 0 0-.37-.068c-.216 0-.387.05-.512.152a.472.472 0 0 0-.184.384c0 .121.047.22.143.3a.97.97 0 0 0 .404.175l.621.143c.217.05.406.12.566.211.16.09.285.21.375.358.09.148.135.335.135.56 0 .247-.063.466-.188.656a1.216 1.216 0 0 1-.539.439c-.234.105-.52.158-.858.158a2.19 2.19 0 0 1-.665-.09 1.404 1.404 0 0 1-.478-.252 1.131 1.131 0 0 1-.29-.375Z"/>
</svg>