<svg xmlns="http://www.w3.org/2000/svg" width="16" height="16" fill="currentColor" class="bi bi-filetype-py" viewBox="0 0 16 16">
  <path fill-rule="evenodd" d="M14 4.5V14a2 2 0 0 1-2 2H7v-1h5a1 1 0 0 0 1-1V4.5h-2A1.5 1.5 0 0 1 9.5 3V1H4a1 1 0 0 0-1 1v9H2V2a2 2 0 0 1 2-2h5.5L14 4.5ZM0 11.85h1.6c.289 0 .533.06.732.179.201.117.355.276.46.477.105.201.158.427.158.677 0 .25-.054.476-.16.677-.106.199-.26.357-.464.474a1.452 1.452 0 0 1-.732.173H.79v1.342H0V11.85Zm2.06 1.714a.795.795 0 0 0 .085-.381c0-.227-.062-.4-.185-.521-.123-.122-.294-.182-.513-.182H.788v1.406h.66a.794.794 0 0 0 .374-.082.574.574 0 0 0 .238-.24Zm2.963.75v1.535H4.23v-1.52L2.89 11.85h.876l.853 1.696h.032l.856-1.696h.855l-1.339 2.464Z"/>
</svg>