<svg xmlns="http://www.w3.org/2000/svg" width="16" height="16" fill="currentColor" class="bi bi-keyboard-fill" viewBox="0 0 16 16">
  <path d="M0 6a2 2 0 0 1 2-2h12a2 2 0 0 1 2 2v5a2 2 0 0 1-2 2H2a2 2 0 0 1-2-2V6zm13 .25v.5c0 .138.112.25.25.25h.5a.25.25 0 0 0 .25-.25v-.5a.25.25 0 0 0-.25-.25h-.5a.25.25 0 0 0-.25.25zM2.25 8a.25.25 0 0 0-.25.25v.5c0 .138.112.25.25.25h.5A.25.25 0 0 0 3 8.75v-.5A.25.25 0 0 0 2.75 8h-.5zM4 8.25v.5c0 .138.112.25.25.25h.5A.25.25 0 0 0 5 8.75v-.5A.25.25 0 0 0 4.75 8h-.5a.25.25 0 0 0-.25.25zM6.25 8a.25.25 0 0 0-.25.25v.5c0 .138.112.25.25.25h.5A.25.25 0 0 0 7 8.75v-.5A.25.25 0 0 0 6.75 8h-.5zM8 8.25v.5c0 .138.112.25.25.25h.5A.25.25 0 0 0 9 8.75v-.5A.25.25 0 0 0 8.75 8h-.5a.25.25 0 0 0-.25.25zM13.25 8a.25.25 0 0 0-.25.25v.5c0 .138.112.25.25.25h.5a.25.25 0 0 0 .25-.25v-.5a.25.25 0 0 0-.25-.25h-.5zm0 2a.25.25 0 0 0-.25.25v.5c0 .138.112.25.25.25h.5a.25.25 0 0 0 .25-.25v-.5a.25.25 0 0 0-.25-.25h-.5zm-3-2a.25.25 0 0 0-.25.25v.5c0 .138.112.25.25.25h1.5a.25.25 0 0 0 .25-.25v-.5a.25.25 0 0 0-.25-.25h-1.5zm.75 2.25v.5c0 .138.112.25.25.25h.5a.25.25 0 0 0 .25-.25v-.5a.25.25 0 0 0-.25-.25h-.5a.25.25 0 0 0-.25.25zM11.25 6a.25.25 0 0 0-.25.25v.5c0 .138.112.25.25.25h.5a.25.25 0 0 0 .25-.25v-.5a.25.25 0 0 0-.25-.25h-.5zM9 6.25v.5c0 .138.112.25.25.25h.5a.25.25 0 0 0 .25-.25v-.5A.25.25 0 0 0 9.75 6h-.5a.25.25 0 0 0-.25.25zM7.25 6a.25.25 0 0 0-.25.25v.5c0 .138.112.25.25.25h.5A.25.25 0 0 0 8 6.75v-.5A.25.25 0 0 0 7.75 6h-.5zM5 6.25v.5c0 .138.112.25.25.25h.5A.25.25 0 0 0 6 6.75v-.5A.25.25 0 0 0 5.75 6h-.5a.25.25 0 0 0-.25.25zM2.25 6a.25.25 0 0 0-.25.25v.5c0 .138.112.25.25.25h1.5A.25.25 0 0 0 4 6.75v-.5A.25.25 0 0 0 3.75 6h-1.5zM2 10.25v.5c0 .138.112.25.25.25h.5a.25.25 0 0 0 .25-.25v-.5a.25.25 0 0 0-.25-.25h-.5a.25.25 0 0 0-.25.25zM4.25 10a.25.25 0 0 0-.25.25v.5c0 .138.112.25.25.25h5.5a.25.25 0 0 0 .25-.25v-.5a.25.25 0 0 0-.25-.25h-5.5z"/>
</svg>