<svg xmlns="http://www.w3.org/2000/svg" width="16" height="16" fill="currentColor" class="bi bi-microsoft-teams" viewBox="0 0 16 16">
  <path d="M9.186 4.797a2.42 2.42 0 1 0-2.86-2.448h1.178c.929 0 1.682.753 1.682 1.682v.766Zm-4.295 7.738h2.613c.929 0 1.682-.753 1.682-1.682V5.58h2.783a.7.7 0 0 1 .682.716v4.294a4.197 4.197 0 0 1-4.093 4.293c-1.618-.04-3-.99-3.667-2.35Zm10.737-9.372a1.674 1.674 0 1 1-3.349 0 1.674 1.674 0 0 1 3.349 0Zm-2.238 9.488c-.04 0-.08 0-.12-.002a5.19 5.19 0 0 0 .381-2.07V6.306a1.692 1.692 0 0 0-.15-.725h1.792c.39 0 .707.317.707.707v3.765a2.598 2.598 0 0 1-2.598 2.598h-.013Z"/>
  <path d="M.682 3.349h6.822c.377 0 .682.305.682.682v6.822a.682.682 0 0 1-.682.682H.682A.682.682 0 0 1 0 10.853V4.03c0-.377.305-.682.682-.682Zm5.206 2.596v-.72h-3.59v.72h1.357V9.66h.87V5.945h1.363Z"/>
</svg>