<svg xmlns="http://www.w3.org/2000/svg" width="16" height="16" fill="currentColor" class="bi bi-modem-fill" viewBox="0 0 16 16">
  <path d="M7 0a1.5 1.5 0 0 0-1.5 1.5v11a1.5 1.5 0 0 0 1.404 1.497c-.35.305-.872.678-1.628 1.056A.5.5 0 0 0 5.5 16h5a.5.5 0 0 0 .224-.947c-.756-.378-1.278-.75-1.628-1.056A1.5 1.5 0 0 0 10.5 12.5v-11A1.5 1.5 0 0 0 9 0H7Zm1 3a.5.5 0 1 1 0-1 .5.5 0 0 1 0 1Zm0 2a.5.5 0 1 1 0-1 .5.5 0 0 1 0 1Zm.5 1.5a.5.5 0 1 1-1 0 .5.5 0 0 1 1 0ZM8 9a.5.5 0 1 1 0-1 .5.5 0 0 1 0 1Z"/>
</svg>