<svg xmlns="http://www.w3.org/2000/svg" width="16" height="16" fill="currentColor" class="bi bi-pass" viewBox="0 0 16 16">
  <path d="M5.5 5a.5.5 0 0 0 0 1h5a.5.5 0 0 0 0-1h-5Zm0 2a.5.5 0 0 0 0 1h3a.5.5 0 0 0 0-1h-3Z"/>
  <path d="M8 2a2 2 0 0 0 2-2h2.5A1.5 1.5 0 0 1 14 1.5v13a1.5 1.5 0 0 1-1.5 1.5h-9A1.5 1.5 0 0 1 2 14.5v-13A1.5 1.5 0 0 1 3.5 0H6a2 2 0 0 0 2 2Zm0 1a3.001 3.001 0 0 1-2.83-2H3.5a.5.5 0 0 0-.5.5v13a.5.5 0 0 0 .5.5h9a.5.5 0 0 0 .5-.5v-13a.5.5 0 0 0-.5-.5h-1.67A3.001 3.001 0 0 1 8 3Z"/>
</svg>