<svg xmlns="http://www.w3.org/2000/svg" width="16" height="16" fill="currentColor" class="bi bi-postcard-fill" viewBox="0 0 16 16">
  <path d="M11 8h2V6h-2v2Z"/>
  <path d="M0 4a2 2 0 0 1 2-2h12a2 2 0 0 1 2 2v8a2 2 0 0 1-2 2H2a2 2 0 0 1-2-2V4Zm8.5.5a.5.5 0 0 0-1 0v7a.5.5 0 0 0 1 0v-7ZM2 5.5a.5.5 0 0 0 .5.5H6a.5.5 0 0 0 0-1H2.5a.5.5 0 0 0-.5.5ZM2.5 7a.5.5 0 0 0 0 1H6a.5.5 0 0 0 0-1H2.5ZM2 9.5a.5.5 0 0 0 .5.5H6a.5.5 0 0 0 0-1H2.5a.5.5 0 0 0-.5.5Zm8-4v3a.5.5 0 0 0 .5.5h3a.5.5 0 0 0 .5-.5v-3a.5.5 0 0 0-.5-.5h-3a.5.5 0 0 0-.5.5Z"/>
</svg>