<svg xmlns="http://www.w3.org/2000/svg" width="16" height="16" fill="currentColor" class="bi bi-signal" viewBox="0 0 16 16">
  <path d="m6.08.234.179.727a7.264 7.264 0 0 0-2.01.832l-.383-.643A7.9 7.9 0 0 1 6.079.234zm3.84 0L9.742.96a7.265 7.265 0 0 1 2.01.832l.388-.643A7.957 7.957 0 0 0 9.92.234zm-8.77 3.63a7.944 7.944 0 0 0-.916 2.215l.727.18a7.264 7.264 0 0 1 .832-2.01l-.643-.386zM.75 8a7.3 7.3 0 0 1 .081-1.086L.091 6.8a8 8 0 0 0 0 2.398l.74-.112A7.262 7.262 0 0 1 .75 8zm11.384 6.848-.384-.64a7.23 7.23 0 0 1-2.007.831l.18.728a7.965 7.965 0 0 0 2.211-.919zM15.251 8c0 .364-.028.727-.082 1.086l.74.112a7.966 7.966 0 0 0 0-2.398l-.74.114c.054.36.082.722.082 1.086zm.516 1.918-.728-.18a7.252 7.252 0 0 1-.832 2.012l.643.387a7.933 7.933 0 0 0 .917-2.219zm-6.68 5.25c-.72.11-1.453.11-2.173 0l-.112.742a7.99 7.99 0 0 0 2.396 0l-.112-.741zm4.75-2.868a7.229 7.229 0 0 1-1.537 1.534l.446.605a8.07 8.07 0 0 0 1.695-1.689l-.604-.45zM12.3 2.163c.587.432 1.105.95 1.537 1.537l.604-.45a8.06 8.06 0 0 0-1.69-1.691l-.45.604zM2.163 3.7A7.242 7.242 0 0 1 3.7 2.163l-.45-.604a8.06 8.06 0 0 0-1.691 1.69l.604.45zm12.688.163-.644.387c.377.623.658 1.3.832 2.007l.728-.18a7.931 7.931 0 0 0-.916-2.214zM6.913.831a7.254 7.254 0 0 1 2.172 0l.112-.74a7.985 7.985 0 0 0-2.396 0l.112.74zM2.547 14.64 1 15l.36-1.549-.729-.17-.361 1.548a.75.75 0 0 0 .9.902l1.548-.357-.17-.734zM.786 12.612l.732.168.25-1.073A7.187 7.187 0 0 1 .96 9.74l-.727.18a8 8 0 0 0 .736 1.902l-.184.79zm3.5 1.623-1.073.25.17.731.79-.184c.6.327 1.239.574 1.902.737l.18-.728a7.197 7.197 0 0 1-1.962-.811l-.007.005zM8 1.5a6.502 6.502 0 0 0-6.498 6.502 6.516 6.516 0 0 0 .998 3.455l-.625 2.668L4.54 13.5a6.502 6.502 0 0 0 6.93-11A6.516 6.516 0 0 0 8 1.5"/>
</svg>