<svg xmlns="http://www.w3.org/2000/svg" width="16" height="16" fill="currentColor" class="bi bi-ubuntu" viewBox="0 0 16 16">
  <path d="M2.273 9.53a2.273 2.273 0 1 0 0-4.546 2.273 2.273 0 0 0 0 4.547Zm9.467-4.984a2.273 2.273 0 1 0 0-4.546 2.273 2.273 0 0 0 0 4.546ZM7.4 13.108a5.535 5.535 0 0 1-3.775-2.88 3.273 3.273 0 0 1-1.944.24 7.4 7.4 0 0 0 5.328 4.465c.53.113 1.072.169 1.614.166a3.253 3.253 0 0 1-.666-1.9 5.639 5.639 0 0 1-.557-.091Zm3.828 2.285a2.273 2.273 0 1 0 0-4.546 2.273 2.273 0 0 0 0 4.546Zm3.163-3.108a7.436 7.436 0 0 0 .373-8.726 3.276 3.276 0 0 1-1.278 1.498 5.573 5.573 0 0 1-.183 5.535 3.26 3.26 0 0 1 1.088 1.693ZM2.098 3.998a3.28 3.28 0 0 1 1.897.486 5.544 5.544 0 0 1 4.464-2.388c.037-.67.277-1.313.69-1.843a7.472 7.472 0 0 0-7.051 3.745Z"/>
</svg>