<svg xmlns="http://www.w3.org/2000/svg" width="16" height="16" fill="currentColor" class="bi bi-valentine" viewBox="0 0 16 16">
  <path d="M8 5.993c1.664-1.711 5.825 1.283 0 5.132-5.825-3.85-1.664-6.843 0-5.132ZM2.25 4a.25.25 0 0 0-.25.25v1.5a.25.25 0 0 0 .5 0V4.5h1.25a.25.25 0 0 0 0-.5h-1.5Zm10 0a.25.25 0 1 0 0 .5h1.25v1.25a.25.25 0 1 0 .5 0v-1.5a.25.25 0 0 0-.25-.25h-1.5ZM2.5 10.25a.25.25 0 1 0-.5 0v1.5c0 .138.112.25.25.25h1.5a.25.25 0 1 0 0-.5H2.5v-1.25Zm11.5 0a.25.25 0 1 0-.5 0v1.25h-1.25a.25.25 0 1 0 0 .5h1.5a.25.25 0 0 0 .25-.25v-1.5Z"/>
  <path fill-rule="evenodd" d="M0 2.994v-.06a1 1 0 0 1 .859-.99l13-1.857a1 1 0 0 1 1.141.99V2a1 1 0 0 1 1 1v10a1 1 0 0 1-1 1H1a1 1 0 0 1-1-1V2.994ZM1 3v10h14V3H1Z"/>
</svg>