<svg xmlns="http://www.w3.org/2000/svg" width="16" height="16" fill="currentColor" class="bi bi-virus2" viewBox="0 0 16 16">
  <path fill-rule="evenodd" d="M8 0a1 1 0 0 0-1 1v1.143c0 .557-.407 1.025-.921 1.24-.514.214-1.12.162-1.513-.231l-.809-.809a1 1 0 1 0-1.414 1.414l.809.809c.393.394.445.999.23 1.513C3.168 6.593 2.7 7 2.142 7H1a1 1 0 0 0 0 2h1.143c.557 0 1.025.407 1.24.921.214.514.162 1.12-.231 1.513l-.809.809a1 1 0 0 0 1.414 1.414l.809-.809c.394-.394.999-.445 1.513-.23.514.214.921.682.921 1.24V15a1 1 0 1 0 2 0v-1.143c0-.557.407-1.025.921-1.24.514-.214 1.12-.162 1.513.231l.809.809a1 1 0 0 0 1.414-1.414l-.809-.809c-.394-.394-.445-.999-.23-1.513.214-.514.682-.921 1.24-.921H15a1 1 0 1 0 0-2h-1.143c-.557 0-1.025-.407-1.24-.921-.214-.514-.163-1.12.231-1.513l.809-.809a1 1 0 1 0-1.415-1.414l-.808.809c-.394.393-.999.445-1.513.23C9.407 3.168 9 2.7 9 2.142V1a1 1 0 0 0-1-1Zm2 5a1 1 0 1 1-2 0 1 1 0 0 1 2 0ZM7 7a1 1 0 1 1-2 0 1 1 0 0 1 2 0Zm1 5a1 1 0 1 0 0-2 1 1 0 0 0 0 2Zm4-4a1 1 0 1 1-2 0 1 1 0 0 1 2 0Z"/>
</svg>