<svg xmlns="http://www.w3.org/2000/svg" width="16" height="16" fill="currentColor" class="bi bi-window-dash" viewBox="0 0 16 16">
  <path d="M2.5 5a.5.5 0 1 0 0-1 .5.5 0 0 0 0 1ZM4 5a.5.5 0 1 0 0-1 .5.5 0 0 0 0 1Zm2-.5a.5.5 0 1 1-1 0 .5.5 0 0 1 1 0Z"/>
  <path d="M0 4a2 2 0 0 1 2-2h11a2 2 0 0 1 2 2v4a.5.5 0 0 1-1 0V7H1v5a1 1 0 0 0 1 1h5.5a.5.5 0 0 1 0 1H2a2 2 0 0 1-2-2V4Zm1 2h13V4a1 1 0 0 0-1-1H2a1 1 0 0 0-1 1v2Z"/>
  <path d="M16 12.5a3.5 3.5 0 1 1-7 0 3.5 3.5 0 0 1 7 0Zm-5.5 0a.5.5 0 0 0 .5.5h3a.5.5 0 0 0 0-1h-3a.5.5 0 0 0-.5.5Z"/>
</svg>