<svg xmlns="http://www.w3.org/2000/svg" width="16" height="16" fill="currentColor" class="bi bi-window-stack" viewBox="0 0 16 16">
  <path d="M4.5 6a.5.5 0 1 0 0-1 .5.5 0 0 0 0 1ZM6 6a.5.5 0 1 0 0-1 .5.5 0 0 0 0 1Zm2-.5a.5.5 0 1 1-1 0 .5.5 0 0 1 1 0Z"/>
  <path d="M12 1a2 2 0 0 1 2 2 2 2 0 0 1 2 2v8a2 2 0 0 1-2 2H4a2 2 0 0 1-2-2 2 2 0 0 1-2-2V3a2 2 0 0 1 2-2h10ZM2 12V5a2 2 0 0 1 2-2h9a1 1 0 0 0-1-1H2a1 1 0 0 0-1 1v8a1 1 0 0 0 1 1Zm1-4v5a1 1 0 0 0 1 1h10a1 1 0 0 0 1-1V8H3Zm12-1V5a1 1 0 0 0-1-1H4a1 1 0 0 0-1 1v2h12Z"/>
</svg>