<svg width="1120" height="171" viewBox="0 0 1120 171" fill="none" xmlns="http://www.w3.org/2000/svg">
<path d="M1086.58 101.009L1062.13 101.08L1062.13 58.1244H1019.19L1019.26 33.6696L1086.58 33.6696L1086.58 101.009Z" fill="white"/>
<path d="M0 57.0908H41.1587V168.12H69.2543V57.0908H110.413V33.6505H0V57.0908Z" fill="white"/>
<path d="M144.293 170.09C169.238 170.09 186.043 157.943 189.981 139.23L164.118 137.523C161.295 145.205 154.074 149.21 144.753 149.21C130.77 149.21 121.909 139.953 121.909 124.917V124.851H190.572V117.169C190.572 82.8948 169.829 65.9548 143.177 65.9548C113.506 65.9548 94.2725 87.0313 94.2725 118.154C94.2725 150.13 113.244 170.09 144.293 170.09ZM121.909 107.517C122.499 96.0266 131.23 86.8344 143.637 86.8344C155.781 86.8344 164.183 95.5014 164.249 107.517H121.909Z" fill="white"/>
<path d="M228.33 170.024C243.232 170.024 252.881 163.524 257.805 154.135H258.592V168.12H285.112V100.097C285.112 76.0663 264.763 65.9548 242.313 65.9548C218.156 65.9548 202.27 77.5108 198.397 95.8953L224.261 97.9964C226.164 91.2992 232.138 86.3747 242.181 86.3747C251.7 86.3747 257.148 91.1679 257.148 99.4409V99.8349C257.148 106.335 250.256 107.189 232.729 108.896C212.773 110.734 194.852 117.431 194.852 139.953C194.852 159.913 209.097 170.024 228.33 170.024ZM236.339 150.721C227.74 150.721 221.569 146.715 221.569 139.033C221.569 131.154 228.068 127.28 237.915 125.901C244.019 125.048 253.997 123.603 257.345 121.371V132.073C257.345 142.645 248.614 150.721 236.339 150.721Z" fill="white"/>
<path d="M297.565 168.12H325.529V107.583C325.529 96.4206 332.619 89.0011 341.94 89.0011C351.131 89.0011 357.301 95.3044 357.301 105.219V168.12H384.412V106.532C384.412 96.0923 390.386 89.0011 400.56 89.0011C409.488 89.0011 416.184 94.5821 416.184 105.81V168.12H444.082V100.294C444.082 78.43 431.085 65.9548 412.311 65.9548C397.541 65.9548 386.053 73.5056 381.918 85.0616H380.867C377.651 73.3742 367.345 65.9548 353.494 65.9548C339.905 65.9548 329.599 73.1773 325.398 85.0616H324.217V67.268H297.565V168.12Z" fill="white"/>
<path d="M540.822 96.0266C538.327 77.4451 523.361 65.9548 497.891 65.9548C472.093 65.9548 455.091 77.9047 455.156 97.3398C455.091 112.441 464.609 122.225 484.302 126.164L501.764 129.644C510.56 131.417 514.564 134.634 514.696 139.69C514.564 145.665 508.066 149.933 498.285 149.933C488.307 149.933 481.677 145.665 479.97 137.457L452.465 138.902C455.091 158.206 471.502 170.09 498.219 170.09C524.345 170.09 543.054 156.761 543.119 136.867C543.054 122.29 533.535 113.558 513.973 109.552L495.724 105.875C486.337 103.84 482.858 100.623 482.924 95.764C482.858 89.7234 489.685 85.7838 498.35 85.7838C508.066 85.7838 513.842 91.1022 515.221 97.6024L540.822 96.0266Z" fill="white"/>
<path d="M579.45 109.815C579.516 96.8145 587.459 89.1981 598.881 89.1981C610.237 89.1981 616.933 96.4862 616.867 108.896V168.12H644.831V103.906C644.897 80.2684 630.98 65.9548 609.974 65.9548C594.679 65.9548 584.439 73.1773 579.844 85.0616H578.662V33.6505H551.486V168.12H579.45V109.815Z" fill="white"/>
<path d="M686.348 170.024C701.249 170.024 710.899 163.524 715.822 154.135H716.61V168.12H743.13V100.097C743.13 76.0663 722.78 65.9548 700.33 65.9548C676.173 65.9548 660.287 77.5108 656.414 95.8953L682.278 97.9964C684.182 91.2992 690.155 86.3747 700.199 86.3747C709.717 86.3747 715.165 91.1679 715.165 99.4409V99.8349C715.165 106.335 708.273 107.189 690.746 108.896C670.79 110.734 652.869 117.431 652.869 139.953C652.869 159.913 667.114 170.024 686.348 170.024ZM694.356 150.721C685.757 150.721 679.587 146.715 679.587 139.033C679.587 131.154 686.085 127.28 695.932 125.901C702.037 125.048 712.015 123.603 715.362 121.371V132.073C715.362 142.645 706.632 150.721 694.356 150.721Z" fill="white"/>
<path d="M755.582 168.12H783.547V111.063C783.547 98.653 792.606 90.1173 804.947 90.1173C808.82 90.1173 814.137 90.7739 816.763 91.6275V66.8083C814.268 66.2174 810.789 65.8235 807.966 65.8235C796.676 65.8235 787.42 72.3894 783.744 84.8646H782.693V67.268H755.582V168.12Z" fill="white"/>
<path d="M863.235 170.09C888.18 170.09 904.985 157.943 908.923 139.23L883.06 137.523C880.237 145.205 873.016 149.21 863.695 149.21C849.713 149.21 840.851 139.953 840.851 124.917V124.851H909.514V117.169C909.514 82.8948 888.771 65.9548 862.119 65.9548C832.448 65.9548 813.215 87.0313 813.215 118.154C813.215 150.13 832.186 170.09 863.235 170.09ZM840.851 107.517C841.441 96.0266 850.172 86.8344 862.579 86.8344C874.723 86.8344 883.125 95.5014 883.191 107.517H840.851Z" fill="white"/>
<path d="M1002.41 96.0266C999.919 77.4451 984.952 65.9548 959.482 65.9548C933.684 65.9548 916.682 77.9047 916.748 97.3398C916.682 112.441 926.201 122.225 945.894 126.164L963.355 129.644C972.152 131.417 976.156 134.634 976.287 139.69C976.156 145.665 969.657 149.933 959.876 149.933C949.898 149.933 943.268 145.665 941.562 137.457L914.057 138.902C916.683 158.206 933.093 170.09 959.811 170.09C985.937 170.09 1004.65 156.761 1004.71 136.867C1004.65 122.29 995.127 113.558 975.565 109.552L957.316 105.875C947.929 103.84 944.45 100.623 944.516 95.764C944.45 89.7234 951.277 85.7838 959.942 85.7838C969.657 85.7838 975.434 91.1022 976.812 97.6024L1002.41 96.0266Z" fill="white"/>
</svg>
