<svg width="120" height="19" viewBox="0 0 120 19" fill="none" xmlns="http://www.w3.org/2000/svg">
<g clip-path="url(#clip0_407_32)">
<path d="M116.885 11.215L114.266 11.2226V6.61649H109.664L109.672 3.99417H116.885V11.215Z" fill="#21BC9C"/>
<path d="M0.491806 6.46348H4.90167V18.3692H7.91194V6.46348H12.3218V3.94995H0.491806V6.46348Z" fill="#353D5F"/>
<path d="M15.9519 18.5805C18.6245 18.5805 20.425 17.2779 20.847 15.2713L18.0759 15.0883C17.7735 15.9121 16.9998 16.3415 16.0011 16.3415C14.503 16.3415 13.5535 15.3488 13.5535 13.7365V13.7294H20.9103V12.9057C20.9103 9.23047 18.6878 7.41394 15.8323 7.41394C12.6533 7.41394 10.5925 9.67402 10.5925 13.0113C10.5925 16.4401 12.6251 18.5805 15.9519 18.5805ZM13.5535 11.8707C13.6168 10.6386 14.5523 9.65288 15.8815 9.65288C17.1827 9.65288 18.083 10.5823 18.09 11.8707H13.5535Z" fill="#353D5F"/>
<path d="M24.9559 18.5734C26.5524 18.5734 27.5863 17.8764 28.1138 16.8696H28.1982V18.3693H31.0397V11.0751C31.0397 8.49822 28.8594 7.41394 26.454 7.41394C23.8657 7.41394 22.1637 8.65314 21.7487 10.6245L24.5198 10.8498C24.7238 10.1316 25.3638 9.6036 26.4399 9.6036C27.4597 9.6036 28.0435 10.1176 28.0435 11.0047V11.0469C28.0435 11.744 27.305 11.8355 25.4271 12.0185C23.289 12.2157 21.3689 12.9338 21.3689 15.3488C21.3689 17.4892 22.8951 18.5734 24.9559 18.5734ZM25.8139 16.5034C24.8926 16.5034 24.2314 16.074 24.2314 15.2502C24.2314 14.4054 24.9277 13.9899 25.9827 13.8421C26.6368 13.7506 27.7059 13.5957 28.0646 13.3563V14.5039C28.0646 15.6375 27.1292 16.5034 25.8139 16.5034Z" fill="#353D5F"/>
<path d="M32.3739 18.3693H35.3701V11.8777C35.3701 10.6808 36.1296 9.88525 37.1284 9.88525C38.113 9.88525 38.7742 10.5611 38.7742 11.6243V18.3693H41.6789V11.7651C41.6789 10.6456 42.3189 9.88525 43.4091 9.88525C44.3656 9.88525 45.083 10.4837 45.083 11.6877V18.3693H48.0721V11.0962C48.0721 8.75169 46.6796 7.41394 44.668 7.41394C43.0856 7.41394 41.8547 8.22365 41.4117 9.46279H41.2991C40.9545 8.20958 39.8502 7.41394 38.3662 7.41394C36.9103 7.41394 35.8061 8.18843 35.356 9.46279H35.2294V7.55479H32.3739V18.3693Z" fill="#353D5F"/>
<path d="M58.4371 10.6386C58.17 8.6461 56.5662 7.41394 53.8372 7.41394C51.0733 7.41394 49.2517 8.69538 49.2587 10.7794C49.2517 12.3988 50.2717 13.4478 52.3815 13.8702L54.2523 14.2434C55.1946 14.4335 55.6239 14.7785 55.6377 15.3207C55.6239 15.9613 54.9276 16.419 53.8795 16.419C52.8103 16.419 52.1002 15.9613 51.9172 15.0813L48.9703 15.2362C49.2516 17.3061 51.0098 18.5805 53.8726 18.5805C56.672 18.5805 58.6761 17.1512 58.6835 15.0179C58.6761 13.4549 57.6566 12.5185 55.5605 12.089L53.6051 11.6947C52.5994 11.4764 52.2266 11.1314 52.2339 10.6104C52.2266 9.96266 52.9584 9.54025 53.8864 9.54025C54.9276 9.54025 55.5462 10.1105 55.6943 10.8076L58.4371 10.6386Z" fill="#353D5F"/>
<path d="M62.5761 12.1172C62.5829 10.7231 63.4338 9.90635 64.6579 9.90635C65.8746 9.90635 66.5916 10.6879 66.5847 12.0185V18.3692H69.5808V11.4835C69.5882 8.94881 68.097 7.41394 65.8465 7.41394C64.2074 7.41394 63.1102 8.18843 62.6179 9.46279H62.4915V3.94995H59.5795V18.3692H62.5761V12.1172Z" fill="#353D5F"/>
<path d="M74.0292 18.5734C75.6256 18.5734 76.6598 17.8764 77.187 16.8696H77.2716V18.3693H80.1128V11.0751C80.1128 8.49822 77.9326 7.41394 75.5272 7.41394C72.9388 7.41394 71.2372 8.65314 70.8221 10.6245L73.5929 10.8498C73.797 10.1316 74.4369 9.6036 75.5134 9.6036C76.5329 9.6036 77.1167 10.1176 77.1167 11.0047V11.0469C77.1167 11.744 76.3785 11.8355 74.5003 12.0185C72.3624 12.2157 70.442 12.9338 70.442 15.3488C70.442 17.4892 71.9685 18.5734 74.0292 18.5734ZM74.8874 16.5034C73.9657 16.5034 73.3047 16.074 73.3047 15.2502C73.3047 14.4054 74.0011 13.9899 75.0561 13.8421C75.7102 13.7506 76.7793 13.5957 77.1379 13.3563V14.5039C77.1379 15.6375 76.2024 16.5034 74.8874 16.5034Z" fill="#353D5F"/>
<path d="M81.4471 18.3692H84.4436V12.2509C84.4436 10.9202 85.4139 10.0049 86.7364 10.0049C87.151 10.0049 87.721 10.0753 88.0023 10.1669V7.50551C87.7348 7.44212 87.362 7.39987 87.0595 7.39987C85.8502 7.39987 84.8582 8.10394 84.4643 9.44169H84.3521V7.55479H81.4471V18.3692Z" fill="#353D5F"/>
<path d="M92.9813 18.5805C95.6543 18.5805 97.4548 17.2779 97.8767 15.2713L95.1054 15.0883C94.803 15.9121 94.0293 16.3415 93.0305 16.3415C91.5325 16.3415 90.5833 15.3488 90.5833 13.7365V13.7294H97.9397V12.9057C97.9397 9.23047 95.7172 7.41394 92.8618 7.41394C89.6828 7.41394 87.6221 9.67402 87.6221 13.0113C87.6221 16.4401 89.6548 18.5805 92.9813 18.5805ZM90.5833 11.8707C90.6462 10.6386 91.5816 9.65288 92.911 9.65288C94.2123 9.65288 95.1123 10.5823 95.1197 11.8707H90.5833Z" fill="#353D5F"/>
<path d="M107.893 10.6386C107.626 8.6461 106.022 7.41394 103.293 7.41394C100.529 7.41394 98.7079 8.69538 98.7147 10.7794C98.7079 12.3988 99.7279 13.4478 101.838 13.8702L103.709 14.2434C104.651 14.4335 105.08 14.7785 105.094 15.3207C105.08 15.9613 104.384 16.419 103.336 16.419C102.267 16.419 101.556 15.9613 101.373 15.0813L98.4265 15.2362C98.7079 17.3061 100.466 18.5805 103.329 18.5805C106.128 18.5805 108.132 17.1512 108.14 15.0179C108.132 13.4549 107.113 12.5185 105.017 12.089L103.061 11.6947C102.056 11.4764 101.683 11.1314 101.69 10.6104C101.683 9.96266 102.415 9.54025 103.343 9.54025C104.384 9.54025 105.002 10.1105 105.15 10.8076L107.893 10.6386Z" fill="#353D5F"/>
</g>
<defs>
<clipPath id="clip0_407_32">
<rect width="120" height="18.6885" fill="white"/>
</clipPath>
</defs>
</svg>
