<svg viewBox="0 0 16 16" version="1.1" xmlns="http://www.w3.org/2000/svg" xmlns:xlink="http://www.w3.org/1999/xlink">
  <g stroke="none" stroke-width="1" fill="none" fill-rule="evenodd">
    <g fill="currentColor">
      <path d="M7.34370757,6.65081435 L9.34918565,8.65629243 C9.10574722,9.1558136 8.59306813,9.5 8,9.5 C7.17157288,9.5 6.5,8.82842712 6.5,8 C6.5,7.40693187 6.8441864,6.89425278 7.34370757,6.65081435 Z M8.93060759,6.82350081 C9.02175034,6.89569214 9.10430786,6.97824966 9.17649919,7.06939241 L8.93060759,6.82350081 Z"></path>
      <path d="M4.9571931,4.26429988 L6.61276976,5.91987654 C5.94184716,6.36820429 5.5,7.13250268 5.5,8 C5.5,9.38071187 6.61928813,10.5 8,10.5 C8.86749732,10.5 9.63179571,10.0581528 10.0801235,9.38723024 L12.1508136,11.4579204 C10.9444637,12.1535637 9.52101957,12.6679688 8.07003348,12.6679688 C4.2608394,12.6679688 0.641462054,9.12004917 0.641462054,8.06023821 C0.641462054,7.3091732 2.55433524,5.3449816 4.9571931,4.26429988 Z M5.97908567,3.87197889 C6.66389132,3.65490666 7.37049222,3.52511161 8.07003348,3.52511161 C11.6898069,3.52511161 15.4986049,6.9977417 15.4986049,8.06023821 C15.4986049,8.61664111 14.506043,9.85389887 13.0134394,10.9063327 L10.473362,8.3662552 C10.4909114,8.24671135 10.5,8.12441705 10.5,8 C10.5,6.61928813 9.38071187,5.5 8,5.5 C7.87558295,5.5 7.75328865,5.50908857 7.6337448,5.52663802 L5.97908567,3.87197889 Z"></path>
      <rect transform="translate(7.967514, 7.967514) scale(-1, 1) rotate(-225.000000) translate(-7.967514, -7.967514) " x="-1.03248558" y="7.46751442" width="18" height="1" rx="0.5"></rect>
    </g>
  </g>
</svg>
