<svg viewBox="0 0 16 16" version="1.1" xmlns="http://www.w3.org/2000/svg" xmlns:xlink="http://www.w3.org/1999/xlink">
  <g stroke="none" stroke-width="1" fill="none" fill-rule="evenodd">
    <g fill="currentColor">
      <path d="M10.0196227,3.82829939 L8.32676039,5.52116167 C8.21981741,5.50720147 8.1107497,5.5 8,5.5 C6.61928813,5.5 5.5,6.61928813 5.5,8 C5.5,8.1107497 5.50720147,8.21981741 5.52116167,8.32676039 L3.019233,10.8286891 C1.58660175,9.79311821 0.641462054,8.60181429 0.641462054,8.06023821 C0.641462054,7.00042725 4.45026003,3.52511161 8.07003348,3.52511161 C8.72154307,3.52511161 9.37917613,3.63760768 10.0196227,3.82829939 Z M11.9951094,4.6709818 C14.0028061,5.78204489 15.4986049,7.39439781 15.4986049,8.06023821 C15.4986049,9.12273472 11.8792276,12.6679688 8.07003348,12.6679688 C6.92918563,12.6679688 5.80536422,12.3497227 4.79070376,11.8753874 L6.5967572,10.069334 C6.99683011,10.3411572 7.47986519,10.5 8,10.5 C9.38071187,10.5 10.5,9.38071187 10.5,8 C10.5,7.47986519 10.3411572,6.99683011 10.069334,6.5967572 L11.9951094,4.6709818 Z"></path>
      <path d="M6.63636467,8.62577096 L8.62577096,6.63636467 C9.14173938,6.87353164 9.5,7.3949277 9.5,8 C9.5,8.82842712 8.82842712,9.5 8,9.5 C7.3949277,9.5 6.87353164,9.14173938 6.63636467,8.62577096 Z"></path>
      <rect transform="translate(8.029785, 7.929199) rotate(-225.000000) translate(-8.029785, -7.929199) " x="-0.970214844" y="7.42919922" width="18" height="1" rx="0.5"></rect>
    </g>
  </g>
</svg>
