<svg viewBox="0 0 16 16" version="1.1" xmlns="http://www.w3.org/2000/svg" xmlns:xlink="http://www.w3.org/1999/xlink">
  <g stroke="none" stroke-width="1" fill="none" fill-rule="evenodd">
    <g fill="currentColor">
      <path d="M7.29386978,8.02282715 L5.17254944,10.1441475 C4.97728729,10.3394096 4.97728729,10.6559921 5.17254944,10.8512543 C5.36781158,11.0465164 5.68439407,11.0465164 5.87965622,10.8512543 L8.00097656,8.72993393 L10.1222969,10.8512543 C10.3175591,11.0465164 10.6341415,11.0465164 10.8294037,10.8512543 C11.0246658,10.6559921 11.0246658,10.3394096 10.8294037,10.1441475 L8.70808334,8.02282715 L10.8294037,5.9015068 C11.0246658,5.70624466 11.0246658,5.38966217 10.8294037,5.19440002 C10.6341415,4.99913788 10.3175591,4.99913788 10.1222969,5.19440002 L8.00097656,7.31572037 L5.87965622,5.19440002 C5.68439407,4.99913788 5.36781158,4.99913788 5.17254944,5.19440002 C4.97728729,5.38966217 4.97728729,5.70624466 5.17254944,5.9015068 L7.29386978,8.02282715 Z M8,14.8571429 C4.21290457,14.8571429 1.14285714,11.7870954 1.14285714,8 C1.14285714,4.21290457 4.21290457,1.14285714 8,1.14285714 C11.7870954,1.14285714 14.8571429,4.21290457 14.8571429,8 C14.8571429,11.7870954 11.7870954,14.8571429 8,14.8571429 Z"></path>
    </g>
  </g>
</svg>
