<?xml version="1.0" encoding="UTF-8" standalone="no"?>
<!-- Created with Inkscape (http://www.inkscape.org/) -->
<svg xmlns:dc="http://purl.org/dc/elements/1.1/" xmlns:cc="http://creativecommons.org/ns#" xmlns:rdf="http://www.w3.org/1999/02/22-rdf-syntax-ns#" xmlns:svg="http://www.w3.org/2000/svg" xmlns="http://www.w3.org/2000/svg" xmlns:xlink="http://www.w3.org/1999/xlink" xmlns:sodipodi="http://sodipodi.sourceforge.net/DTD/sodipodi-0.dtd" xmlns:inkscape="http://www.inkscape.org/namespaces/inkscape" id="svg4301" viewBox="0 0 307.58 261.84" version="1.0" inkscape:version="0.48.4 r9939" sodipodi:docname="chaussures.svg">
  <sodipodi:namedview pagecolor="#ffffff" bordercolor="#666666" borderopacity="1" objecttolerance="10" gridtolerance="10" guidetolerance="10" inkscape:pageopacity="0" inkscape:pageshadow="2" inkscape:window-width="1366" inkscape:window-height="719" id="namedview90" showgrid="false" inkscape:zoom="0.90131378" inkscape:cx="560.67485" inkscape:cy="151.01783" inkscape:window-x="0" inkscape:window-y="25" inkscape:window-maximized="1" inkscape:current-layer="svg4301"/>
  <defs id="defs4303">
    <linearGradient id="linearGradient3321" y2="156.59" gradientUnits="userSpaceOnUse" x2="319.39" gradientTransform="translate(71.83 210.51)" y1="249.49" x1="327.13">
      <stop id="stop2445" style="stop-color:#4e4e4e;stop-opacity:1;" offset="0"/>
      <stop id="stop2447" style="stop-color:#cdcdcd;stop-opacity:1;" offset="1"/>
    </linearGradient>
    <radialGradient id="radialGradient3323" gradientUnits="userSpaceOnUse" cy="305.17" cx="161.26" gradientTransform="matrix(.6108 0 0 .6108 215.8 352.93)" r="37.761">
      <stop id="stop2460" style="stop-color:#cdcdcd;stop-opacity:1;" offset="0"/>
      <stop id="stop2462" style="stop-color:#cfcfcf;stop-opacity:1;" offset="0.2703"/>
      <stop id="stop2464" style="stop-color:#d3d3d3;stop-opacity:1;" offset="0.4603"/>
      <stop id="stop2466" style="stop-color:#dcdcdc;stop-opacity:1;" offset="0.62559998"/>
      <stop id="stop2468" style="stop-color:#e7e7e7;stop-opacity:1;" offset="0.77679998"/>
      <stop id="stop2470" style="stop-color:#f7f7f7;stop-opacity:1;" offset="0.91720003"/>
      <stop id="stop2472" style="stop-color:#ffffff;stop-opacity:1;" offset="1"/>
    </radialGradient>
    <linearGradient id="linearGradient3325" y2="315.57" gradientUnits="userSpaceOnUse" x2="185.59" gradientTransform="translate(71.83 210.51)" y1="315.57" x1="163.05">
      <stop id="stop2477" style="stop-color:#cdcdcd;stop-opacity:1;" offset="0"/>
      <stop id="stop2479" style="stop-color:#ffffff" offset="1"/>
    </linearGradient>
    <linearGradient id="linearGradient3327" y2="149.16" gradientUnits="userSpaceOnUse" x2="312.09" y1="239.51" x1="303.03">
      <stop id="stop2651" style="stop-color:#cdcdcd;stop-opacity:1;" offset="0"/>
      <stop id="stop2653" style="stop-color:#ffffff" offset="1"/>
    </linearGradient>
    <radialGradient inkscape:collect="always" xlink:href="#radialGradient3323" id="radialGradient3846" cx="-252.96408" cy="92.035866" fx="-252.96408" fy="92.035866" r="45.934406" gradientTransform="matrix(1.1352297,-1.0627683,0.60088776,0.64185731,-21.094963,-239.15678)" gradientUnits="userSpaceOnUse"/>
  </defs>
  <g id="layer1" transform="translate(-218.26 -395.26)">
    <g id="g4403" transform="translate(-5.0956 59.533)">
      <path id="path3529_2_" style="fill:#ffffff" d="m299.45 339.2c-6.14 0.41-24.15 2.87-31.52 5.33s-13.51 5.27-12.28 8.14 3.82 2.87 3.82 2.87-5.07 56.14-8.75 64.74c-3.69 8.6-11.65 20.2-17.2 33.16-7.45 17.41-6.79 33.96-5.97 42.15 0.81 8.19 1.91 16.16 8.46 16.98l0.02 0.02-0.46 16.79s6.22 4.84 20.16 9.61c16.34 5.6 22.04 5.44 40.35 5.27 5.46-0.05 12.41-0.63 17.55 0.23l22.11 13.43c19.39 13.91 27.21 16.49 49.43 25.37 10.71 4.22 12.66 2.1 15.61 1.8 1.32 0.8 5.16 8.65 20.52 4.81 8.99 5.08 17.69 4.99 24.86 2.04 13.42 4.08 21.92 2.52 27.61-2.53 11.48 3.49 23.78 1.9 29.18-5.52 10.23-0.47 12.79-1.88 17.89-9.24 5.13-1.92 7.69-4.44 7.69-10.2-0.33-7.94-1.93-15.12-3.85-22.11 0 0-2.41-6.72-7.21-6.72 0 0 3.32-25.54-36.98-42.73-2-0.85-6.73-1-8.66-1.84-29.72-12.92-38.96-24.28-38.96-24.28l-20.65-15.85c-7.07-7.85-13.09-12.1-16.93-42.18-3.71-29.08 6.88-58.01 6.88-58.01s-1.71-2.51-5.39-2.51c-3.69 0-4.49 1.22-4.49 1.22s-28.65 1.25-33.86-1.64c-3.9-2.16-5.15-7.37-18.02-8.6-13.61-1.09-27.33-0.71-40.96 0z"/>
      <path id="path2415" style="fill:#409EFE;fill-opacity:1" d="m325.11 347.4c-27.5-0.28-67.53 7.38-67.53 7.38l0.25 14.75-5.28 39.12-6.94 21.32-5.34 8.4-1.47 3.35-9.03 14.87-1.31 8.94-1.97 4.53v8.94l-1.19 8.12h1.19v9.03l5.97 14.54 8.18 3.34 25.72 7.84 21.63 0.38 18.28-1.5 5.22 2.25 15.28 5.97 26.09 14.53 36.16 16.78 10.81 2.22 1.5-1.85 2.25-20.5 6.69-17.53 14.56-16.78 20.5-11.56 22.38-4.09-7.85-5.97-4.28-1.63-10.59-5.94-33.44-26.21-12.62-26.1-5.04-32.5s5.5-32.67 5.5-34.84-13.31-1.38-18.56-1.38c-5.24 0-15.74 1.86-36.72-5.75-4.59-1.66-11.29-2.39-19-2.47z"/>
      <path id="path2449" style="fill:url(#linearGradient3321)" d="m359.61 351.33l7.99 64.43s4.74 26.72 11.98 37.96c7.25 11.23 13.99 17.58 28.72 25.72 14.74 8.14 18.98 8.14 18.98 8.14s6.62-4.02 2.5-8.14-19.73-14.48-22.23-16.98-15.48-18.98-16.48-22.73c-1-3.74-6.51-16.34-6.51-41.55s5.36-39.37 5.36-39.37l2.15-6.73-32.46-0.75z"/>
      <path id="path2451" style="fill:#2e3436" d="m358.47 351.47l7.99 64.43c0.2 1.16 4.88 27.14 12.16 38.44 7.58 11.77 14.66 18.11 29.13 26.1 14.57 8.06 19.07 8.29 19.53 8.29h0.32l0.28-0.17c0.4-0.25 3.98-2.5 4.36-5.71 0.13-1.04-0.06-2.63-1.65-4.22-2.38-2.38-8.35-6.69-13.61-10.48-3.9-2.82-7.59-5.47-8.62-6.51-2.78-2.78-15.3-18.9-16.18-22.2l-0.69-2.22c-1.73-5.27-5.78-17.61-5.78-39.04 0-24.67 5.24-38.83 5.29-38.97l2.63-8.25-35.33-0.81 0.17 1.32zm50.39 126.97c-14.09-7.78-20.97-13.94-28.31-25.34-7.04-10.92-11.78-37.28-11.82-37.54 0 0-7.51-60.52-7.82-63.05 2.32 0.05 26.94 0.62 29.6 0.68-0.57 1.79-1.68 5.27-1.68 5.27-0.2 0.52-5.42 14.59-5.42 39.72 0 21.8 4.13 34.38 5.9 39.76l0.65 2.09c1.12 4.18 14.4 20.86 16.78 23.24 1.16 1.16 4.74 3.74 8.9 6.74 5.19 3.75 11.07 7.99 13.33 10.24 0.68 0.68 1.01 1.36 1.01 2.06 0 0.09 0 0.18-0.02 0.27-0.19 1.62-2.02 3.15-2.98 3.81-1.21-0.19-6.14-1.33-18.12-7.95z"/>
      <path id="path2457" style="fill:#d3d7cf" d="m489.55 505.94s18.34 2.45 22.79 27.53c0.57 10.4-4.36 6.85-4.36 4.1-1.05-4.16-4.18-21.14-18.43-31.63z"/>
      <path id="path2474" style="fill:url(#radialGradient3323)" d="m287.17 522.78l1.21 23.54 25.12-0.46 18.64 11.59 9.27-20.03-33.28-16.22-20.96 1.58z"/>
      <path id="path2481" style="fill:url(#linearGradient3325)" d="m236.58 510.93l20.52 8.72 0.32 21.58-22.54-10.21 1.7-20.09z"/>
      <path id="path2483" style="fill:#d3d7cf" d="m516.48 536.36l9.06 11.87 0.86 21.35-5.39 3.02s0.75-20.49-5.29-36.23"/>
      <path id="path2485" style="fill:#d3d7cf" d="m506.25 543.91l7.55 0.65 5.39 31.27-6.9 5.82s1.72-29.11-6.04-37.74z"/>
      <path id="path2487" style="fill:#d3d7cf" d="m490.07 550.6l8.85 3.67 3.37 29.89-8.33 5.26s3.23-36.23-3.89-38.82"/>
      <path id="path2489" style="fill:#d3d7cf" d="m466.45 555.56l6.04 4.96-1.08 30.41-7.98 2.15s8.2-9.27 3.02-37.52"/>
      <path id="path2491" style="fill:#d3d7cf" d="m439.18 556.73l7.76 4.53s-2.37 12.08-2.37 12.73c0 0.64 0.43 14.88 0.43 14.88l-8.84 4.1s8.84-10.57 3.02-36.24z"/>
      <path id="path2493" style="fill:#d3d7cf" d="m396.48 567.2l3.23 1.51v16.18l-4.74 0.22s4.09-5.61 1.51-17.91"/>
      <path id="path2497" style="fill:#d3d7cf" d="m419.12 558.36l3.67 3.24-2.65 5.6-0.57 21.89-7.56 0.11s3.45-0.65 7.11-30.84z"/>
      <path id="path2580" style="fill:#2e3436" d="m298.63 336.41h-0.04c-6.05 0.41-24.52 2.9-32.29 5.49-8.67 2.89-12.75 5.27-14.07 8.21-0.31 0.68-0.46 1.38-0.46 2.09 0 0.66 0.14 1.32 0.4 1.94 0.82 1.91 2.09 3.1 3.37 3.81-2.07 22.42-5.82 55.62-8.3 61.39-1.58 3.71-4.11 8.19-6.78 12.94-3.42 6.06-7.28 12.92-10.41 20.23-4.43 10.34-6.7 21.92-6.7 33.95 0 3.21 0.16 6.44 0.49 9.7 0.7 6.98 1.64 16.24 8.41 18.99-0.1 3.51-0.44 15.96-0.44 15.96l1.22 0.96c0.27 0.21 6.79 5.2 21.05 10.08 16.55 5.67 22.56 5.61 40.43 5.44l0.94-0.01 4.54-0.11c4.21-0.13 8.52-0.25 11.97 0.25 1.08 0.66 21.26 12.92 21.44 13.03 18.09 12.96 26.52 16.31 44.95 23.65l5.02 2c8.76 3.45 12.45 3.05 15.73 2.27 2.37 2.53 8.01 7.64 21.17 4.71 8.26 4.31 17.17 5.04 25.35 2.03 12.19 3.51 21.45 2.74 28.2-2.38 12.31 3.27 23.95 0.95 29.96-5.91 9.66-0.59 13.21-2.48 18.36-9.71 4.49-1.83 8.79-4.9 8.79-12.7v-0.06-0.07c-0.37-8.77-2.21-16.44-3.96-22.79l-0.03-0.1-0.04-0.11c-0.92-2.58-3.3-6.53-6.97-8.08-0.27-7.49-4.28-28.39-38.9-43.16-1.36-0.58-3.18-0.85-5.11-1.13-1.24-0.19-2.94-0.44-3.53-0.7-28.45-12.37-37.73-23.31-37.82-23.42l-0.22-0.26-0.28-0.22s-20.02-15.36-20.43-15.69c-0.32-0.34-1.52-1.65-1.52-1.65-6.18-6.69-11.05-11.97-14.46-38.65-0.53-4.17-0.76-8.34-0.76-12.43 0-23.35 7.4-43.91 7.48-44.15l0.54-1.47-0.88-1.3c-0.27-0.39-2.77-3.84-7.92-3.84-2.76 0-4.48 0.59-5.56 1.25-13.17 0.53-28.62 0.2-31.31-1.29-0.72-0.4-1.4-1.04-2.26-1.85-2.75-2.58-6.52-6.12-16.95-7.12-14.5-1.16-29.07-0.65-41.41-0.01zm40.88 6.11c8.29 0.79 10.95 3.29 13.3 5.49 1.02 0.96 2.09 1.96 3.48 2.73 5.53 3.07 28.55 2.33 35.47 2.02l1.28-0.05s0.38-0.44 0.72-0.82c0.07-0.05 0.68-0.34 2.36-0.34 0.79 0 1.36 0.2 1.82 0.43-1.92 5.87-7.17 23.7-7.17 44.02 0 4.38 0.25 8.88 0.82 13.39 3.66 28.63 9.39 34.84 16.03 42.03l1.85 2.02 0.23 0.18s19.92 15.29 20.4 15.66c1.7 1.93 12.03 12.75 39.84 24.84 1.34 0.58 3.16 0.85 5.08 1.14 1.32 0.19 2.97 0.44 3.61 0.71 32.9 14.03 35.2 33.23 35.2 38.3 0 0.7-0.04 1.13-0.06 1.25l-0.39 3.41 3.43 0.02c1.94 0 3.7 3.06 4.29 4.62 1.65 5.97 3.36 13.14 3.71 21.21-0.02 3.98-1.3 5.62-5.7 7.27l-0.9 0.34-0.55 0.78c-4.38 6.32-5.92 7.48-15.51 7.93l-1.47 0.07-0.87 1.19c-4.29 5.9-14.91 7.71-25.81 4.39l-1.64-0.49-1.28 1.13c-5.31 4.71-13.38 5.33-24.69 1.89l-1.05-0.31-1 0.41c-4.99 2.05-12.89 3.39-22.19-1.88l-1.07-0.6-1.18 0.3c-11.29 2.82-14.96-1.19-16.72-3.13l-2.6-2.34-0.77 0.59-2.1 0.39c-1.95 0.47-4.38 1.04-12.09-1.99 0.02 0-5.01-2-5.01-2-18.53-7.38-26.2-10.43-43.75-23.02l-0.1-0.06-22.7-13.8-0.58-0.1c-4.12-0.69-9.2-0.53-13.69-0.38l-4.4 0.11-0.95 0.01c-17.53 0.16-22.83 0.21-38.38-5.12-9.82-3.36-15.68-6.76-18.05-8.29 0.07-2.7 0.49-17.9 0.49-17.9l-2.77-0.37c-3.73-0.46-4.92-5.36-5.8-14.24-0.31-3.06-0.46-6.1-0.46-9.11 0-11.19 2.1-21.95 6.2-31.53 3-7 6.78-13.72 10.12-19.64 2.75-4.89 5.36-9.52 7.08-13.53 3.76-8.79 8.46-59.87 8.99-65.66l0.29-3.24s-2.99-0.09-3.21-0.1c-0.16-0.01-0.5-0.1-0.81-0.47 0.72-0.68 2.99-2.21 10.1-4.58 6.78-2.26 24.22-4.74 30.75-5.18 12.13-0.63 26.44-1.13 40.53 0z"/>
      <path style="fill:#2e3436" d="M 13.40625 174.5 L 12.21875 176.46875 C 32.228749 188.40875 51.296251 189.33125 83.90625 186.78125 C 94.56625 189.67125 104.36375 195.21375 113.84375 200.59375 C 118.76375 203.39375 123.87 206.28 129 208.75 C 157.51142 222.9319 163.05796 225.54474 177.5625 227.96875 C 176.97616 228.96111 176.47871 230.05592 176.0625 231.25 L 176.03125 231.34375 L 176 231.40625 C 175.12232 230.74911 173.9157 230.06765 172.21875 229.6875 L 172.15625 229.6875 L 172.09375 229.6875 C 165.49375 228.9475 160.72625 231.2125 158.65625 236.0625 L 158.625 236.125 L 158.59375 236.21875 C 157.68375 239.78875 157.6725 243.64375 158.5625 248.34375 L 160.84375 247.90625 C 160.42375 245.71625 160.21875 243.74625 160.21875 241.90625 C 160.21875 240.11625 160.4125 238.455 160.8125 236.875 C 162.4725 233.055 166.24 231.36875 171.75 231.96875 C 173.98435 232.47884 175.10023 233.5158 175.5625 234.09375 C 174.874 239.05235 175.01123 244.43196 176 250.8125 L 178.28125 250.46875 C 177.71125 246.82875 177.4375 243.5175 177.4375 240.4375 C 177.4375 237.4175 177.7 234.6175 178.25 231.9375 C 180.55 225.3975 185.74125 222.49 193.28125 223.5 C 196.92386 224.5123 198.39914 226.72513 198.84375 227.5625 C 198.02304 228.93811 197.33544 230.47205 196.78125 232.1875 L 196.75 232.28125 L 196.75 232.34375 C 195.4 239.38375 195.4 247.00375 196.75 256.34375 L 199 256 C 198.34 251.45 198 247.34 198 243.5 C 198 239.71 198.36 236.20375 199 232.84375 C 201.7 224.58375 207.74125 220.88625 216.53125 222.15625 C 220.35647 223.30308 222.21461 225.77974 222.9375 227.0625 C 222.37942 228.19593 221.91063 229.42222 221.5 230.75 L 221.46875 230.8125 L 221.46875 230.90625 C 220.10875 238.25625 220.0875 246.20875 221.4375 255.96875 L 223.71875 255.65625 C 223.05875 250.89625 222.71875 246.5825 222.71875 242.5625 C 222.71875 238.5925 223.0475 234.895 223.6875 231.375 C 226.3875 222.715 232.47 218.8675 241.25 220.1875 C 246.2917 221.77506 248.40986 226.12107 248.59375 226.5 C 248.55888 226.60813 248.50259 226.70306 248.46875 226.8125 L 248.4375 226.96875 L 248.40625 227.125 C 248.12625 232.795 248.2225 238.3925 248.3125 243.8125 L 248.40625 251.875 L 250.71875 251.875 L 250.625 243.78125 C 250.585 241.06125 250.53125 238.32125 250.53125 235.53125 C 250.53125 232.84125 250.58875 230.095 250.71875 227.375 C 253.42875 218.755 259.49 214.89875 268.25 216.21875 C 272.80875 217.645 274.44139 220.00773 274.84375 220.6875 C 274.92127 221.41844 275.01239 222.20846 275.125 223.1875 C 275.605 227.3775 276.43375 234.40875 277.34375 246.96875 L 279.625 246.8125 C 278.705 234.2025 277.89625 227.1575 277.40625 222.9375 C 277.09625 220.3175 276.9375 218.7875 276.9375 217.6875 C 276.9375 217.1375 276.9625 216.70125 277.0625 216.28125 C 278.2625 213.09125 280.08875 210.9925 282.46875 210.0625 C 285.34651 208.92711 288.41554 209.72238 289.96875 210.28125 C 290.80024 215.92606 292.44227 226.28561 292.53125 226.84375 L 294.34375 238.1875 L 296.625 237.8125 L 294.8125 226.46875 C 294.7925 226.29875 292.14125 209.71 291.78125 206.75 C 291.47125 204.16 292.605 202.02 292.625 202 L 290.625 200.90625 C 290.565 201.01625 289.1 203.69125 289.5 207.03125 C 289.51583 207.16362 289.56984 207.60059 289.59375 207.78125 C 287.57406 207.21222 284.57689 206.75501 281.625 207.90625 C 278.585 209.09625 276.315 211.6825 274.875 215.5625 L 274.875 215.625 L 274.84375 215.6875 C 274.73609 216.14297 274.6814 216.62015 274.65625 217.125 C 273.37099 216.02782 271.51706 214.8302 268.8125 214 L 268.75 214 L 268.65625 213.96875 C 259.77355 212.59945 253.1278 216.05741 249.625 223.75 C 248.33814 221.8835 245.88727 219.17921 241.84375 217.9375 L 241.75 217.9375 L 241.6875 217.90625 C 233.98912 216.71832 227.9672 219.18454 224.21875 224.875 C 223.02733 223.20051 220.87545 221.03333 217.125 219.9375 L 217.03125 219.90625 L 216.96875 219.90625 C 209.76924 218.8458 204.02926 220.81365 200.25 225.53125 C 199.23637 224.13241 197.29552 222.19139 193.84375 221.25 L 193.75 221.21875 L 193.6875 221.21875 C 186.99056 220.30273 181.74959 222.2084 178.46875 226.625 L 178.59375 225.84375 C 164.31375 223.50375 159.7 221.4675 130 206.6875 C 124.92 204.2475 119.89 201.37375 115 198.59375 C 105.35 193.11375 95.35375 187.46 84.34375 184.5 L 84.15625 184.4375 L 83.9375 184.46875 C 51.697501 187.00875 32.926249 186.14 13.40625 174.5 z " transform="translate(223.3556,335.727)" id="path2582"/>
      <path id="path2598" style="fill:#2e3436" d="m419.3 506.98c-10.88 9.7-23.31 27.27-20.82 55.92l6.09-0.53c-2.27-26.12 8.97-42.06 18.8-50.82 15.94-14.22 38.54-19.04 51.7-16.36l1.22-5.99c-14.99-3.06-39.38 2.07-56.99 17.78z"/>
      <path id="path2600" style="fill:#2e3436" d="m232.82 519.57c-0.93 1.44-0.51 3.35 0.94 4.28 20.61 13.17 45.09 17.69 79.24 14.62 4.6 2.5 7.81 4.51 11.14 6.62 4.93 3.11 10.52 6.64 21.91 12.57 1.52 0.79 3.39 0.2 4.18-1.32s0.2-3.39-1.32-4.18c-11.16-5.81-16.63-9.26-21.46-12.31-3.63-2.29-7.06-4.46-12.3-7.28-0.54-0.29-1.15-0.41-1.76-0.35-33.19 3.11-56.73-1.08-76.3-13.59-1.44-0.93-3.35-0.51-4.27 0.94z"/>
      <path id="path2731_2_" style="fill:#8cc2d7" d="m356.17 362.56c0 2.93-2.14 5.3-4.77 5.3-2.64 0-4.77-2.37-4.77-5.3 0-2.92 2.13-5.29 4.77-5.29 2.63 0 4.77 2.37 4.77 5.29z"/>
      <path id="path2603" style="fill:#2e3436" d="m345.52 362.56c0 3.53 2.64 6.4 5.88 6.4s5.87-2.87 5.87-6.4c0-3.52-2.63-6.39-5.87-6.39s-5.88 2.87-5.88 6.39zm2.21 0c0-2.31 1.64-4.19 3.67-4.19 2.02 0 3.66 1.88 3.66 4.19s-1.64 4.19-3.66 4.19-3.67-1.88-3.67-4.19z"/>
      <path id="path3503_2_" style="fill:#babdb6" d="m360.14 395.34c0 2.93-2.14 5.3-4.77 5.3-2.64 0-4.78-2.37-4.78-5.3 0-2.92 2.14-5.29 4.78-5.29 2.63 0 4.77 2.37 4.77 5.29z"/>
      <path id="path2606" style="fill:#2e3436" d="m349.49 395.34c0 3.53 2.63 6.4 5.87 6.4s5.88-2.87 5.88-6.4c0-3.52-2.64-6.39-5.88-6.39s-5.87 2.87-5.87 6.39zm2.2 0c0-2.31 1.65-4.19 3.67-4.19 2.03 0 3.67 1.88 3.67 4.19s-1.64 4.19-3.67 4.19c-2.02 0-3.67-1.88-3.67-4.19z"/>
      <path id="path3505_2_" style="fill:#babdb6" d="m364.57 429.35c0 2.92-2.14 5.29-4.78 5.29-2.63 0-4.77-2.37-4.77-5.29s2.14-5.29 4.77-5.29c2.64 0 4.78 2.37 4.78 5.29z"/>
      <path id="path2609" style="fill:#2e3436" d="m353.92 429.35c0 3.53 2.64 6.4 5.87 6.4 3.24 0 5.88-2.87 5.88-6.4s-2.64-6.4-5.88-6.4c-3.23 0-5.87 2.87-5.87 6.4zm2.21 0c0-2.31 1.64-4.19 3.66-4.19 2.03 0 3.67 1.88 3.67 4.19s-1.64 4.19-3.67 4.19c-2.02 0-3.66-1.88-3.66-4.19z"/>
      <path id="path3507_2_" style="fill:#babdb6" d="m376.58 463.6c0 2.93-2.14 5.29-4.77 5.29-2.64 0-4.77-2.36-4.77-5.29 0-2.92 2.13-5.29 4.77-5.29 2.63 0 4.77 2.37 4.77 5.29z"/>
      <path id="path2612" style="fill:#2e3436" d="m365.93 463.6c0 3.53 2.64 6.4 5.88 6.4s5.88-2.87 5.88-6.4c0-3.52-2.64-6.39-5.88-6.39s-5.88 2.87-5.88 6.39zm2.21 0c0-2.31 1.65-4.19 3.67-4.19s3.67 1.88 3.67 4.19-1.65 4.19-3.67 4.19-3.67-1.88-3.67-4.19z"/>
      <path id="path3509_2_" style="fill:#babdb6" d="m403.97 487.08c0 2.92-2.14 5.29-4.77 5.29-2.64 0-4.78-2.37-4.78-5.29 0-2.93 2.14-5.3 4.78-5.3 2.63 0 4.77 2.37 4.77 5.3z"/>
      <path id="path2615" style="fill:#2e3436" d="m393.32 487.08c0 3.52 2.63 6.39 5.87 6.39s5.88-2.87 5.88-6.39c0-3.53-2.64-6.4-5.88-6.4s-5.87 2.87-5.87 6.4zm2.21 0c0-2.31 1.64-4.19 3.66-4.19 2.03 0 3.67 1.88 3.67 4.19s-1.64 4.19-3.67 4.19c-2.02 0-3.66-1.88-3.66-4.19z"/>
      <path id="path3511_2_" style="fill:#eeeeec" d="m401.44 361.21l-1.37 9.15c2.52 5.76 4.4 13.74 4.21 19.56-0.68 21.52 0.92 38.64 2.23 45.24 1.83 9.31 2.77 9.36 3.76 10.2l5.05 5.4s-2.57-3.54-5.27-24.11c-2.69-20.57 1.64-30.07-2.84-50.28-1.65-7.41-3.75-12.15-5.77-15.16z"/>
      <path id="path2618" style="fill:#2e3436" d="m401.05 361.15l-1.39 9.26 0.04 0.11c2.68 6.12 4.36 13.91 4.19 19.39-0.74 23.2 1.13 39.8 2.23 45.33 1.71 8.7 2.66 9.45 3.66 10.24l0.23 0.18 5.02 5.37 0.61-0.51c-0.02-0.03-2.57-3.85-5.19-23.92-1.2-9.14-1-16.07-0.81-22.78 0.23-8.37 0.45-16.29-2.04-27.53-1.46-6.56-3.42-11.71-5.83-15.3l-0.57-0.86-0.15 1.02zm0.62 1.24c2.09 3.46 3.83 8.14 5.15 14.07 1.75 7.92 2.15 14.18 2.15 20.12 0 2.43-0.06 4.81-0.13 7.22-0.07 2.5-0.14 5.03-0.14 7.7 0 4.51 0.2 9.41 0.96 15.2 1.7 13.04 3.36 19.25 4.36 22.09-1.49-1.59-3.46-3.7-3.46-3.7-0.04-0.03-0.28-0.23-0.28-0.23-0.81-0.64-1.72-1.36-3.38-9.77-0.92-4.64-2.39-17.1-2.39-34.74 0-3.3 0.05-6.78 0.17-10.42 0.01-0.26 0.01-0.53 0.01-0.81 0-5.49-1.65-12.9-4.21-18.81 0.03-0.18 0.93-6.21 1.19-7.92z"/>
      <path id="path3518_2_" style="fill:#2e3436" d="m273.51 560.51l-0.26 3.04-15.56-1.4c-2.43-0.22-1.81-3.68 0.26-3.44l15.56 1.8z"/>
      <path id="path2624" style="fill:#2e3436" d="m256.17 559.12c-0.48 0.65-0.59 1.56-0.27 2.27 0.31 0.67 0.93 1.08 1.76 1.15l15.95 1.44 0.33-3.83-15.94-1.84c-0.73-0.08-1.4 0.21-1.83 0.81zm1.56 2.63c-0.54-0.05-0.92-0.29-1.1-0.69-0.08-0.17-0.11-0.36-0.11-0.55 0-0.33 0.1-0.66 0.29-0.92 0.15-0.21 0.5-0.55 1.1-0.48 0 0 14.44 1.66 15.17 1.75-0.04 0.5-0.15 1.74-0.19 2.26-0.76-0.07-15.16-1.37-15.16-1.37z"/>
      <path id="path3528_2_" style="fill:#ffffff" d="m384.63 383.23l-0.13 10.48-20.62-15.69-1.95-11.69 22.7 16.9z"/>
      <path id="path2627" style="fill:#2e3436" d="m361.54 366.4l1.97 11.84 21.37 16.26 0.15-11.47-23.65-17.61 0.16 0.98zm0.95 0.84c1.46 1.09 21.43 15.96 21.74 16.19 0 0.36-0.1 8.16-0.12 9.48-1.18-0.9-19.62-14.93-19.86-15.11-0.05-0.28-1.49-8.95-1.76-10.56z"/>
      <path id="path3530_2_" style="fill:#dcecf3" d="m385.34 415.37l-19.39-14.93 1.29 9.57 19.49 14.81-1.39-9.45z"/>
      <path id="path2630" style="fill:#2e3436" d="m365.56 400.49l1.31 9.74 20.4 15.5-1.55-10.57-20.29-15.63 0.13 0.96zm0.91 0.85c1.41 1.09 18.26 14.06 18.5 14.25 0.04 0.28 1 6.8 1.23 8.32-1.43-1.08-18.34-13.92-18.59-14.11-0.04-0.29-0.93-6.93-1.14-8.46z"/>
      <path id="path3532_2_" style="fill:#babdb6" d="m393.26 445.42l-21.08-12.13 2.16 8.12 26.83 14.77-7.91-10.76z"/>
      <path id="path2633" style="fill:#2e3436" d="m371.8 433.39l2.2 8.28 26.98 14.86 0.51-0.59-7.96-10.83-21.98-12.65 0.25 0.93zm1.01 0.72c1.53 0.88 20.04 11.53 20.18 11.61 0.08 0.12 5.2 7.07 6.79 9.23-2.79-1.53-24.82-13.66-25.1-13.81-0.07-0.28-1.49-5.61-1.87-7.03z"/>
      <path id="path3534_2_" style="fill:#babdb6" d="m413.5 467.82l-28.37-6.06 7.56 7.4 28.28 4.67-7.47-6.01z"/>
      <path id="path2636" style="fill:#2e3436" d="m384.85 462.05l7.65 7.48 29.9 4.94-8.72-7.02-29.81-6.36 0.98 0.96zm1.54 0.39c2.43 0.52 26.76 5.71 26.94 5.75 0.12 0.09 4.56 3.67 6.21 5-2.67-0.44-26.43-4.37-26.66-4.4-0.15-0.15-5.02-4.91-6.49-6.35z"/>
      <path id="path3546_2_" style="fill:#ffffff" d="m397.83 483.74c9.2-8.52 19.96-13.21 38.83-16.79 2.36 0.89 5.66 3.26 4.87 6.21-8.45 3.04-22.7 5.05-40.02 17.06-2.79-1.45-4.23-3.06-3.68-6.48z"/>
      <path id="path2639" style="fill:#2e3436" d="m436.59 466.56c-18.81 3.56-29.76 8.3-39.03 16.89l-0.1 0.09-0.03 0.14c-0.59 3.74 1.13 5.46 3.9 6.89l0.21 0.11 0.2-0.13c13.31-9.23 24.82-12.54 33.23-14.95 2.55-0.74 4.75-1.37 6.69-2.07l0.2-0.07 0.05-0.2c0.92-3.41-2.94-5.86-5.11-6.68l-0.1-0.04-0.11 0.02zm0.03 0.8c2.01 0.79 4.63 2.64 4.63 4.91 0 0.19-0.04 0.39-0.08 0.59-1.87 0.66-3.97 1.27-6.42 1.97-8.41 2.42-19.92 5.73-33.25 14.92-2.1-1.13-3.39-2.34-3.39-4.67 0-0.35 0.04-0.74 0.1-1.14 9.11-8.39 19.91-13.05 38.41-16.58z"/>
      <g id="layer1_3_" transform="translate(71.83 210.51)">
        <path id="path2600_2_" style="fill:url(#linearGradient3327)" d="m318.35 147.12c-9.02-0.46-11.89 6.38-14.26 14.03-4.86 23.71-1.7 47.64 0 71.51 0.46 5.52 5.75 11.73 5.75 11.73l-0.69-9.89c-1.1-24.04-3.82-48.14 0.92-71.97 0.75-3.39 3.91-9.2 5.29-9.2s2.3-5.97 2.99-6.21z"/>
        <path id="path2656" style="fill:#2e3436" d="m303.71 161.03c-4.14 20.18-2.48 40.77-0.87 60.69l0.86 10.97c0.46 5.59 5.62 11.7 5.84 11.96l0.78 0.92-0.77-11.1-0.69-12.9c-1.12-19.39-2.28-39.45 1.6-58.96 0.77-3.48 3.91-8.88 4.9-8.88 1.04 0 1.63-1.66 2.41-4.19 0.25-0.8 0.59-1.9 0.77-2.07l1.26-0.67-1.43-0.07c-9.29-0.48-12.23 6.49-14.66 14.3zm0.78 71.6l-0.85-10.97c-0.86-10.62-1.73-21.43-1.73-32.24 0-9.43 0.66-18.86 2.57-28.19 2.25-7.25 4.98-13.78 13.14-13.73-0.17 0.41-0.36 0.98-0.61 1.8-0.33 1.09-1.12 3.63-1.65 3.63-1.74 0-4.94 6.19-5.68 9.51-2.04 10.28-2.7 20.68-2.7 31.05 0 9.44 0.54 18.86 1.08 28.12l0.69 12.91s0.47 6.65 0.6 8.6c-1.47-1.95-4.52-6.44-4.86-10.49z"/>
      </g>
      <path id="path3540_2_" style="fill:#ffffff" d="m355.48 391.38c12.41-2.3 25.67-3.52 41.51-1.47 1.66 1.89 1.76 6.53-0.32 8.77-8.89-1.27-20.12-1.8-41.05 0.71-1.79-2.59-2.22-5.24-0.14-8.01z"/>
      <path id="path2659" style="fill:#2e3436" d="m355.41 390.99l-0.15 0.02-0.1 0.13c-2.01 2.68-1.97 5.45 0.13 8.48l0.14 0.2 0.23-0.03c21.97-2.64 33.03-1.84 40.96-0.72l0.2 0.03 0.14-0.15c2.25-2.43 2.09-7.3 0.33-9.3l-0.1-0.12-0.15-0.02c-13.71-1.77-26.55-1.32-41.63 1.48zm41.36-0.7c0.69 0.85 1.07 2.26 1.07 3.73 0 1.55-0.43 3.15-1.35 4.23-7.92-1.11-18.98-1.87-40.65 0.72-0.88-1.34-1.36-2.59-1.36-3.8 0-1.17 0.44-2.3 1.25-3.43 14.85-2.74 27.53-3.18 41.04-1.45z"/>
      <path id="path3542_2_" style="fill:#ffffff" d="m359.69 425.5c12.16-3.35 25.27-5.7 41.22-5.02 1.47 1.53 2.32 6.35 0.44 8.76-8.97-0.49-20.21-0.06-40.84 4.24-2.01-2.43-2.66-5.04-0.82-7.98z"/>
      <path id="path2662" style="fill:#2e3436" d="m359.58 425.12l-0.15 0.04-0.08 0.13c-1.77 2.85-1.5 5.61 0.85 8.44l0.15 0.19 0.24-0.05c21.66-4.52 32.75-4.67 40.74-4.23l0.21 0.01 0.12-0.16c2.02-2.59 1.14-7.62-0.46-9.29l-0.11-0.11-0.16-0.01c-13.82-0.59-26.57 0.96-41.35 5.04zm41.13-4.25c0.77 0.89 1.32 2.74 1.32 4.58 0 1.26-0.28 2.49-0.9 3.38-7.98-0.43-19.07-0.23-40.45 4.21-1.11-1.4-1.68-2.75-1.68-4.1 0-1.02 0.33-2.05 0.96-3.1 14.56-4 27.14-5.53 40.75-4.97z"/>
      <path id="path3544_2_" style="fill:#ffffff" d="m371.37 459.04c12.19-5.33 25.55-9.82 42.47-11.79 4.61-0.1 7.63 4.18 6.1 6.87-9.54 0.99-25.31 4.99-46.24 12.65-2.56-2.06-3.98-2.9-2.33-7.73z"/>
      <path id="path2665" style="fill:#2e3436" d="m413.83 446.85c-14.69 1.71-27.82 5.35-42.62 11.82l-0.16 0.07-0.06 0.17c-1.67 4.87-0.24 6.01 2.12 7.89l0.52 0.42 0.21-0.08c19.24-7.04 35.62-11.53 46.14-12.63l0.21-0.02 0.1-0.18c0.68-1.19 0.58-2.76-0.26-4.18-0.97-1.63-3.11-3.34-6.2-3.28zm0.05 0.79c2.23-0.04 4.39 1.1 5.46 2.9 0.4 0.68 0.61 1.37 0.61 2.01 0 0.43-0.13 0.83-0.32 1.2-10.54 1.15-26.8 5.6-45.85 12.57l-0.18-0.14c-1.56-1.25-2.55-2.04-2.55-3.78 0-0.78 0.22-1.78 0.65-3.07 14.65-6.39 27.67-10 42.18-11.69z"/>
      <path id="path4266" style="fill-rule:evenodd;fill:#2e3436" d="m327.18 345.75c-2.97-0.01-6.77 0.04-10.88 0.15-8.21 0.23-17.54 0.69-23.47 1.35-11.83 1.31-33.78 5.97-33.78 5.97l0.59 2.93s22.07-4.63 33.54-5.9c5.72-0.64 15.02-1.12 23.18-1.35 4.09-0.11 7.89-0.16 10.82-0.15 1.46 0 2.71 0.03 3.65 0.06 0.95 0.03 1.69 0.11 1.75 0.13h0.03 0.03c6.78 0.97 14.56 4.48 21.04 6.43h0.06l0.06 0.03c1.15 0.24 2.12 0.25 3-0.09 0.89-0.34 1.5-1.03 1.88-1.66 0.74-1.24 1.01-2.34 1.96-3.37l-2.21-2.03c-1.46 1.57-1.93 3.2-2.32 3.84-0.19 0.32-0.24 0.36-0.37 0.41s-0.53 0.12-1.31-0.03c-0.01-0.01-0.03 0-0.04 0-6.1-1.86-13.85-5.39-21.21-6.47v-0.03c-0.03-0.01-0.07 0-0.1 0-0.56-0.11-1.17-0.13-2.12-0.16-1-0.03-2.3-0.06-3.78-0.06z"/>
      <path id="path4268" style="fill-rule:evenodd;fill:#2e3436" d="m335.93 350.9h2l-0.04-4h-2l0.04 4zm0.06 4.04l0.03 1.5v0.03l0.06 2.47 2-0.07-0.06-2.47-0.03-1.5-2 0.04zm0.19 8v0.21l0.12 3.79 2-0.07-0.12-3.78v-0.22l-2 0.07zm0.28 8v0.21l0.15 3.79 2-0.1-0.15-3.75v-0.03l-0.03-0.19-1.97 0.07zm0.34 8l0.06 1.25v0.03l0.16 2.72 2-0.1-0.16-2.75-0.06-1.25-2 0.1zm0.44 8l0.19 3.06v0.03l0.06 0.91 2-0.13-0.1-0.91v-0.03l-0.15-3.03-2 0.1zm0.53 8l0.28 4 2-0.16-0.28-4-2 0.16zm0.62 8l0.22 2.65v0.03l0.13 1.32 2-0.22-0.13-1.28-0.25-2.69-1.97 0.19zm0.72 7.96l0.44 4 1.97-0.21-0.41-3.97-2 0.18zm0.91 7.97l0.28 2.57 0.22 1.43 1.97-0.28-0.19-1.4v-0.04l-0.31-2.5-1.97 0.22zm1.03 7.97l0.59 3.97 1.97-0.31-0.59-3.97-1.97 0.31zm1.25 7.91l0.31 1.81v0.03l0.41 2.13 1.97-0.38-0.41-2.12-0.31-1.78-1.97 0.31zm1.53 7.9l0.69 3.19v0.03h0.03l0.16 0.72 1.93-0.5-0.15-0.65v-0.04l-0.72-3.18-1.94 0.43zm1.88 7.85l1.06 3.69h0.03v0.03l0.06 0.15 1.88-0.62-0.03-0.13-0.03-0.06-1.04-3.62-1.93 0.56zm2.47 7.72l0.53 1.43h0.03v0.04l0.69 1.62v0.03l0.31 0.63 1.81-0.85-0.28-0.59-0.03-0.03-0.66-1.56v-0.04l-0.56-1.4-1.84 0.72zm3.43 7.37l0.07 0.1v0.03h0.03l0.78 1.22v0.03l0.03 0.03 0.78 1.09 0.03 0.03 0.03 0.03 0.69 0.82 1.53-1.28-0.65-0.75-0.04-0.07-0.75-1-0.03-0.06-0.72-1.12-0.03-0.04-0.03-0.06-1.72 1zm5.25 6.35l1 1 1.88 1.78 1.37-1.44-1.84-1.75-0.03-0.03-0.97-0.97-1.41 1.41zm5.91 5.5l1.22 1.06h0.03l1.81 1.53 1.28-1.53-1.81-1.53-1.22-1.07-1.31 1.54zm6.22 5.09l1.72 1.34 0.03 0.03 1.44 1.07 1.21-1.6-1.46-1.09v0.03l-1.69-1.34-1.25 1.56zm6.44 4.84l3.25 2.32 1.15-1.66-3.25-2.28-1.15 1.62zm6.59 4.6l2.66 1.78 0.68 0.44 1.07-1.69-0.66-0.44v0.03l-2.66-1.81-1.09 1.69zm6.69 4.37l0.47 0.31 2.93 1.85 1.07-1.72-2.91-1.81h-0.03l-0.44-0.28-1.09 1.65zm6.81 4.25l1.94 1.16h0.03l1.5 0.87 1-1.72-1.5-0.87-1.91-1.16-1.06 1.72zm6.94 4.06l1.78 1.04 1.69 0.93 1-1.75-1.69-0.9-0.03-0.03-1.75-1.04-1 1.75zm7 3.91l1 0.56 2.53 1.35 0.94-1.78-2.54-1.35-1-0.53-0.93 1.75zm7.06 3.78l2.97 1.6 0.94-1.79-2.97-1.59-0.94 1.78z"/>
      <path id="path3516_2_" style="fill:#ffffff" d="m351.81 359.95c2.9 0.24 3.25 3.63 3.54 6.16 1.41 12.17-3.45 28.98-13.5 42.7-9.52 13-12.08 23.88-9.66 34.57 3.02 13.36 10.03 23.53 11.86 34.38 1.84 10.89-0.44 27.15-2.32 33.54-1.94 6.62-10.11 60.87-38.8 58.48-23.75-2-27.17-5.02-27.17-5.02l-2.62-1.21 0.16-3.05s6.87-1.24 8.98-0.38 19.07 4.43 22.52 4.26c4.25-0.2 7.36-0.45 12.6-5.84s9.97-15.61 9.97-15.61c6.82-21.87 13.25-39.24 10.11-66.82-2.86-15.15-18.12-29.3-10.36-54.2 4.44-12.26 14.52-23.19 18.86-35.47 2.38-6.75 3.39-11.65 2.61-17.9-0.2-1.59-0.76-2-0.55-5.61 0.13-2.14 1.83-3.14 3.77-2.98z"/>
      <path id="path2621" style="fill:#2e3436" d="m348.79 360.43c-0.69 0.6-1.09 1.46-1.15 2.48-0.15 2.6 0.1 3.61 0.32 4.51l0.23 1.17c0.8 6.42-0.34 11.36-2.59 17.72-2.17 6.16-5.87 12.09-9.45 17.83-3.54 5.67-7.19 11.52-9.41 17.63-5.36 17.22 0.19 29.38 5.09 40.12 2.24 4.92 4.37 9.57 5.26 14.29 2.89 25.44-2.44 42.32-8.61 61.87l-1.5 4.76c-0.02 0.06-4.73 10.18-9.86 15.45-5.23 5.38-8.37 5.53-12.34 5.73-3.49 0.17-20.42-3.45-22.35-4.24-2.19-0.89-8.92 0.31-9.2 0.36l-0.31 0.06-0.19 3.63s2.74 1.27 2.82 1.31c0.5 0.38 4.89 3.18 27.35 5.07 25.75 2.15 35.19-40.72 38.29-54.81l0.93-3.96c1.72-5.86 4.26-22.3 2.33-33.71-0.94-5.54-3.2-10.88-5.6-16.54-2.35-5.56-4.79-11.3-6.27-17.87-2.5-11.02 0.55-21.9 9.59-34.24 9.73-13.29 15.06-30.16 13.58-42.98l-0.02-0.12c-0.3-2.59-0.7-6.14-3.89-6.4-1.2-0.09-2.28 0.22-3.05 0.88zm-43.97 204.35c4.15-0.2 7.42-0.36 12.87-5.96 5.22-5.37 9.99-15.62 10.04-15.72 0.02-0.05 1.51-4.81 1.51-4.81 6.2-19.63 11.55-36.59 8.64-62.23-0.92-4.85-3.06-9.54-5.33-14.5-4.83-10.61-10.32-22.62-5.05-39.53 2.18-6.02 5.81-11.84 9.32-17.47 3.61-5.77 7.33-11.75 9.53-17.98 2.29-6.47 3.45-11.51 2.63-18.09l-0.25-1.26c-0.21-0.88-0.44-1.79-0.29-4.27 0.05-0.82 0.34-1.46 0.87-1.92 0.6-0.53 1.48-0.77 2.47-0.69 2.53 0.2 2.88 3.25 3.16 5.69l0.02 0.12c0.16 1.4 0.24 2.85 0.24 4.34 0 11.94-5.12 26.4-13.67 38.08-7.13 9.73-10.59 18.59-10.59 27.33 0 2.52 0.29 5.04 0.86 7.56 1.5 6.63 3.95 12.41 6.32 18 2.37 5.61 4.62 10.92 5.54 16.36 0.48 2.87 0.68 6.05 0.68 9.31 0 9.56-1.72 19.71-2.99 24.04l-0.94 4.02c-3.06 13.92-12.39 56.27-37.44 54.19-23.11-1.95-26.92-4.9-26.96-4.93l-0.04-0.03-0.05-0.03s-1.97-0.91-2.37-1.1c0.02-0.39 0.11-1.99 0.13-2.46 2.06-0.35 6.88-0.99 8.45-0.35 2.16 0.88 19.1 4.47 22.69 4.29z"/>
      <path id="path4270" style="fill-rule:evenodd;fill:#2e3436" d="m233.24 455.06l0.34 0.09 1.13 0.38 0.03 0.03 1.69 0.69v0.03h0.06l0.03 0.03 0.81-1.66-0.09-0.03-0.03-0.03h-0.03l-1.79-0.75h-0.03l-1.15-0.4-0.03-0.04-0.41-0.12-0.53 1.78zm6.5 2.88l0.28 0.15 0.03 0.03 1.34 0.82h0.04l1.37 0.9 1-1.53-1.41-0.91v-0.03h-0.03l-1.4-0.84-0.03-0.03-0.29-0.16-0.9 1.6zm5.97 4.03l0.31 0.22 0.03 0.03 1.63 1.34 0.03 0.03 0.75 0.69 1.25-1.38-0.82-0.71h-0.03l-1.65-1.41h-0.03v-0.03l-0.35-0.25-1.12 1.47zm5.34 4.78l1.69 1.84 0.03 0.03 0.69 0.85 1.4-1.19-0.72-0.88-0.03-0.03-1.72-1.84-1.34 1.22zm4.69 5.56l0.34 0.47 0.03 0.03 1.6 2.34 0.03 0.04 0.03 0.06 1.56-0.97-0.06-0.09v-0.04l-1.66-2.4-0.03-0.03v-0.03l-0.4-0.5-1.44 1.12zm3.9 6.03l1.19 2.13 0.03 0.03 0.5 1.03 1.66-0.81-0.53-1.07v-0.03h-0.03l-1.19-2.18-1.63 0.9zm3.25 6.47l0.79 1.81v0.03l0.59 1.54 1.72-0.66-0.6-1.56v-0.03h-0.03l-0.78-1.85-1.69 0.72zm2.57 6.78l0.65 2.03v0.07l0.38 1.37 1.78-0.47-0.38-1.44v-0.03h-0.03l-0.65-2.09-1.75 0.56zm1.93 7l0.69 3h-0.03l0.13 0.53 1.78-0.31-0.1-0.53v-0.03l-0.68-3.06-1.79 0.4zm1.38 7.13l0.06 0.25 0.31 2.25v0.03l0.13 1.06 1.81-0.19-0.12-1.12-0.32-2.31-0.06-0.25-1.81 0.28zm0.87 7.25l0.19 2.47 0.06 1.15 1.85-0.12-0.06-1.16-0.19-2.5v-0.03l-1.85 0.19zm0.41 7.25v0.37l1.84-0.06v-0.38l-1.84 0.07z"/>
      <path id="path4293" style="fill:#ffffff" d="m303.98 661.1c0 15.3-9.7 27.71-21.67 27.71s-21.68-12.41-21.67-27.71c-0.01-15.29 9.7-27.7 21.67-27.7s21.67 12.41 21.67 27.7z" transform="matrix(1.003 0 0 .87191 -4.7828 -148.61)"/>
      <path id="path4272" style="fill:#2e3436" d="m277.34 402.92l-1.1 0.08h-0.06l-1.1 0.16h-0.06l-1.07 0.22-0.06 0.03h-0.09l-0.66 0.54 0.09 0.79 0.79 0.38 0.34-0.02h0.03l0.06-0.03 0.94-0.19h0.07l0.97-0.16v0.02l1.03-0.11h0.07 0.28l0.81-0.38 0.13-0.76-0.66-0.55-0.34-0.05h-0.35l-0.06 0.03zm3.48 0.43l-0.28 0.74 0.5 0.65 0.31 0.08 0.28 0.06h0.06l0.95 0.19 0.06 0.03 0.94 0.21 0.06 0.03 0.91 0.27v0.03h0.06l0.07 0.03 0.87-0.06 0.5-0.65-0.31-0.74-0.28-0.16-0.1-0.03-0.06-0.02-1.03-0.33h-0.07l-1.03-0.27-0.06-0.03-1.07-0.22h-0.06l-0.35-0.05-0.87 0.24zm-10.69 1.28l-0.47 0.22-0.06 0.03-0.98 0.49-0.03 0.03-0.94 0.54-0.06 0.03-0.75 0.49-0.44 0.68 0.41 0.71 0.87 0.13 0.32-0.13 0.75-0.46 0.03-0.03 0.85-0.49 0.06-0.03 0.85-0.41 0.06-0.03 0.44-0.19 0.53-0.62-0.25-0.77-0.85-0.27-0.34 0.08zm17.33 1.5l0.16 0.76 0.25 0.22 0.44 0.25 0.06 0.03 0.82 0.51 0.03 0.03 0.81 0.57 0.03 0.03 0.63 0.52 0.88 0.22 0.72-0.5-0.03-0.76-0.22-0.24-0.66-0.55-0.03-0.03-0.88-0.62-0.06-0.03-0.91-0.57-0.03-0.03-0.47-0.27-0.91-0.11-0.63 0.57zm-23.29 2.45l-0.28 0.17-0.69 0.68-0.03 0.03-0.75 0.81-0.03 0.03-0.72 0.85-0.04 0.02-0.18 0.22-0.1 0.79 0.63 0.55 0.91-0.14 0.22-0.22 0.15-0.19 0.04-0.03 0.65-0.79 0.04-0.02 0.69-0.74 0.03-0.03 0.69-0.65 0.22-0.74-0.54-0.62-0.91 0.02zm28.9 1.72l-0.12 0.79 0.15 0.25 0.04 0.02 0.68 0.79v0.03l0.66 0.82v0.03l0.6 0.84 0.03 0.03 0.03 0.02 0.72 0.44 0.88-0.24 0.25-0.74-0.09-0.3-0.07-0.05v-0.03l-0.65-0.93-0.04-0.03-0.65-0.87-0.04-0.02-0.72-0.85-0.03-0.03-0.03-0.02-0.81-0.33-0.79 0.38zm-33.38 3.73l-0.22 0.25-0.41 0.71v0.02l-0.53 1.01-0.03 0.03-0.47 1.04v0.05l-0.13 0.24 0.13 0.77 0.78 0.38 0.82-0.3 0.19-0.27 0.09-0.22v-0.03l0.44-0.98 0.03-0.03 0.47-0.95 0.03-0.03 0.38-0.65v-0.79l-0.72-0.46-0.85 0.21zm37.36 1.69l-0.37 0.71 0.06 0.3 0.47 0.98v0.03l0.41 1.01 0.37 1.01 0.6 0.54 0.91-0.08 0.44-0.68-0.03-0.3-0.38-1.01v-0.03l-0.44-1.06v-0.05l-0.47-0.99-0.69-0.51-0.88 0.13zm-40.12 4.58l-0.12 0.3-0.28 1.06v0.03l-0.25 1.17v0.03l-0.16 0.98 0.28 0.74 0.85 0.24 0.75-0.44 0.09-0.29 0.16-0.93v-0.06l0.25-1.11h-0.03l0.28-1.04-0.22-0.76-0.81-0.3-0.79 0.38zm41.85 2.21v0.32l0.06 0.3 0.22 1.18h-0.03l0.15 1.17v0.02l0.04 0.47 0.43 0.65 0.91 0.11 0.6-0.57 0.06-0.3-0.03-0.49v-0.03l-0.16-1.22v-0.03l-0.18-1.2v-0.03l-0.1-0.35-0.53-0.63h-0.91l-0.53 0.63zm-42.88 4.41l-0.06 0.3-0.04 0.66v0.02l0.04 1.26v0.02l0.09 1.23v0.03l0.03 0.16 0.47 0.65 0.91 0.06 0.56-0.6 0.04-0.3v-0.11-0.03l-0.1-1.17v-0.03l-0.03-1.17v-0.02l0.03-0.63-0.37-0.68-0.91-0.17-0.66 0.52zm43.44 0.66l-0.06 0.3-0.03 1.19v0.03l-0.07 1.17v0.03l-0.09 0.76 0.31 0.71 0.88 0.22 0.72-0.46 0.1-0.3 0.09-0.79v-0.03l0.06-1.23v-0.02l0.03-1.26-0.37-0.71-0.88-0.16-0.69 0.55zm-42.85 5.99v0.33l0.04 0.16v0.05l0.28 1.15 0.03 0.03 0.34 1.11v0.03l0.25 0.71 0.63 0.57 0.88-0.11 0.44-0.65-0.03-0.33-0.25-0.65v-0.06l-0.32-1.03v-0.03l-0.31-1.09h0.03l-0.03-0.19-0.57-0.63h-0.87l-0.54 0.63zm42.16 0.33l-0.12 0.27-0.19 0.68v0.03l-0.32 1.03-0.03 0.06-0.34 1.01-0.03 0.05-0.07 0.19 0.1 0.76 0.78 0.39 0.82-0.3 0.19-0.28 0.09-0.21v-0.03l0.41-1.12v-0.03l0.34-1.11v-0.03l0.19-0.71-0.22-0.76-0.81-0.3-0.79 0.41zm-39.59 5.36l-0.34 0.74 0.09 0.3 0.25 0.46v0.03l0.57 0.98 0.03 0.03 0.6 0.95 0.03 0.03 0.34 0.49 0.75 0.41 0.85-0.27 0.25-0.77-0.16-0.3-0.31-0.43-0.03-0.03-0.56-0.9v-0.03l-0.54-0.9-0.03-0.05-0.22-0.44-0.69-0.49-0.88 0.19zm37.33 0.63l-0.21 0.25-0.47 0.81-0.04 0.03-0.56 0.9-0.03 0.03-0.6 0.84v0.03l-0.09 0.08-0.1 0.79 0.63 0.55 0.91-0.14 0.22-0.22 0.09-0.11 0.04-0.02 0.65-0.93v-0.03l0.63-0.95v-0.03l0.5-0.87v-0.76l-0.72-0.49-0.85 0.24zm-33.56 5.07l-0.1 0.79 0.16 0.27 0.28 0.27 0.03 0.06 0.79 0.73 0.03 0.06 0.81 0.71 0.06 0.02 0.73 0.58 0.84 0.21 0.72-0.49v-0.76l-0.22-0.24-0.69-0.55-0.03-0.03-0.75-0.65-0.03-0.05-0.75-0.69-0.03-0.02-0.22-0.28-0.85-0.32-0.78 0.38zm29.68 0.22l-0.28 0.19-0.57 0.52-0.03 0.05-0.75 0.65-0.03 0.03-0.79 0.6-0.03 0.03-0.41 0.3-0.34 0.71 0.44 0.68 0.88 0.11 0.31-0.17 0.44-0.3 0.03-0.02 0.85-0.69 0.03-0.02 0.84-0.71 0.04-0.06 0.56-0.54 0.25-0.76-0.56-0.63-0.88 0.03zm-24.2 4.33l0.22 0.76 0.25 0.22 0.82 0.38 0.06 0.03 0.97 0.43 0.06 0.03 1.01 0.38 0.06 0.03 0.56 0.16 0.91-0.08 0.44-0.68-0.34-0.71-0.32-0.16-0.53-0.16-0.03-0.03-0.91-0.33-0.06-0.03-0.88-0.38-0.06-0.02-0.76-0.39-0.87-0.02-0.6 0.57zm18.37-0.22l-0.13 0.06-0.03 0.02-0.91 0.38-0.03 0.03-0.91 0.33-0.06 0.03-0.97 0.3-0.19 0.05-0.66 0.55 0.1 0.76 0.78 0.41 0.34-0.03 0.25-0.08h0.07l1.03-0.33 0.06-0.03 1.01-0.38 0.06-0.03 0.97-0.43 0.06-0.03 0.16-0.08 0.5-0.63-0.31-0.73-0.88-0.25-0.31 0.11zm-10.25 1.77l-0.82 0.22-0.28 0.74 0.5 0.65 0.32 0.08h0.03l0.06 0.03 1.1 0.08h0.06l1.13 0.03h0.06l1.13-0.03h0.06l0.38-0.03 0.75-0.41 0.1-0.79-0.69-0.51-0.35-0.03-0.34 0.03h-0.07l-0.97 0.02h-0.03-0.03l-1-0.02h-0.07l-0.97-0.08h-0.06v0.02z"/>
    </g>
  </g>
  <metadata id="metadata88">
    <rdf:RDF>
      <cc:Work>
        <dc:format>image/svg+xml</dc:format>
        <dc:type rdf:resource="http://purl.org/dc/dcmitype/StillImage"/>
        <cc:license rdf:resource="http://creativecommons.org/licenses/publicdomain/"/>
        <dc:publisher>
          <cc:Agent rdf:about="http://openclipart.org/">
            <dc:title>Openclipart</dc:title>
          </cc:Agent>
        </dc:publisher>
        <dc:title>blue boot</dc:title>
        <dc:date>2009-06-18T11:16:58</dc:date>
        <dc:description>A draw of a boot</dc:description>
        <dc:source>https://openclipart.org/detail/26707/blue-boot-by-badaman</dc:source>
        <dc:creator>
          <cc:Agent>
            <dc:title>badaman</dc:title>
          </cc:Agent>
        </dc:creator>
        <dc:subject>
          <rdf:Bag>
            <rdf:li>azul</rdf:li>
            <rdf:li>blue</rdf:li>
            <rdf:li>boot</rdf:li>
            <rdf:li>bota</rdf:li>
            <rdf:li>deporte</rdf:li>
            <rdf:li>inkscape</rdf:li>
            <rdf:li>line art</rdf:li>
            <rdf:li>monochrome</rdf:li>
            <rdf:li>sport</rdf:li>
            <rdf:li>vectorial</rdf:li>
          </rdf:Bag>
        </dc:subject>
      </cc:Work>
      <cc:License rdf:about="http://creativecommons.org/licenses/publicdomain/">
        <cc:permits rdf:resource="http://creativecommons.org/ns#Reproduction"/>
        <cc:permits rdf:resource="http://creativecommons.org/ns#Distribution"/>
        <cc:permits rdf:resource="http://creativecommons.org/ns#DerivativeWorks"/>
      </cc:License>
    </rdf:RDF>
  </metadata>
</svg>
