<svg width="673" height="739" viewBox="0 0 673 739" xmlns="http://www.w3.org/2000/svg">
  <g fill-rule="nonzero" fill="none">
    <path d="M467 149.805c-46.62-7.44-99.71-11.41-155-11.41-50.6 0-99.35 3.32-142.98 9.58.01-.67.02-1.34.05-2.01C171.475 65.082 237.996.903 318.914 1.398c80.917.494 146.649 65.48 148.066 146.387.01.68.02 1.35.02 2.02Z" fill="#0BA5E9"/>
    <path d="M337.55 1.342a149.047 149.047 0 0 0-168.93 143.229c-.031.67-.04 1.34-.05 2.01 12.961-1.86 26.384-3.454 40.164-4.784 3.478-71.745 57.64-130.8 128.816-140.455Z" opacity=".1" fill="#FFF"/>
    <path d="M532.18 161.625a600.121 600.121 0 0 0-65.2-13.84 943.364 943.364 0 0 0-108.74-10.45 1133.608 1133.608 0 0 0-83.01-.34 973.29 973.29 0 0 0-106.16 8.97 624.292 624.292 0 0 0-77.25 15.66C32.61 177.995 0 199.935 0 223.395s32.61 45.4 91.82 61.77c41.64 11.52 92.98 19.37 148.92 22.97 23.09 1.5 46.96 2.26 71.26 2.26 24.38 0 48.33-.77 71.49-2.27 50.91-3.29 98.01-10.1 137.43-20 .21-.06.41-.11.62-.16 2.66-.66 5.28-1.35 7.87-2.04.93-.26 1.85-.51 2.77-.76a.978.978 0 0 1 .16-.05c.88-.24 1.75-.49 2.62-.73 1.74-.5 3.46-.99 5.15-1.5.08-.02.15-.04.22-.06 1.47-.44 2.91-.88 4.34-1.32 1.17-.37 2.33-.73 3.48-1.1.84-.27 1.67-.54 2.49-.81.6-.2 1.19-.39 1.77-.59.79-.26 1.58-.53 2.36-.8.33-.11.66-.22.98-.34.75-.25 1.48-.51 2.21-.77.79-.28 1.58-.57 2.36-.85.65-.23 1.3-.47 1.94-.71.54-.21 1.07-.41 1.61-.61 1.47-.55 2.91-1.12 4.33-1.68.71-.29 1.42-.57 2.12-.86.69-.28 1.39-.57 2.07-.86 1.12-.47 2.22-.94 3.3-1.41.52-.24 1.05-.47 1.56-.69.39-.18.77-.35 1.16-.53.28-.12.56-.25.83-.38 1.01-.46 2.01-.93 2.99-1.4 3.76-1.8 7.27-3.64 10.53-5.52 20.45-11.71 31.24-24.7 31.24-38.2 0-23.46-32.61-45.4-91.82-61.77Zm-.54 121.62c-41.69 11.53-93.17 19.38-149.26 22.95-22.81 1.45-46.39 2.2-70.38 2.2-23.91 0-47.41-.74-70.15-2.19-56.18-3.56-107.74-11.41-149.49-22.96C34.09 267.125 2 245.875 2 223.395c0-1.986.252-3.965.74-5.89 5.1-20.28 36.47-39.26 89.62-53.96a623.806 623.806 0 0 1 76.66-15.57 976.027 976.027 0 0 1 106.8-9c11.92-.39 23.98-.583 36.18-.58 15.41 0 30.65.31 45.63.91a941.367 941.367 0 0 1 109.37 10.5 598.858 598.858 0 0 1 64.64 13.74c53.14 14.7 84.5 33.67 89.61 53.94.496 1.93.75 3.916.75 5.91 0 22.48-32.09 43.73-90.36 59.85Z" fill="#3F3D56"/>
    <path d="M623.43 224.305c0 13.36-11.01 26-30.67 37.29-3.27 1.88-6.79 3.72-10.53 5.52-.98.47-1.98.94-2.99 1.4-.27.13-.55.26-.83.38-.39.18-.77.35-1.16.53-.51.22-1.04.45-1.56.69-1.08.47-2.18.94-3.3 1.41-.68.29-1.38.58-2.07.86-.7.29-1.41.57-2.12.86-1.42.56-2.86 1.13-4.33 1.68-.54.2-1.07.4-1.61.61-.64.24-1.29.48-1.94.71-.78.28-1.57.57-2.36.85-.73.26-1.46.52-2.21.77-.32.12-.65.23-.98.34-.78.27-1.57.54-2.36.8-.58.2-1.17.39-1.77.59-.82.27-1.65.54-2.49.81-1.15.37-2.31.73-3.48 1.1-1.43.44-2.87.88-4.34 1.32-.07.02-.14.04-.22.06-1.69.51-3.41 1-5.15 1.5-.87.24-1.74.49-2.62.73a.978.978 0 0 0-.16.05c-.92.25-1.84.5-2.77.76-2.58.68-5.21 1.37-7.87 2.04-.21.05-.41.1-.62.16-38.35 9.58-85.4 16.56-137.47 19.93-22.81 1.47-46.59 2.25-71.02 2.25-24.65 0-48.63-.79-71.62-2.29-137.24-8.95-239.38-43.03-239.38-83.71.01-2.475.388-4.936 1.12-7.3.06.17.12.33.19.5 14.27 37.48 115.54 67.77 246.94 75.16 20.13 1.14 40.98 1.73 62.32 1.73 21.43 0 42.36-.6 62.57-1.74 131.29-7.42 232.46-37.72 246.68-75.17.24-.6.45-1.2.63-1.8a25.304 25.304 0 0 1 1.55 8.62ZM91.67 213.54c-16.643 0-34.331-3.58-34.331-10.216 0-6.636 17.688-10.217 34.33-10.217 16.643 0 34.331 3.58 34.331 10.217 0 6.636-17.688 10.217-34.33 10.217Zm0-18.433c-19.054 0-32.331 4.33-32.331 8.217 0 3.886 13.277 8.217 32.33 8.217 19.053 0 32.331-4.33 32.331-8.217 0-3.886-13.278-8.217-32.33-8.217Z" fill="#3F3D56"/>
    <path d="M162.67 260.54c-16.643 0-34.331-3.58-34.331-10.216 0-6.636 17.688-10.217 34.33-10.217 16.643 0 34.331 3.58 34.331 10.217 0 6.636-17.688 10.217-34.33 10.217Zm0-18.433c-19.054 0-32.331 4.33-32.331 8.217 0 3.886 13.277 8.217 32.33 8.217 19.053 0 32.331-4.33 32.331-8.217 0-3.886-13.278-8.217-32.33-8.217ZM531.67 213.54c-16.643 0-34.331-3.58-34.331-10.216 0-6.636 17.688-10.217 34.33-10.217 16.643 0 34.331 3.58 34.331 10.217 0 6.636-17.688 10.217-34.33 10.217Zm0-18.433c-19.054 0-32.331 4.33-32.331 8.217 0 3.886 13.277 8.217 32.33 8.217 19.053 0 32.331-4.33 32.331-8.217 0-3.886-13.278-8.217-32.33-8.217ZM460.67 260.54c-16.643 0-34.331-3.58-34.331-10.216 0-6.636 17.688-10.217 34.33-10.217 16.643 0 34.331 3.58 34.331 10.217 0 6.636-17.688 10.217-34.33 10.217Zm0-18.433c-19.054 0-32.331 4.33-32.331 8.217 0 3.886 13.277 8.217 32.33 8.217 19.053 0 32.331-4.33 32.331-8.217 0-3.886-13.278-8.217-32.33-8.217ZM311.67 282.54c-16.643 0-34.331-3.58-34.331-10.216 0-6.636 17.688-10.217 34.33-10.217 16.643 0 34.331 3.58 34.331 10.217 0 6.636-17.688 10.217-34.33 10.217Zm0-18.433c-19.054 0-32.331 4.33-32.331 8.217 0 3.886 13.277 8.217 32.33 8.217 19.053 0 32.331-4.33 32.331-8.217 0-3.886-13.278-8.217-32.33-8.217Z" fill="#3F3D56"/>
    <circle fill="#2F2E41" cx="336.978" cy="450.705" r="42.012"/>
    <path fill="#2F2E41" d="m300.555 488.547 20.447-10.24 5.715 11.413-20.447 10.24z"/>
    <ellipse fill="#2F2E41" transform="rotate(-56.601 300.086 492.946)" cx="300.086" cy="492.946" rx="3.989" ry="10.636"/>
    <path fill="#2F2E41" d="m347.239 489.72 5.715-11.412 20.447 10.24-5.715 11.412z"/>
    <ellipse fill="#2F2E41" transform="rotate(-33.399 373.87 492.946)" cx="373.87" cy="492.946" rx="10.636" ry="3.989"/>
    <circle fill="#FFF" cx="334.037" cy="440.429" r="14.359"/>
    <ellipse fill="#3F3D56" transform="rotate(-45 334.135 434.282)" cx="334.135" cy="434.282" rx="4.766" ry="4.8"/>
    <path d="M370.12 405c.632-15.553-12.773-28.727-29.941-29.425-17.168-.697-31.597 11.346-32.229 26.9-.632 15.553 11.302 19.087 28.47 19.785 17.167.697 33.068-1.706 33.7-17.26Z" fill="#0BA5E9"/>
    <ellipse fill="#2F2E41" transform="rotate(-40.645 380.654 456.766)" cx="380.654" cy="456.766" rx="6.594" ry="21.006"/>
    <ellipse fill="#2F2E41" transform="rotate(-49.355 293.42 456.766)" cx="293.419" cy="456.766" rx="21.006" ry="6.594"/>
    <path d="M348.517 467.262a9.572 9.572 0 1 1-18.836 3.428l-.003-.018c-.942-5.202 3.08-7.043 8.282-7.985 5.203-.942 9.615-.628 10.557 4.575Z" fill="#FFF"/>
    <path d="M266 495.395a2 2 0 0 1-2-2v-118a2 2 0 0 1 4 0v118a2 2 0 0 1-2 2ZM236 601.395a2 2 0 0 1-2-2v-86a2 2 0 0 1 4 0v86a2 2 0 0 1-2 2ZM313 530.395a2 2 0 0 1-2-2v-118a2 2 0 0 1 4 0v118a2 2 0 0 1-2 2ZM284 615.395a2 2 0 0 1-2-2v-48a2 2 0 0 1 4 0v48a2 2 0 0 1-2 2ZM325 369.395a2 2 0 0 1-2-2v-48a2 2 0 0 1 4 0v48a2 2 0 0 1-2 2ZM225 390.395a2 2 0 0 1-2-2v-48a2 2 0 0 1 4 0v48a2 2 0 0 1-2 2ZM399 395.395a2 2 0 0 1-2-2v-48a2 2 0 0 1 4 0v48a2 2 0 0 1-2 2ZM395 545.395a2 2 0 0 1-2-2v-58a2 2 0 0 1 4 0v58a2 2 0 0 1-2 2ZM355 596.395a2 2 0 0 1-2-2v-86a2 2 0 0 1 4 0v86a2 2 0 0 1-2 2ZM363 449.395a2 2 0 0 1-2-2v-118a2 2 0 0 1 4 0v118a2 2 0 0 1-2 2Z" fill="#CCC"/>
    <ellipse fill="#2F2E41" transform="rotate(-39.938 594.37 683.981)" cx="594.369" cy="683.981" rx="6.76" ry="21.534"/>
    <circle fill="#2F2E41" transform="rotate(-71.565 548.562 676.503)" cx="548.562" cy="676.503" r="43.067"/>
    <path fill="#2F2E41" d="M553.707 710.303h13.084v23.442h-13.084zM527.54 710.303h13.084v23.442H527.54z"/>
    <ellipse fill="#2F2E41" cx="555.888" cy="734.017" rx="10.903" ry="4.089"/>
    <ellipse fill="#2F2E41" cx="529.72" cy="733.472" rx="10.903" ry="4.089"/>
    <path d="M535.04 622.366c3.845-15.487 20.82-24.6 37.914-20.356 17.094 4.245 27.834 20.24 23.989 35.727-3.846 15.487-16.604 15.537-33.698 11.293-17.094-4.245-32.051-11.177-28.206-26.664Z" fill="#0BA5E9"/>
    <ellipse fill="#2F2E41" transform="rotate(-64.626 500.054 656.52)" cx="500.054" cy="656.52" rx="6.76" ry="21.534"/>
    <circle fill="#FFF" cx="542.124" cy="667.416" r="14.359"/>
    <circle fill="#3F3D56" cx="536.222" cy="662.269" r="4.786"/>
    <circle fill="#FFF" cx="542" cy="697.395" r="6"/>
    <path d="M671.531 738.395h-236a1 1 0 1 1 0-2h236a1 1 0 0 1 0 2Z" fill="#3F3D56"/>
  </g>
</svg>