<?xml version="1.0" encoding="UTF-8"?>
<svg width="879px" height="553px" viewBox="0 0 879 553" version="1.1" xmlns="http://www.w3.org/2000/svg" xmlns:xlink="http://www.w3.org/1999/xlink">
    <!-- Generator: Sketch 53.2 (72643) - https://sketchapp.com -->
    <title>undraw-content-team</title>
    <desc>Created with Sketch.</desc>
    <g id="Page-1" stroke="none" stroke-width="1" fill="none" fill-rule="evenodd">
        <g id="undraw-content-team" transform="translate(-3.000000, 0.000000)">
            <rect id="Rectangle" fill-opacity="0.25" fill="#fff" x="180" y="16" width="579" height="343" rx="20"></rect>
            <path d="M840.86295,552.21468 L98.22937,552.21468 C84.4769827,552.21468 73.32847,541.066167 73.32847,527.31378 L73.32847,527.31378 C342.533003,496.02706 606.678133,496.02706 865.76386,527.31378 L865.76386,527.31378 C865.763854,541.066169 854.615339,552.21468 840.86295,552.21468 Z" id="Path" fill="#CCCCCC" fill-rule="nonzero"></path>
            <path d="M865.76386,528.77851 L73.32847,527.31375 L165.16896,372.78153 L165.60837,372.04915 L165.60837,31.47769 C165.607672,23.1290737 168.923838,15.1221947 174.827202,9.21883153 C180.730565,3.31546831 188.737444,-0.00069762467 197.08606,2.84217094e-14 L737.61198,2.84217094e-14 C745.960596,-0.00069762467 753.967475,3.31546831 759.870838,9.21883153 C765.774202,15.1221947 769.090368,23.1290737 769.08967,31.47769 L769.08967,374.39269 L865.76386,528.77851 Z M196.36834,21.97141 C190.70822,21.9777587 186.121369,26.5646095 186.11502,32.22473 L186.11502,342.75394 C186.121622,348.413956 190.708324,353.000658 196.36834,353.00726 L742.72398,353.00726 C748.383893,353.000411 752.970451,348.413853 752.9773,342.75394 L752.9773,32.22473 C752.970704,26.5647122 748.383998,21.9780061 742.72398,21.97141 L196.36834,21.97141 Z" id="Combined-Shape" fill="#E6E6E6" fill-rule="nonzero"></path>
            <path d="M199.95903,394.02055 C198.24391,394.023463 196.686317,395.021305 195.9667,396.57816 L167.66779,458.0981 C167.041726,459.458563 167.151668,461.044211 167.959498,462.305253 C168.767328,463.566295 170.161797,464.32907 171.6594,464.3291 L766.77054,464.3291 C768.293506,464.329083 769.707849,463.540407 770.508355,462.244793 C771.308862,460.949179 771.381351,459.331427 770.69993,457.96941 L739.93993,396.44947 C739.199697,394.957483 737.676056,394.015676 736.01054,394.0206 L199.95903,394.02055 Z" id="Path" fill="#CCCCCC" fill-rule="nonzero"></path>
            <circle id="Oval" fill="#FFFFFF" fill-rule="nonzero" cx="467.34902" cy="10.25332" r="6.59142"></circle>
            <path d="M408.85444,476.04714 C406.86865,476.049642 405.130517,477.381666 404.61179,479.29851 L397.51328,505.66419 C397.15753,506.984241 397.436508,508.39467 398.26801,509.479887 C399.099513,510.565104 400.388783,511.201438 401.75593,511.20139 L536.75349,511.20139 C538.174875,511.201399 539.508438,510.513737 540.332692,509.355747 C541.156947,508.197757 541.370032,506.712543 540.9046,505.36952 L531.77845,479.00384 C531.165175,477.234516 529.498505,476.04781 527.62591,476.04714 L408.85444,476.04714 Z" id="Path" fill="#CCCCCC" fill-rule="nonzero"></path>
            <polygon id="Path" fill="#CCCCCC" fill-rule="nonzero" points="769.09 366.922 769.09 372.782 165.169 372.782 165.623 372.049 165.623 366.922"></polygon>
            <path d="M694.54732,380.34397 C694.063752,380.344578 693.640491,380.668942 693.51417,381.13572 L691.78557,387.55617 C691.698952,387.877623 691.766894,388.221078 691.969377,388.485341 C692.17186,388.749605 692.485812,388.904563 692.81873,388.90456 L725.69267,388.90456 C726.038798,388.904561 726.36354,388.737104 726.564256,388.455115 C726.764973,388.173127 726.816861,387.811455 726.70352,387.48441 L724.48117,381.06397 C724.331826,380.633113 723.925966,380.344133 723.46996,380.34397 L694.54732,380.34397 Z" id="Path" fill="#CCCCCC" fill-rule="nonzero"></path>
            <path d="M646.54732,380.34397 C646.063752,380.344578 645.640491,380.668942 645.51417,381.13572 L643.78557,387.55617 C643.698952,387.877623 643.766894,388.221078 643.969377,388.485341 C644.17186,388.749605 644.485812,388.904563 644.81873,388.90456 L677.69267,388.90456 C678.038798,388.904561 678.36354,388.737104 678.564256,388.455115 C678.764973,388.173127 678.816861,387.811455 678.70352,387.48441 L676.48117,381.06397 C676.331826,380.633113 675.925966,380.344133 675.46996,380.34397 L646.54732,380.34397 Z" id="Path" fill="#CCCCCC" fill-rule="nonzero"></path>
            <path d="M507.48137,421.13959 L510.05784,421.13959 L504.90484,76.75135 L502.32836,76.75135 L502.43115,83.62195 L444.68449,83.62195 L444.78727,76.75135 L442.2108,76.75135 L437.0578,421.13959 L439.63428,421.13959 L439.96839,398.81019 L507.14722,398.81019 L507.48137,421.13959 Z M503.76762,172.93959 L443.34807,172.93959 L443.9777,130.85725 L503.13798,130.85725 L503.76762,172.93959 Z M503.8062,175.51607 L504.43583,217.5984 L442.67983,217.5984 L443.30947,175.51607 L503.8062,175.51607 Z M504.47441,220.17488 L505.10405,262.25722 L442.01164,262.25722 L442.64128,220.17488 L504.47441,220.17488 Z M505.14262,264.83369 L505.77226,306.91603 L441.34343,306.91603 L441.97307,264.83369 L505.14262,264.83369 Z M505.81083,309.49251 L506.44047,351.5749 L440.67517,351.5749 L441.30481,309.49251 L505.81083,309.49251 Z M502.46977,86.19843 L503.09941,128.28077 L444.01628,128.28077 L444.64592,86.19843 L502.46977,86.19843 Z M440.007,396.23371 L440.63664,354.15137 L506.47905,354.15137 L507.10869,396.23371 L440.007,396.23371 Z" id="Shape" fill="#3F3D56" fill-rule="nonzero"></path>
            <circle id="Oval" fill="#2F2E41" fill-rule="nonzero" cx="460.7944" cy="153.35761" r="42.01233"></circle>
            <rect id="Rectangle" fill="#2F2E41" fill-rule="nonzero" transform="translate(481.263536, 194.779340) rotate(-10.261060) translate(-481.263536, -194.779340) " x="474.881916" y="183.345595" width="12.76324" height="22.86749"></rect>
            <rect id="Rectangle" fill="#2F2E41" fill-rule="nonzero" transform="translate(456.145380, 199.326392) rotate(-10.261060) translate(-456.145380, -199.326392) " x="449.76376" y="187.892647" width="12.76324" height="22.86749"></rect>
            <ellipse id="Oval" fill="#2F2E41" fill-rule="nonzero" transform="translate(455.991944, 213.405824) rotate(-40.261060) translate(-455.991944, -213.405824) " cx="455.991944" cy="213.405824" rx="10.63602" ry="3.98853"></ellipse>
            <ellipse id="Oval" fill="#2F2E41" fill-rule="nonzero" transform="translate(480.586874, 208.953401) rotate(-40.261060) translate(-480.586874, -208.953401) " cx="480.586874" cy="208.953401" rx="10.63605" ry="3.98853"></ellipse>
            <circle id="Oval" fill="#FFFFFF" fill-rule="nonzero" cx="457.85318" cy="143.08115" r="14.35864"></circle>
            <circle id="Oval" fill="#3F3D56" fill-rule="nonzero" cx="451.95181" cy="137.93436" r="4.78622"></circle>
            <path d="M493.93625,107.65269 C494.56802,92.0991 481.16312,78.92509 463.99545,78.22776 C446.82778,77.53043 432.39853,89.57376 431.76672,105.12736 C431.13491,120.68096 443.06863,124.21482 460.23627,124.91221 C477.40391,125.6096 493.30447,123.20627 493.93625,107.65269 Z" id="Path" fill="#0ea5e9" fill-rule="nonzero"></path>
            <ellipse id="Oval" fill="#2F2E41" fill-rule="nonzero" transform="translate(422.001785, 145.703659) rotate(-77.089900) translate(-422.001785, -145.703659) " cx="422.001785" cy="145.703659" rx="6.59448" ry="21.00616"></ellipse>
            <ellipse id="Oval" fill="#2F2E41" fill-rule="nonzero" transform="translate(504.470422, 159.418119) rotate(-77.089900) translate(-504.470422, -159.418119) " cx="504.470422" cy="159.418119" rx="6.59448" ry="21.00616"></ellipse>
            <path d="M472.3331,169.91416 C472.9488,173.280144 471.720947,176.718794 469.112518,178.933525 C466.504089,181.148255 462.911834,181.802199 459.690258,180.648779 C456.468682,179.495358 454.107795,176.710012 453.4978,173.34299 L453.49445,173.3245 C452.5527,168.12235 456.57483,166.2815 461.77701,165.33976 C466.97919,164.39802 471.39139,164.71201 472.3331,169.91416 Z" id="Path" fill="#FFFFFF" fill-rule="nonzero"></path>
            <ellipse id="Oval" fill="#2F2E41" fill-rule="nonzero" transform="translate(312.185926, 293.633672) rotate(-69.082170) translate(-312.185926, -293.633672) " cx="312.185926" cy="293.633672" rx="21.53369" ry="6.76007"></ellipse>
            <circle id="Oval" fill="#2F2E41" fill-rule="nonzero" transform="translate(272.378778, 326.155721) rotate(-80.782520) translate(-272.378778, -326.155721) " cx="272.378778" cy="326.155721" r="43.06735"></circle>
            <rect id="Rectangle" fill="#2F2E41" fill-rule="nonzero" x="252.75315" y="359.95537" width="13.08374" height="23.44171"></rect>
            <rect id="Rectangle" fill="#2F2E41" fill-rule="nonzero" x="278.92063" y="359.95537" width="13.08374" height="23.44171"></rect>
            <ellipse id="Oval" fill="#2F2E41" fill-rule="nonzero" cx="263.65629" cy="383.66967" rx="10.90314" ry="4.08868"></ellipse>
            <ellipse id="Oval" fill="#2F2E41" fill-rule="nonzero" cx="289.82377" cy="383.12453" rx="10.90314" ry="4.08868"></ellipse>
            <path d="M230.60203,286.10434 C227.12455,270.53055 238.2407,254.79388 255.43064,250.9555 C272.62058,247.11712 289.37486,256.63058 292.85233,272.20438 C296.3298,287.77818 284.93742,293.52203 267.74748,297.36038 C250.55754,301.19873 234.07951,301.67812 230.60203,286.10434 Z" id="Path" fill="#0ea5e9" fill-rule="nonzero"></path>
            <ellipse id="Oval" fill="#2F2E41" fill-rule="nonzero" transform="translate(223.870603, 306.172293) rotate(-64.625740) translate(-223.870603, -306.172293) " cx="223.870603" cy="306.172293" rx="6.76007" ry="21.53368"></ellipse>
            <circle id="Oval" fill="#2F2E41" fill-rule="nonzero" cx="85.9008" cy="369.76318" r="43.06733"></circle>
            <rect id="Rectangle" fill="#2F2E41" fill-rule="nonzero" x="66.27519" y="403.56287" width="13.08374" height="23.44171"></rect>
            <rect id="Rectangle" fill="#2F2E41" fill-rule="nonzero" x="92.44267" y="403.56287" width="13.08374" height="23.44171"></rect>
            <ellipse id="Oval" fill="#2F2E41" fill-rule="nonzero" cx="77.17827" cy="427.27716" rx="10.90314" ry="4.08868"></ellipse>
            <ellipse id="Oval" fill="#2F2E41" fill-rule="nonzero" cx="103.34581" cy="426.732" rx="10.90314" ry="4.08868"></ellipse>
            <circle id="Oval" fill="#FFFFFF" fill-rule="nonzero" cx="86.99113" cy="358.86008" r="14.71922"></circle>
            <circle id="Oval" fill="#3F3D56" fill-rule="nonzero" cx="86.99113" cy="358.86008" r="4.90642"></circle>
            <path d="M44.12401,329.71183 C40.64653,314.13804 51.76268,298.4014 68.95262,294.56302 C86.14256,290.72464 102.89683,300.23813 106.37431,315.81192 C109.85179,331.38571 98.45939,337.12961 81.26945,340.96792 C64.07951,344.80623 47.60154,345.28568 44.12401,329.71183 Z" id="Path" fill="#12a5e9" fill-rule="nonzero"></path>
            <ellipse id="Oval" fill="#2F2E41" fill-rule="nonzero" transform="translate(110.988725, 213.490755) rotate(-69.082170) translate(-110.988725, -213.490755) " cx="110.988725" cy="213.490755" rx="21.53369" ry="6.76007"></ellipse>
            <circle id="Oval" fill="#2F2E41" fill-rule="nonzero" transform="translate(71.181568, 246.012788) rotate(-80.782520) translate(-71.181568, -246.012788) " cx="71.1815681" cy="246.012788" r="43.06735"></circle>
            <rect id="Rectangle" fill="#2F2E41" fill-rule="nonzero" x="51.55595" y="279.81244" width="13.08374" height="23.44171"></rect>
            <rect id="Rectangle" fill="#2F2E41" fill-rule="nonzero" x="77.72343" y="279.81244" width="13.08374" height="23.44171"></rect>
            <ellipse id="Oval" fill="#2F2E41" fill-rule="nonzero" cx="62.45909" cy="303.52674" rx="10.90314" ry="4.08868"></ellipse>
            <ellipse id="Oval" fill="#2F2E41" fill-rule="nonzero" cx="88.62657" cy="302.9816" rx="10.90314" ry="4.08868"></ellipse>
            <circle id="Oval" fill="#FFFFFF" fill-rule="nonzero" cx="72.27189" cy="235.10965" r="14.71922"></circle>
            <circle id="Oval" fill="#3F3D56" fill-rule="nonzero" cx="72.27189" cy="235.10965" r="4.90642"></circle>
            <path d="M29.40483,205.96134 C25.92735,190.38755 37.0435,174.65088 54.23344,170.8125 C71.42338,166.97412 88.17766,176.48758 91.65513,192.06138 C95.1326,207.63518 83.74022,213.37903 66.55028,217.21738 C49.36034,221.05573 32.88231,221.53519 29.40483,205.96134 Z" id="Path" fill="#0ea5e9" fill-rule="nonzero"></path>
            <ellipse id="Oval" fill="#2F2E41" fill-rule="nonzero" transform="translate(22.673401, 226.029366) rotate(-64.625740) translate(-22.673401, -226.029366) " cx="22.6734006" cy="226.029366" rx="6.76007" ry="21.53368"></ellipse>
            <path d="M50.02702,261.54972 C50.02702,265.76487 60.88029,274.08829 72.92357,274.08829 C84.96685,274.08829 96.25871,262.22129 96.25871,258.0062 C96.25871,253.79111 84.96678,258.82395 72.92357,258.82395 C60.88036,258.82395 50.02702,257.33457 50.02702,261.54972 Z" id="Path" fill="#FFFFFF" fill-rule="nonzero"></path>
            <path d="M113.52376,81.56869 C111.867655,81.5704977 110.525568,82.9125851 110.52376,84.56869 L110.52376,208.56869 C110.525568,210.224795 111.867655,211.566882 113.52376,211.56869 L400.52376,211.56869 C402.179865,211.566882 403.521952,210.224795 403.52376,208.56869 L403.52376,84.56869 C403.521952,82.9125851 402.179865,81.5704977 400.52376,81.56869 L113.52376,81.56869 Z" id="Path" fill="#fbc024" fill-rule="nonzero"></path>
            <circle id="Oval" fill="#FFFFFF" fill-rule="nonzero" cx="191.01816" cy="146.56869" r="29.1211"></circle>
            <path d="M256.7436,142.69417 C254.884983,142.724723 253.39428,144.240132 253.39428,146.099 C253.39428,147.957868 254.884983,149.473277 256.7436,149.50383 L348.68926,149.50383 C349.906316,149.524778 351.042001,148.894505 351.668119,147.850647 C352.294237,146.806789 352.31556,145.508108 351.72405,144.444258 C351.132539,143.380407 350.018157,142.713189 348.80107,142.69417 C348.763797,142.693537 348.726527,142.693537 348.68926,142.69417 L256.7436,142.69417 Z" id="b71acdfd-6a55-428e-917a-53f192cb0203" fill="#FFFFFF" fill-rule="nonzero"></path>
            <path d="M256.7436,122.96697 C254.884983,122.997523 253.39428,124.512932 253.39428,126.3718 C253.39428,128.230668 254.884983,129.746077 256.7436,129.77663 L302.65917,129.77663 C303.876249,129.797613 305.011971,129.167347 305.638111,128.123473 C306.26425,127.0796 306.285572,125.78089 305.694037,124.717025 C305.102503,123.65316 303.988082,122.985951 302.77097,122.96697 C302.733703,122.966337 302.696437,122.966337 302.65917,122.96697 L256.7436,122.96697 Z" id="ad4fbcfa-41b0-45f9-a593-23b6dc3fe165" fill="#FFFFFF" fill-rule="nonzero"></path>
            <path d="M256.7436,163.36076 C254.884983,163.391313 253.39428,164.906722 253.39428,166.76559 C253.39428,168.624458 254.884983,170.139867 256.7436,170.17042 L348.68926,170.17042 C349.906316,170.191368 351.042001,169.561095 351.668119,168.517237 C352.294237,167.473379 352.31556,166.174698 351.72405,165.110848 C351.132539,164.046997 350.018157,163.379779 348.80107,163.36076 C348.763797,163.360093 348.726527,163.360093 348.68926,163.36076 L256.7436,163.36076 Z" id="bce2a7cd-a325-424d-9b3a-f63d1dad5aba" fill="#FFFFFF" fill-rule="nonzero"></path>
            <ellipse id="Oval" fill="#2F2E41" fill-rule="nonzero" transform="translate(695.602650, 372.610085) rotate(-20.917830) translate(-695.602650, -372.610085) " cx="695.60265" cy="372.610085" rx="6.76007" ry="21.53369"></ellipse>
            <circle id="Oval" fill="#2F2E41" fill-rule="nonzero" transform="translate(726.409811, 414.132115) rotate(-9.217470) translate(-726.409811, -414.132115) " cx="726.409811" cy="414.132115" r="43.06733"></circle>
            <polygon id="Path" fill="#2F2E41" fill-rule="nonzero" points="746.035 447.932 732.952 447.932 735.512 476.005 746.058 473.14"></polygon>
            <polygon id="Path" fill="#2F2E41" fill-rule="nonzero" points="717.512 448.005 704.428 448.005 706.988 476.078 717.058 473.14"></polygon>
            <ellipse id="Oval" fill="#2F2E41" fill-rule="nonzero" transform="translate(706.318056, 473.319125) rotate(-4.181640) translate(-706.318056, -473.319125) " cx="706.318056" cy="473.319125" rx="10.90314" ry="4.08868"></ellipse>
            <circle id="Oval" fill="#FFFFFF" fill-rule="nonzero" cx="725.31949" cy="403.22896" r="14.71922"></circle>
            <circle id="Oval" fill="#3F3D56" fill-rule="nonzero" cx="725.31949" cy="403.22896" r="4.90642"></circle>
            <ellipse id="Oval" fill="#2F2E41" fill-rule="nonzero" transform="translate(771.918005, 384.148727) rotate(-53.549900) translate(-771.918005, -384.148727) " cx="771.918005" cy="384.148727" rx="21.53368" ry="6.76007"></ellipse>
            <path d="M705.39698,436.33866 C705.39698,432.86466 714.34198,426.00466 724.26778,426.00466 C734.19358,426.00466 743.50006,435.78516 743.50006,439.25914 C743.50006,442.73312 734.19351,438.58514 724.26778,438.58514 C714.34205,438.58514 705.39698,439.81268 705.39698,436.33866 Z" id="Path" fill="#FFFFFF" fill-rule="nonzero" transform="translate(724.448520, 433.325266) rotate(-180.000000) translate(-724.448520, -433.325266) "></path>
            <path d="M847.1767,378.54172 L611.43117,345.86064 C607.604361,345.32541 604.932725,341.793834 605.45868,337.96574 L631.96057,146.79396 C632.495641,142.967058 636.027329,140.295337 639.85547,140.82147 L875.60098,173.50256 C879.427885,174.037626 882.099609,177.569318 881.57347,181.39746 L855.0716,372.56924 C854.536375,376.396051 851.004794,379.067687 847.1767,378.54172 L847.1767,378.54172 Z" id="Path" fill="#9358ff" fill-rule="nonzero"></path>
            <path d="M762.72231,318.87957 L642.36784,302.19498 C642.216871,302.176045 642.067969,302.14324 641.92302,302.09698 L712.51355,211.39072 C713.394132,210.238632 714.82651,209.649483 716.262854,209.8486 C717.699198,210.047717 718.917295,211.004295 719.45127,212.35248 L748.48059,283.8148 L749.87186,287.23459 L762.72231,318.87957 Z" id="Path" fill="#FFFFFF" fill-rule="nonzero"></path>
            <polygon id="Path" fill="#000000" fill-rule="nonzero" opacity="0.2" points="762.722 318.879 721.63 313.183 745.864 286.679 747.609 284.77 748.481 283.815 749.872 287.235"></polygon>
            <path d="M829.73481,328.16942 L725.63807,313.73863 L749.87186,287.23463 L751.61612,285.32515 L783.19533,250.78503 C784.29885,249.735613 785.796059,249.204111 787.314261,249.322828 C788.832463,249.441546 790.228856,250.199316 791.15584,251.40751 C791.271244,251.575507 791.375823,251.750689 791.46894,251.93199 L829.73481,328.16942 Z" id="Path" fill="#FFFFFF" fill-rule="nonzero"></path>
            <circle id="Oval" fill="#FFFFFF" fill-rule="nonzero" cx="764.18602" cy="224.18353" r="18"></circle>
            <rect id="Rectangle" fill="#FFFFFF" fill-rule="nonzero" transform="translate(653.262165, 167.923576) rotate(7.892770) translate(-653.262165, -167.923576) " x="642.262129" y="156.923541" width="22.0000711" height="22.0000711"></rect>
            <path d="M768.18655,374.08068 C771.66403,358.50689 760.54788,342.77022 743.35794,338.93184 C726.168,335.09346 709.41373,344.60692 705.93625,360.18071 C702.45877,375.7545 713.85117,381.49837 731.04111,385.33671 C748.23105,389.17505 764.70908,389.6545 768.18655,374.08068 Z" id="Path" fill="#12a5e9" fill-rule="nonzero"></path>
            <ellipse id="Oval" fill="#2F2E41" fill-rule="nonzero" transform="translate(735.010556, 473.249892) rotate(-4.181640) translate(-735.010556, -473.249892) " cx="735.010556" cy="473.249892" rx="10.90314" ry="4.08868"></ellipse>
        </g>
    </g>
</svg>
