<svg width="516" height="154" viewBox="0 0 516 154" fill="none" xmlns="http://www.w3.org/2000/svg">
<path fill-rule="evenodd" clip-rule="evenodd" d="M375.3 65.813C375.153 65.896 375.012 65.987 374.875 66.088C374.296 66.542 373.804 67.201 373.397 68.062L372.797 69.412L370.597 75.812C370.45 75.479 370.299 75.154 370.147 74.837C367.001 68.517 361.985 65.325 355.097 65.262H354.747C349.854 65.262 345.171 66.662 340.697 69.462C338.164 71.044 335.697 73.078 333.297 75.562C328.33 80.696 324.681 86.512 322.347 93.012C322.147 93.212 321.981 93.429 321.847 93.662L317.547 101.462C315.948 104.462 314.464 107.011 313.097 109.111L312.247 110.462L309.197 114.512C308.144 115.686 307.061 116.561 305.947 117.137C305.226 117.503 304.493 117.745 303.747 117.862L303.247 117.913C302.846 117.913 302.413 117.812 301.947 117.612C301.514 117.446 301.113 117.213 300.747 116.913C299.647 115.946 298.663 114.496 297.797 112.562C297.642 112.184 297.492 111.792 297.347 111.387C295.994 107.613 295.228 102.921 295.047 97.312C304.181 81.412 311.497 67.762 316.997 56.362L320.597 48.812C321.209 47.471 321.759 46.246 322.247 45.137C322.313 44.975 322.38 44.817 322.447 44.662C329.714 43.495 337.413 41.979 345.547 40.112L385.197 30.512C400.897 26.945 414.264 24.529 425.297 23.262C433.23 22.295 441.113 21.645 448.947 21.312L460.747 20.912C465.013 20.912 468.913 21.145 472.447 21.612C483.547 23.379 492.063 28.045 497.997 35.612C503.897 43.212 506.847 52.579 506.847 63.712V64.262C506.748 74.695 504.198 84.396 499.198 93.362C499.097 93.495 498.998 93.628 498.897 93.762C495.731 99.229 492.248 103.878 488.448 107.712C485.634 110.585 482.768 112.86 479.847 114.537C477.952 115.63 476.035 116.472 474.097 117.061C472.364 117.628 470.547 117.912 468.647 117.912L466.748 117.861C464.048 117.562 461.781 116.679 459.948 115.212C458.963 114.375 458.155 113.366 457.522 112.187C456.439 110.119 455.897 107.527 455.897 104.413L455.948 103.062L455.998 102.112C460.198 103.712 464.381 104.512 468.548 104.512L471.048 104.412C474.986 104.095 478.537 103.045 481.698 101.262C484.526 99.649 487.043 97.449 489.248 94.662C492.948 90.029 494.798 85.229 494.798 80.262V80.012V79.562C494.699 75.92 493.449 72.77 491.048 70.112C488.514 67.279 485.314 65.712 481.448 65.412L479.248 65.312C474.922 65.312 470.738 66.579 466.698 69.112C465.005 70.176 463.338 71.459 461.698 72.962C455.998 78.162 451.831 84.779 449.198 92.812C449.131 92.979 449.081 93.146 449.048 93.312C448.948 93.413 448.864 93.529 448.798 93.663C443.032 103.49 436.582 110.466 429.448 114.588C428.626 115.069 427.792 115.511 426.948 115.913C424.215 117.213 421.481 117.862 418.748 117.862C417.347 117.862 415.998 117.696 414.698 117.362C411.218 116.526 408.751 114.684 407.298 111.838C406.909 111.053 406.592 110.195 406.348 109.263C405.881 107.497 405.648 105.68 405.648 103.813C405.648 101.046 406.148 98.129 407.148 95.063C408.648 90.43 410.965 86.246 414.098 82.513C416.113 80.096 418.229 78.18 420.449 76.763C422.448 75.489 424.532 74.622 426.699 74.163C427.765 73.963 428.732 73.863 429.598 73.863C430.898 73.863 432.098 74.063 433.199 74.463C435.466 75.263 436.716 76.83 436.949 79.163C437.081 80.43 437.631 81.446 438.598 82.213C439.466 82.913 440.499 83.263 441.699 83.263C442.328 83.263 442.887 83.172 443.374 82.988C443.807 82.822 444.182 82.58 444.499 82.263C445.172 81.654 445.523 80.862 445.549 79.888V79.763V79.163C444.916 73.53 442.2 69.513 437.399 67.113C434.899 65.88 432.233 65.263 429.399 65.263C427.2 65.263 424.849 65.646 422.349 66.413C420.11 67.165 417.976 68.173 415.95 69.438C413.206 71.158 410.656 73.35 408.3 76.013C404.633 80.213 401.751 85.18 399.65 90.913C399.35 91.713 399.083 92.529 398.85 93.362C398.808 93.4258 398.766 93.4889 398.724 93.5521C398.699 93.5889 398.675 93.6258 398.65 93.663L393.951 101.763C392.217 104.763 390.534 107.363 388.9 109.563L387.543 111.383H392.987V118.569C394.262 117.166 395.516 115.581 396.75 113.812C396.942 113.538 397.134 113.262 397.325 112.987C397.601 112.582 397.876 112.174 398.15 111.762C398.851 114.329 399.968 116.612 401.501 118.612C402.642 120.142 403.957 121.448 405.447 122.529C405.817 122.206 406.208 121.901 406.62 121.616C409.353 119.721 412.715 118.868 416.279 118.868C418.864 118.868 421.664 119.323 424.171 120.543V119.172H438.092C441.079 116.979 443.94 114.359 446.676 111.312C446.99 110.964 447.297 110.615 447.601 110.262C447.835 111.562 448.185 112.812 448.651 114.012C449.352 115.894 450.265 117.564 451.39 119.022C452.174 118.919 452.975 118.868 453.791 118.868C457.801 118.868 461.774 120.12 464.81 123C465.259 122.55 465.747 122.133 466.274 121.752C469.091 119.71 472.688 118.868 476.365 118.868C479.665 118.868 482.802 119.538 485.407 121.129C485.991 120.755 486.574 120.362 487.157 119.95L487.169 113.393H494.832C498.914 109.252 502.67 104.291 506.101 98.513C506.234 98.313 506.367 98.096 506.501 97.863C511.3 89.329 514.184 80.129 515.15 70.263C515.35 68.13 515.451 66.013 515.451 63.913C515.451 60.005 515.11 56.23 514.426 52.588C513.71 48.783 512.618 45.125 511.151 41.613C507.151 31.846 500.835 24.463 492.202 19.463C484.335 14.83 473.252 12.513 458.952 12.513L455.302 12.563C429.902 13.163 400.418 17.646 366.852 26.013L348.002 30.663C341.459 32.175 335.192 33.525 329.202 34.713C329.118 34.73 329.035 34.746 328.952 34.763C327.918 34.963 326.901 35.146 325.901 35.313C327.101 31.413 327.834 27.763 328.101 24.363L328.151 23.313V23.113C328.151 19.98 327.218 17.38 325.351 15.313C323.685 13.48 321.601 12.563 319.101 12.563C318.235 12.563 317.351 12.68 316.452 12.913C314.991 13.242 313.55 13.867 312.127 14.788C311.245 15.367 310.37 16.059 309.502 16.863C307.769 18.429 306.052 20.546 304.352 23.213C301.519 27.58 298.985 32.73 296.752 38.663C296.49 38.675 296.232 38.684 295.977 38.688C294.039 38.771 292.131 38.813 290.252 38.813H289.901C275.068 38.813 263.468 34.913 255.101 27.113C252.368 24.58 250.168 21.863 248.501 18.963C248.301 18.63 247.768 17.596 246.901 15.863L246.851 15.613C246.351 14.347 245.567 13.497 244.501 13.063C244.034 12.83 243.468 12.696 242.801 12.663L237.951 1.81299C237.818 1.51299 237.684 1.26299 237.551 1.06299L237.501 1.01299C236.868 0.112988 236.168 -0.187012 235.401 0.112988C234.86 0.171988 234.469 0.379988 234.226 0.737988C233.995 1.07399 233.895 1.53999 233.926 2.13799C233.93 2.36399 233.956 2.60599 234.001 2.86299L235.851 7.06299L236.376 8.23799L238.551 13.138L239.051 14.263C238.951 14.363 238.868 14.48 238.801 14.613C238.434 15.146 238.251 15.746 238.251 16.413C238.251 16.88 238.351 17.363 238.551 17.863C240.684 24.03 244.668 29.58 250.501 34.513C255.768 38.98 261.784 42.28 268.551 44.413C274.551 46.347 282.252 47.313 291.651 47.313H293.851C291.918 53.913 290.268 61.296 288.901 69.463C287.368 79.029 286.518 86.763 286.351 92.663V94.513C283.185 99.779 279.851 104.18 276.351 107.713C275.023 109.07 273.682 110.293 272.33 111.383H284.422V111.55C285.176 110.717 285.919 109.855 286.65 108.963C286.955 108.602 287.255 108.236 287.55 107.862C288.116 110.562 288.85 113.079 289.75 115.413C290.369 116.926 291.058 118.284 291.816 119.487C294.24 120.155 296.507 121.382 298.389 123.263L298.435 123.309C299.032 122.688 299.696 122.122 300.426 121.616C303.159 119.721 306.52 118.868 310.084 118.868C312.076 118.868 314.194 119.138 316.208 119.819C317.239 118.667 318.253 117.365 319.25 115.913C319.56 115.492 319.878 115.041 320.2 114.562C320.463 114.183 320.729 113.783 321 113.362C321.366 114.562 321.849 115.729 322.45 116.862C322.884 117.685 323.365 118.455 323.891 119.172H333.048C333.95 118.971 334.892 118.868 335.862 118.868C338.299 118.868 340.612 119.529 342.52 120.778C344.555 119.522 346.987 118.868 349.499 118.868C351.721 118.868 353.903 119.377 355.816 120.469C358.722 118.011 361.501 114.858 364.15 111.012C364.486 110.522 364.819 110.022 365.15 109.512V110.462C365.302 113.702 365.921 116.543 367.007 118.986C367.777 118.906 368.558 118.868 369.342 118.868C372.017 118.868 374.585 119.309 376.85 120.323V117.599C376.267 117.371 375.783 117.001 375.4 116.488C375.185 116.209 375.002 115.884 374.85 115.513C374.116 113.812 373.75 111.362 373.75 108.163V107.013C373.951 101.513 375.317 94.13 377.85 84.863L380.15 77.763C380.794 75.673 381.261 73.907 381.55 72.463C381.695 71.752 381.794 71.119 381.85 70.563V70.013C381.85 68.413 381.233 67.113 380 66.113C379.166 65.446 378.35 65.113 377.55 65.113C376.783 65.113 376.033 65.347 375.3 65.813ZM381.768 116.938V126.061C382.292 125.928 382.819 125.761 383.35 125.562C384.261 125.221 385.161 124.795 386.05 124.288C386.728 123.907 387.401 123.479 388.069 123.004V116.298H382.803C382.456 116.538 382.111 116.751 381.768 116.938ZM377.174 126.37C377.07 126.268 376.962 126.169 376.85 126.072C376.831 126.056 376.812 126.04 376.793 126.024L376.745 125.983C375.875 125.26 374.798 124.7 373.522 124.327C372.687 124.082 371.767 123.917 370.765 123.837C371.77 124.597 372.915 125.205 374.201 125.662C375.214 126.014 376.205 126.25 377.174 126.37ZM350.785 123.872C350.371 123.813 349.942 123.783 349.499 123.783C348.502 123.783 347.569 123.931 346.724 124.208C346.466 124.292 346.217 124.388 345.976 124.496C345.053 124.908 344.261 125.487 343.635 126.2C346.114 125.826 348.497 125.049 350.785 123.872ZM341.391 126.429C341.328 126.336 341.262 126.245 341.193 126.157C340.599 125.388 339.813 124.781 338.876 124.374C337.994 123.99 336.978 123.783 335.862 123.783C335.204 123.783 334.579 123.856 333.993 123.997C333.878 124.024 333.765 124.054 333.653 124.087C333.588 124.106 333.524 124.126 333.46 124.147C333.399 124.166 333.339 124.187 333.279 124.208L333.228 124.227L333.184 124.243C332.659 124.438 332.173 124.693 331.731 125.004C333.276 125.574 334.966 125.977 336.8 126.213C338.067 126.379 339.166 126.463 340.1 126.463C340.533 126.463 340.964 126.452 341.391 126.429ZM311.67 123.858C311.15 123.807 310.62 123.783 310.084 123.783L310.054 123.783C308.758 123.785 307.565 123.931 306.486 124.207C305.018 124.582 303.761 125.197 302.741 126.019C302.587 126.143 302.438 126.272 302.295 126.406C302.593 126.434 302.894 126.453 303.2 126.463H303.599C305.933 126.463 308.2 125.855 310.399 124.638C310.825 124.401 311.249 124.141 311.67 123.858ZM279.504 116.418V116.298H264.159C263.443 116.588 262.723 116.842 262.001 117.062C260.268 117.629 258.435 117.913 256.501 117.913L254.651 117.862C254.398 117.834 254.149 117.801 253.904 117.763V121.729H263.447V125.556C265.623 124.986 267.795 124.148 269.961 123.042V121.729H272.325C273.903 120.785 275.478 119.696 277.05 118.463C277.88 117.811 278.698 117.13 279.504 116.418ZM248.986 125.349V116.012C248.591 115.769 248.212 115.502 247.851 115.213C246.867 114.376 246.059 113.367 245.426 112.188C244.343 110.12 243.801 107.528 243.801 104.414V103.664V103.063C243.823 102.687 243.856 102.388 243.901 102.164V102.113C244.234 102.246 244.584 102.379 244.951 102.513L245.551 102.713C245.651 102.747 245.768 102.78 245.901 102.813C249.434 103.947 252.951 104.513 256.451 104.513L258.951 104.413C262.892 104.098 266.433 103.047 269.576 101.263C272.41 99.662 274.917 97.462 277.1 94.663C280.8 90.03 282.65 85.23 282.65 80.263V80.013V79.563C282.552 75.921 281.302 72.771 278.9 70.113C276.366 67.28 273.166 65.713 269.3 65.413L267.15 65.313C262.809 65.313 258.601 66.588 254.525 69.138C252.844 70.197 251.186 71.473 249.55 72.963C244.283 77.796 240.35 83.813 237.75 91.013L237.05 90.788L231.125 88.763L229.35 88.163C229.417 87.496 229.466 86.829 229.5 86.163L229.6 84.362C229.6 83.411 229.558 82.494 229.475 81.612C228.83 74.854 225.722 70.104 220.15 67.362C217.217 65.895 214.233 65.162 211.2 65.162C210.8 65.162 210.167 65.195 209.3 65.262L207.35 65.562C203.467 66.088 199.783 67.447 196.3 69.637C195.143 70.351 194.009 71.16 192.9 72.062C188.1 76.029 184.333 81.046 181.6 87.112C180.567 89.413 179.733 91.696 179.1 93.963L175.6 100.213C174.4 102.413 173.167 104.579 171.9 106.713L168.35 112.413C166.683 114.546 165.083 116.079 163.55 117.013C163.439 117.08 163.314 117.138 163.175 117.188C162.914 117.305 162.605 117.397 162.25 117.463L160.45 117.563C160.091 117.494 159.766 117.394 159.475 117.263C158.527 116.811 158.003 115.995 157.9 114.813C157.833 114.414 157.8 113.763 157.8 112.863C157.8 111.296 157.983 109.447 158.35 107.313C158.583 105.98 158.85 104.73 159.15 103.563L164.8 79.613C165.033 78.413 165.15 77.246 165.15 76.113V75.713V75.638C165.141 73.14 164.641 71.065 163.65 69.413C162.483 67.413 160.733 66.13 158.4 65.563C157.667 65.363 156.9 65.263 156.1 65.263C154.634 65.263 153.217 65.58 151.85 66.213C150.965 66.575 150.081 67.042 149.2 67.613C147.895 68.452 146.595 69.519 145.3 70.813C143.867 72.213 142.1 74.23 140 76.863C136.433 81.464 132.533 87.297 128.3 94.363C125.967 98.23 122.9 103.697 119.1 110.763V109.513C119.1 106.579 119.233 103.563 119.5 100.463L119.7 97.163C127.467 83.697 133.634 72.363 138.2 63.163C144.267 51.196 148.433 41.546 150.7 34.213L151.95 29.813C152.316 28.213 152.583 26.63 152.75 25.063L152.8 23.113C152.8 20.347 152.15 18.03 150.85 16.163C149.384 14.097 147.3 12.93 144.6 12.663L143.6 12.563C141.5 12.563 139.466 13.163 137.5 14.363C137.362 14.4453 137.224 14.5283 137.085 14.612L137 14.663C133.249 17.074 130.015 21.09 127.3 26.713C126.2 28.98 125.1 31.58 124 34.513L121.6 42.013C117.7 54.179 114.65 68.479 112.45 84.913L111.45 93.213C111.417 93.579 111.384 93.93 111.35 94.263C108.783 98.453 106.017 101.369 103.05 103.013C102.436 103.349 101.811 103.633 101.175 103.863C100.988 103.936 100.796 104.002 100.6 104.063C100.505 102.759 100.355 101.476 100.15 100.213C99.04 93.467 96.324 87.3 92 81.713C88.152 76.708 83.161 72.667 77.025 69.588C75.746 68.959 74.421 68.367 73.05 67.813C71.111 67.029 69.078 66.329 66.95 65.713C59.15 63.48 53.383 60.413 49.65 56.513C47.907 54.693 46.565 52.768 45.625 50.738C44.542 48.388 44 45.896 44 43.263C44 37.196 46.317 31.996 50.95 27.663C52.031 26.652 53.181 25.76 54.4 24.988C58.413 22.438 63.18 21.163 68.7 21.163C74.467 21.23 79.017 22.763 82.35 25.763C85.683 28.763 87.35 32.463 87.35 36.863C87.35 41.296 85.45 45.213 81.65 48.613C80.75 49.38 80.3 50.33 80.3 51.463C80.333 51.93 80.4 52.38 80.5 52.813L71.8 61.013C71.566 61.246 71.383 61.463 71.25 61.663L71.2 61.713C70.567 62.613 70.517 63.363 71.05 63.963C71.493 64.904 72.268 65.171 73.375 64.763C73.604 64.671 73.846 64.554 74.1 64.413L82 57.038L82.75 56.313L83.45 55.663C83.817 55.73 84.216 55.78 84.65 55.813C85.289 55.813 85.955 55.638 86.65 55.288C88.217 54.515 89.934 52.874 91.8 50.363C94.433 46.73 95.75 42.363 95.75 37.263L95.6 34.513C95.579 34.301 95.554 34.093 95.525 33.888C94.716 27.155 91.757 21.93 86.65 18.213C81.417 14.413 75.5 12.513 68.9 12.513C61.845 12.513 55.57 14.23 50.075 17.663C48.735 18.495 47.443 19.428 46.2 20.463C39.066 26.396 35.5 33.763 35.5 42.563L35.65 45.263C36.517 54.396 40.817 61.58 48.55 66.813C51.417 68.813 55.783 70.847 61.65 72.913L68.05 75.113C74.716 77.413 80.2 81.046 84.5 86.013C88.8 90.913 91.3 96.813 92 103.713C91.635 103.609 91.268 103.492 90.9 103.362C87.79 102.34 84.389 100.623 80.7 98.213L65.85 88.263C60.15 84.43 55.033 81.729 50.5 80.163C45.967 78.596 41.567 77.812 37.3 77.812C33.167 77.812 29.05 78.412 24.95 79.612C21.935 80.52 19.194 81.746 16.725 83.288C12.677 85.823 9.369 89.215 6.8 93.463C2.6 100.362 0.333 107.663 0 115.362V116.913C0 128.213 4.816 137.263 14.45 144.064C22.75 149.931 33.567 152.931 46.9 153.064C56.567 153.064 65.55 151.214 73.85 147.514C75.642 146.719 77.35 145.844 78.975 144.889C84.924 141.421 89.782 136.912 93.55 131.364C97.265 125.825 99.548 119.776 100.4 113.215C100.415 113.066 100.432 112.915 100.45 112.765C102.969 112.432 105.369 111.616 107.65 110.315C108.225 109.987 108.792 109.629 109.35 109.24C109.686 109.012 110.019 108.77 110.35 108.515V108.865C110.35 112.266 110.55 115.365 110.95 118.166C111.25 120.166 111.7 121.798 112.3 123.065C113.134 124.798 114.35 125.865 115.95 126.265C116.35 126.399 116.767 126.465 117.2 126.465C117.809 126.465 118.392 126.34 118.95 126.09C119.748 125.732 120.498 125.123 121.2 124.265C121.833 123.432 122.4 122.564 122.9 121.665L129.4 109.665C131.167 106.398 132.9 103.298 134.6 100.364C138.9 93.064 142.833 87.13 146.4 82.564C148.634 79.63 150.617 77.447 152.35 76.014L154.175 74.414L154.3 74.314C154.966 73.881 155.45 73.664 155.75 73.664C155.883 73.664 156.017 73.697 156.15 73.764C156.35 73.864 156.45 74.43 156.45 75.464V76.164C156.45 77.43 156.35 78.68 156.15 79.914C155.75 82.28 155.05 85.18 154.05 88.613L151.55 97.464C149.983 103.264 149.2 108.247 149.2 112.414C149.2 113.414 149.25 114.364 149.35 115.264C150.017 121.564 152.983 125.214 158.25 126.214C159.183 126.38 160.017 126.464 160.75 126.464C162.966 126.464 165.158 125.863 167.325 124.664C168.322 124.104 169.314 123.421 170.3 122.613C172.686 120.629 175.22 117.596 177.9 113.513C178.096 113.201 178.296 112.884 178.5 112.563C178.567 112.463 178.634 112.379 178.7 112.313C179.466 114.813 180.65 117.046 182.25 119.013C185.083 122.612 188.95 124.93 193.85 125.963C195.583 126.296 197.15 126.463 198.55 126.463C201.583 126.463 204.517 125.779 207.35 124.413C207.83 124.178 208.305 123.928 208.775 123.663C212.713 121.415 216.304 117.998 219.55 113.413L225.05 103.713C225.957 101.694 226.732 99.678 227.375 97.663C227.473 97.376 227.565 97.093 227.65 96.812L236.1 99.612L235.15 107.862C235.35 110.029 235.817 112.078 236.55 114.012C238.701 119.785 242.846 123.564 248.986 125.349ZM479.761 124.126C478.769 123.907 477.671 123.79 476.471 123.783L476.365 123.783C474.948 123.783 473.646 123.938 472.484 124.235C470.752 124.677 469.33 125.434 468.304 126.459C468.422 126.462 468.538 126.463 468.651 126.463C472.366 126.463 476.069 125.684 479.761 124.126ZM429.607 124.087H429.089V124.309C429.127 124.293 429.164 124.278 429.201 124.262C429.336 124.204 429.472 124.146 429.607 124.087ZM423.627 125.978C422.466 125.035 420.988 124.414 419.356 124.08C418.374 123.879 417.337 123.783 416.279 123.783L416.248 123.783C414.952 123.785 413.76 123.931 412.681 124.207C411.841 124.421 411.071 124.714 410.375 125.079C411.605 125.508 412.914 125.835 414.301 126.062C415.834 126.328 417.301 126.462 418.701 126.462C420.343 126.462 421.985 126.301 423.627 125.978ZM355.85 108.313C353.26 111.748 350.551 114.257 347.725 115.838C345.302 117.188 342.793 117.862 340.199 117.863C339.132 117.863 338.065 117.763 336.999 117.563C333.872 116.926 331.622 115.468 330.249 113.188C329.182 111.415 328.648 109.139 328.648 106.363V105.664C328.716 103.03 329.232 100.197 330.199 97.164C330.966 94.597 331.999 92.181 333.299 89.914C336.479 84.164 340.27 79.898 344.674 77.114C345.806 76.4 346.981 75.784 348.199 75.264C350.365 74.331 352.399 73.864 354.299 73.864C355.366 73.864 356.299 73.981 357.099 74.214C360.033 75.014 362.066 77.031 363.2 80.264C363.633 81.498 364.416 82.347 365.55 82.814C366.184 83.08 366.8 83.214 367.4 83.214L368.1 83.113C367.5 85.013 366.9 86.664 366.3 88.063L364.35 92.813C363.75 94.246 362.984 95.98 362.05 98.013C360.017 102.08 357.951 105.513 355.85 108.313ZM468.5 95.913C466.183 95.913 463.883 95.596 461.6 94.963C460.292 94.597 458.992 94.131 457.7 93.563C458.5 91.464 459.483 89.397 460.649 87.363C463.318 82.824 466.551 79.349 470.349 76.938C471.16 76.435 471.994 75.977 472.849 75.563C475.217 74.429 477.5 73.863 479.7 73.863H480.05C482.95 73.963 484.866 75.18 485.8 77.513C486.1 78.313 486.25 79.163 486.25 80.063C486.25 80.996 486.132 81.879 485.899 82.713C485.5 84.313 484.783 85.93 483.75 87.563C482.051 90.346 479.926 92.438 477.375 93.838C475.379 94.938 473.121 95.613 470.6 95.862L468.5 95.913ZM315.35 36.963C313.964 37.156 312.597 37.331 311.25 37.488C309.592 37.686 307.958 37.86 306.35 38.013C306.951 36.613 307.567 35.263 308.201 33.963C309.534 31.163 310.951 28.663 312.451 26.463C313.705 24.637 314.872 23.328 315.951 22.538C316.508 22.124 317.041 21.849 317.551 21.713L318.351 21.613C319.185 21.613 319.601 22.146 319.601 23.213C319.501 25.246 319.151 27.296 318.551 29.363C318.384 30.097 318.1 31.113 317.701 32.413L316.701 35.363C316.534 35.863 316.35 36.363 316.15 36.863C315.879 36.901 315.613 36.934 315.35 36.963ZM256.35 95.913C254.048 95.913 251.756 95.596 249.475 94.963C248.848 94.785 248.223 94.585 247.601 94.363C246.934 94.129 246.268 93.863 245.601 93.563C246.368 91.464 247.351 89.397 248.551 87.363C251.219 82.824 254.453 79.349 258.251 76.938C259.062 76.435 259.895 75.977 260.751 75.563C263.118 74.429 265.401 73.863 267.601 73.863H267.901C270.835 73.963 272.768 75.18 273.702 77.513C274.002 78.313 274.151 79.163 274.151 80.063C274.151 81.029 274.019 81.913 273.752 82.713C273.418 84.28 272.718 85.897 271.651 87.563C269.958 90.354 267.841 92.445 265.301 93.838C263.282 94.952 260.999 95.627 258.451 95.862L256.35 95.913ZM296.649 75.563C298.053 65.122 300.111 55.747 302.825 47.438C302.882 47.266 302.94 47.091 303 46.913C304.767 46.779 306.6 46.63 308.5 46.463C309.133 46.3965 309.767 46.3297 310.4 46.263C311.033 46.1962 311.667 46.1295 312.3 46.063C311.366 48.163 310.35 50.346 309.25 52.613C306.016 59.413 301.733 67.68 296.399 77.413L296.625 75.763L296.649 75.563ZM209.95 81.613C209.555 81.504 209.188 81.387 208.85 81.263C205.812 80.194 204.712 78.627 205.55 76.563C205.987 75.936 206.487 75.41 207.05 74.988C208.157 74.171 209.507 73.763 211.1 73.763C211.9 73.763 212.867 73.896 214 74.163C218.667 75.33 221 78.897 221 84.863V85.363L220 85.013L209.95 81.613ZM237.25 7.63799L236.775 6.53799L234.75 1.96299C234.758 1.92399 234.766 1.89099 234.775 1.86299C234.852 1.58499 234.994 1.40099 235.2 1.31299C235.4 1.21299 235.7 1.21299 236.1 1.31299L240.9 12.013C240.47 12.037 240.103 12.154 239.8 12.363C239.671 12.45 239.554 12.55 239.45 12.663L237.25 7.63799ZM240.65 10.363L236.6 1.21299L236.9 1.11299L241.25 10.013L240.65 10.363ZM136.25 28.562C138.025 25.484 139.741 23.318 141.4 22.062C141.736 21.809 142.069 21.592 142.4 21.412V21.462H142.5L142.9 21.412L143.2 21.262L143.3 21.162H143.85L144 21.412L144.05 21.612C144.15 22.012 144.2 22.462 144.2 22.962L144.05 24.662C143.75 28.062 142.8 31.912 141.2 36.212L136.4 47.162C132.933 54.862 128.383 63.879 122.75 74.212C122.873 73.558 122.99 72.925 123.1 72.312C123.884 68.222 124.55 64.888 125.1 62.312C128.466 47.112 132.183 35.862 136.25 28.562ZM79 57.863C79.9 57.096 80.35 57.096 80.35 57.863C80.35 57.963 79.5 58.813 77.8 60.413C76.1 62.013 75.233 62.813 75.2 62.813C75.133 62.813 75 62.779 74.8 62.713L74.75 62.363C74.75 62.196 75.133 61.713 75.9 60.913C76.634 60.18 77.117 59.73 77.35 59.563C78.017 58.83 78.566 58.263 79 57.863ZM76.15 57.463C78.95 54.963 80.35 54.046 80.35 54.713C75.117 59.58 72.483 62.013 72.45 62.013C72.117 62.013 71.95 61.863 71.95 61.563C71.95 61.363 73.35 59.996 76.15 57.463ZM73.75 62.912C74.017 62.912 74.15 63.045 74.15 63.312C74.15 63.613 73.75 63.913 72.95 64.212H72.05C71.783 64.112 71.65 63.962 71.65 63.762C71.65 63.695 71.7 63.629 71.8 63.562C72.033 63.395 72.417 63.329 72.95 63.362C73.183 63.062 73.45 62.912 73.75 62.912ZM18.95 136.962C14.844 134.068 11.944 130.518 10.25 126.312C9.05 123.356 8.45 120.073 8.45 116.463C8.45 108.697 10.733 101.963 15.3 96.263C17.136 93.952 19.244 92.043 21.625 90.538C25.618 88.012 30.377 86.604 35.9 86.312H37.4C40.867 86.312 44.4 86.979 48 88.312C51.567 89.679 55.517 91.745 59.85 94.512L70.1 101.462C76.333 105.695 81.55 108.662 85.75 110.361C87.617 111.162 89.65 111.845 91.85 112.412C91.217 117.078 89.55 121.544 86.85 125.811C83.61 130.851 79.194 135 73.6 138.261C72.984 138.621 72.35 138.971 71.7 139.311C65.167 142.712 57.134 144.412 47.6 144.412C35.467 144.412 25.917 141.929 18.95 136.962ZM194.15 117.163C191.272 116.272 189.172 114.555 187.85 112.013C187.233 110.856 186.783 109.523 186.5 108.013C186.3 106.779 186.2 105.513 186.2 104.213C186.2 101.379 186.667 98.414 187.6 95.313C188.997 90.668 191.13 86.559 194 82.988C194.273 82.644 194.557 82.302 194.85 81.964C195.55 84.297 197 86.13 199.2 87.464L219.45 94.113C218.983 95.68 218.417 97.33 217.75 99.063C217.45 99.764 217.083 100.547 216.65 101.414C216.25 102.28 215.783 103.214 215.25 104.214L210.25 111.464L208.75 112.964C207.407 114.215 206.049 115.223 204.675 115.988C202.538 117.171 200.362 117.763 198.15 117.763C196.85 117.763 195.517 117.562 194.15 117.163Z" fill="#0EA5E9"/>
<path d="M505.453 132.329L499.785 132.345L499.785 122.393L489.827 122.393L489.844 116.727L505.453 116.727L505.453 132.329Z" fill="#2C5ED6"/>
<path d="M253.579 122.063H263.122V147.788H269.636V122.063H279.179V116.632H253.579V122.063Z" fill="#353D5F"/>
<path d="M287.033 148.245C292.816 148.245 296.712 145.43 297.626 141.095L291.629 140.699C290.975 142.479 289.3 143.407 287.139 143.407C283.897 143.407 281.843 141.262 281.843 137.778V137.763H297.763V135.983C297.763 128.042 292.953 124.117 286.774 124.117C279.894 124.117 275.435 129 275.435 136.211C275.435 143.62 279.834 148.245 287.033 148.245ZM281.843 133.747C281.98 131.084 284.004 128.955 286.88 128.955C289.696 128.955 291.644 130.963 291.659 133.747H281.843Z" fill="#353D5F"/>
<path d="M306.517 148.229C309.972 148.229 312.209 146.723 313.351 144.548H313.534V147.788H319.682V132.028C319.682 126.46 314.964 124.117 309.759 124.117C304.158 124.117 300.475 126.794 299.577 131.054L305.574 131.541C306.015 129.989 307.4 128.848 309.729 128.848C311.935 128.848 313.199 129.959 313.199 131.875V131.967C313.199 133.473 311.601 133.671 307.537 134.066C302.91 134.492 298.755 136.044 298.755 141.262C298.755 145.887 302.058 148.229 306.517 148.229ZM308.374 143.757C306.38 143.757 304.95 142.829 304.95 141.049C304.95 139.223 306.456 138.326 308.739 138.006C310.155 137.809 312.468 137.474 313.244 136.957V139.436C313.244 141.886 311.22 143.757 308.374 143.757Z" fill="#353D5F"/>
<path d="M322.57 147.788H329.053V133.762C329.053 131.176 330.697 129.457 332.858 129.457C334.989 129.457 336.42 130.917 336.42 133.214V147.788H342.706V133.518C342.706 131.1 344.091 129.457 346.45 129.457C348.52 129.457 350.072 130.75 350.072 133.351V147.788H356.541V132.073C356.541 127.007 353.527 124.117 349.174 124.117C345.75 124.117 343.086 125.866 342.127 128.544H341.884C341.138 125.836 338.749 124.117 335.537 124.117C332.387 124.117 329.997 125.79 329.023 128.544H328.749V124.421H322.57V147.788Z" fill="#353D5F"/>
<path d="M378.97 131.084C378.392 126.779 374.922 124.117 369.017 124.117C363.035 124.117 359.093 126.886 359.108 131.389C359.093 134.888 361.3 137.154 365.866 138.067L369.914 138.873C371.954 139.284 372.882 140.03 372.913 141.201C372.882 142.585 371.376 143.574 369.108 143.574C366.794 143.574 365.257 142.585 364.861 140.684L358.484 141.018C359.093 145.491 362.898 148.245 369.093 148.245C375.15 148.245 379.488 145.156 379.503 140.547C379.488 137.17 377.281 135.146 372.745 134.218L368.514 133.366C366.338 132.895 365.531 132.149 365.546 131.023C365.531 129.624 367.114 128.711 369.123 128.711C371.376 128.711 372.715 129.943 373.035 131.449L378.97 131.084Z" fill="#353D5F"/>
<path d="M387.927 134.279C387.942 131.267 389.783 129.502 392.432 129.502C395.065 129.502 396.617 131.191 396.602 134.066V147.788H403.086V132.91C403.101 127.433 399.874 124.117 395.004 124.117C391.458 124.117 389.083 125.79 388.018 128.544H387.744V116.632H381.443V147.788H387.927V134.279Z" fill="#353D5F"/>
<path d="M412.712 148.229C416.166 148.229 418.404 146.723 419.545 144.548H419.728V147.788H425.877V132.028C425.877 126.46 421.159 124.117 415.953 124.117C410.352 124.117 406.669 126.794 405.771 131.054L411.768 131.541C412.209 129.989 413.594 128.848 415.923 128.848C418.13 128.848 419.393 129.959 419.393 131.875V131.967C419.393 133.473 417.795 133.671 413.731 134.066C409.104 134.492 404.949 136.044 404.949 141.262C404.949 145.887 408.252 148.229 412.712 148.229ZM414.568 143.757C412.575 143.757 411.144 142.829 411.144 141.049C411.144 139.223 412.651 138.326 414.934 138.006C416.349 137.809 418.663 137.474 419.439 136.957V139.436C419.439 141.886 417.415 143.757 414.568 143.757Z" fill="#353D5F"/>
<path d="M428.764 147.788H435.248V134.568C435.248 131.693 437.348 129.715 440.209 129.715C441.107 129.715 442.34 129.867 442.949 130.065V124.315C442.371 124.178 441.564 124.086 440.91 124.086C438.292 124.086 436.146 125.608 435.293 128.498H435.05V124.421H428.764V147.788Z" fill="#353D5F"/>
<path d="M453.724 148.245C459.508 148.245 463.404 145.43 464.317 141.095L458.321 140.699C457.666 142.479 455.992 143.407 453.831 143.407C450.589 143.407 448.534 141.262 448.534 137.778V137.763H464.454V135.983C464.454 128.042 459.645 124.117 453.465 124.117C446.586 124.117 442.126 129 442.126 136.211C442.126 143.62 446.525 148.245 453.724 148.245ZM448.534 133.747C448.671 131.084 450.695 128.955 453.572 128.955C456.388 128.955 458.336 130.963 458.351 133.747H448.534Z" fill="#353D5F"/>
<path d="M485.993 131.084C485.415 126.779 481.945 124.117 476.04 124.117C470.058 124.117 466.116 126.886 466.131 131.389C466.116 134.888 468.323 137.154 472.889 138.067L476.938 138.873C478.977 139.284 479.905 140.03 479.936 141.201C479.905 142.585 478.399 143.574 476.131 143.574C473.817 143.574 472.28 142.585 471.885 140.684L465.507 141.018C466.116 145.491 469.921 148.245 476.116 148.245C482.173 148.245 486.511 145.156 486.526 140.547C486.511 137.17 484.304 135.146 479.769 134.218L475.537 133.366C473.361 132.895 472.554 132.149 472.569 131.023C472.554 129.624 474.137 128.711 476.146 128.711C478.399 128.711 479.738 129.943 480.058 131.449L485.993 131.084Z" fill="#353D5F"/>
</svg>
