<svg width="185" height="85" viewBox="0 0 185 85" fill="none" xmlns="http://www.w3.org/2000/svg">
<g clip-path="url(#clip0_1306_424)">
<path d="M167.691 26.4299L164.199 26.44V20.3035H158.063L158.073 16.8099H167.691V26.4299Z" fill="#3A5DAE"/>
<path d="M12.5 20.0996H18.3798V35.961H22.3935V20.0996H28.2733V16.751H12.5V20.0996Z" fill="#353D5F"/>
<path d="M33.1133 36.2424C36.6768 36.2424 39.0776 34.5071 39.6401 31.8338L35.9454 31.59C35.5421 32.6874 34.5106 33.2596 33.179 33.2596C31.1816 33.2596 29.9156 31.937 29.9156 29.789V29.7797H39.7246V28.6821C39.7246 23.7859 36.7613 21.3659 32.9538 21.3659C28.7151 21.3659 25.9675 24.3768 25.9675 28.8228C25.9675 33.3908 28.6777 36.2424 33.1133 36.2424ZM29.9156 27.3034C29.9998 25.6619 31.2471 24.3487 33.0196 24.3487C34.7544 24.3487 35.9547 25.5868 35.9641 27.3034H29.9156Z" fill="#353D5F"/>
<path d="M45.1187 36.233C47.2474 36.233 48.6259 35.3044 49.3293 33.9631H49.4417V35.961H53.2304V26.2434C53.2304 22.8104 50.3233 21.3659 47.1161 21.3659C43.6651 21.3659 41.3957 23.0168 40.8424 25.6431L44.5373 25.9433C44.8091 24.9865 45.6626 24.283 47.0973 24.283C48.4571 24.283 49.2354 24.9678 49.2354 26.1496V26.2059C49.2354 27.1346 48.2509 27.2564 45.747 27.5003C42.8961 27.763 40.336 28.7197 40.336 31.937C40.336 34.7886 42.371 36.233 45.1187 36.233ZM46.2627 33.4753C45.0343 33.4753 44.1527 32.9031 44.1527 31.8057C44.1527 30.6801 45.0811 30.1267 46.4879 29.9297C47.36 29.8078 48.7853 29.6014 49.2636 29.2826V30.8114C49.2636 32.3216 48.0164 33.4753 46.2627 33.4753Z" fill="#353D5F"/>
<path d="M55.0093 35.961H59.0043V27.3127C59.0043 25.7182 60.017 24.6582 61.3487 24.6582C62.6616 24.6582 63.543 25.5587 63.543 26.9751V35.961H67.416V27.1627C67.416 25.6713 68.2694 24.6582 69.723 24.6582C70.9983 24.6582 71.9549 25.4555 71.9549 27.0594V35.961H75.9403V26.2716C75.9403 23.1481 74.0836 21.3659 71.4016 21.3659C69.2916 21.3659 67.6504 22.4446 67.0597 24.0954H66.9096C66.4502 22.4258 64.9779 21.3659 62.9991 21.3659C61.058 21.3659 59.5856 22.3977 58.9854 24.0954H58.8167V21.5535H55.0093V35.961Z" fill="#353D5F"/>
<path d="M89.7603 25.6619C89.4039 23.0074 87.2658 21.3659 83.6273 21.3659C79.9418 21.3659 77.513 23.073 77.5224 25.8495C77.513 28.0068 78.8727 29.4044 81.686 29.9673L84.1806 30.4644C85.4371 30.7177 86.0091 31.1773 86.028 31.8996C86.0091 32.7531 85.0808 33.3627 83.6836 33.3627C82.2581 33.3627 81.311 32.7531 81.0671 31.5806L77.1378 31.787C77.513 34.5446 79.8574 36.2424 83.6741 36.2424C87.4064 36.2424 90.0791 34.3383 90.0884 31.4961C90.0791 29.4138 88.7193 28.1663 85.9248 27.5941L83.3178 27.0688C81.9767 26.7781 81.4797 26.3184 81.4891 25.6244C81.4797 24.7614 82.455 24.1986 83.6928 24.1986C85.0808 24.1986 85.906 24.9584 86.103 25.887L89.7603 25.6619Z" fill="#353D5F"/>
<path d="M95.2786 27.6317C95.288 25.7745 96.4227 24.6864 98.0544 24.6864C99.6767 24.6864 100.633 25.7276 100.624 27.5003V35.961H104.619V26.7874C104.628 23.4107 102.64 21.3659 99.6391 21.3659C97.4541 21.3659 95.9913 22.3977 95.3349 24.0955H95.166V16.751H91.2837V35.961H95.2786V27.6317Z" fill="#353D5F"/>
<path d="M110.55 36.233C112.678 36.233 114.057 35.3044 114.76 33.9631H114.873V35.961H118.661V26.2434C118.661 22.8104 115.754 21.3659 112.547 21.3659C109.096 21.3659 106.827 23.0168 106.273 25.6431L109.968 25.9433C110.24 24.9865 111.094 24.283 112.528 24.283C113.888 24.283 114.667 24.9678 114.667 26.1496V26.2059C114.667 27.1346 113.682 27.2564 111.178 27.5003C108.327 27.763 105.767 28.7197 105.767 31.937C105.767 34.7886 107.802 36.233 110.55 36.233ZM111.694 33.4753C110.465 33.4753 109.584 32.9031 109.584 31.8057C109.584 30.6801 110.512 30.1267 111.919 29.9297C112.791 29.8078 114.216 29.6014 114.695 29.2826V30.8114C114.695 32.3216 113.447 33.4753 111.694 33.4753Z" fill="#353D5F"/>
<path d="M120.44 35.961H124.435V27.8099C124.435 26.0371 125.729 24.8177 127.492 24.8177C128.046 24.8177 128.805 24.9115 129.18 25.0335V21.4879C128.824 21.4035 128.327 21.3472 127.924 21.3472C126.311 21.3472 124.989 22.2852 124.463 24.0673H124.313V21.5535H120.44V35.961Z" fill="#353D5F"/>
<path d="M135.819 36.2424C139.383 36.2424 141.784 34.5071 142.346 31.8338L138.651 31.59C138.248 32.6874 137.217 33.2596 135.885 33.2596C133.888 33.2596 132.622 31.937 132.622 29.789V29.7797H142.431V28.6821C142.431 23.7859 139.467 21.3659 135.66 21.3659C131.421 21.3659 128.674 24.3768 128.674 28.8228C128.674 33.3908 131.384 36.2424 135.819 36.2424ZM132.622 27.3034C132.706 25.6619 133.953 24.3487 135.726 24.3487C137.46 24.3487 138.661 25.5868 138.67 27.3034H132.622Z" fill="#353D5F"/>
<path d="M155.701 25.6619C155.346 23.0074 153.207 21.3659 149.569 21.3659C145.883 21.3659 143.455 23.073 143.464 25.8495C143.455 28.0068 144.814 29.4044 147.628 29.9673L150.122 30.4644C151.379 30.7177 151.951 31.1773 151.97 31.8996C151.951 32.7531 151.022 33.3627 149.625 33.3627C148.2 33.3627 147.253 32.7531 147.009 31.5806L143.08 31.787C143.455 34.5446 145.799 36.2424 149.616 36.2424C153.348 36.2424 156.021 34.3383 156.03 31.4961C156.021 29.4138 154.661 28.1663 151.866 27.5941L149.259 27.0688C147.918 26.7781 147.421 26.3184 147.431 25.6244C147.421 24.7614 148.397 24.1986 149.635 24.1986C151.022 24.1986 151.848 24.9584 152.045 25.887L155.701 25.6619Z" fill="#353D5F"/>
</g>
<path d="M15.731 67.2857H10.6174V49.8312H16.0379C17.7026 49.8312 19.1259 50.1778 20.3077 50.8709C21.4952 51.5641 22.4043 52.5584 23.035 53.8539C23.6657 55.1493 23.981 56.7033 23.981 58.5158C23.981 60.3454 23.6572 61.9164 23.0094 63.2289C22.3674 64.5357 21.4299 65.5385 20.1969 66.2374C18.9697 66.9363 17.481 67.2857 15.731 67.2857ZM12.2111 65.8539H15.6373C17.1373 65.8539 18.393 65.5584 19.4043 64.9675C20.4157 64.3766 21.1742 63.5329 21.6799 62.4363C22.1856 61.3397 22.4384 60.0329 22.4384 58.5158C22.4327 57.0101 22.1827 55.7147 21.6884 54.6295C21.1998 53.5442 20.4725 52.7118 19.5066 52.1323C18.5464 51.5528 17.3589 51.263 15.9441 51.263H12.2111V65.8539ZM32.2212 67.5584C30.9996 67.5584 29.9428 67.2743 29.0508 66.7062C28.1587 66.1323 27.4684 65.3397 26.9798 64.3283C26.4968 63.3113 26.2553 62.1408 26.2553 60.817C26.2553 59.4988 26.4968 58.3283 26.9798 57.3056C27.4684 56.2772 28.1417 55.4732 28.9996 54.8937C29.8633 54.3084 30.8604 54.0158 31.9911 54.0158C32.7013 54.0158 33.386 54.1465 34.0451 54.4079C34.7042 54.6635 35.2951 55.0584 35.8178 55.5925C36.3462 56.1209 36.7638 56.7885 37.0707 57.5954C37.3775 58.3965 37.5309 59.3454 37.5309 60.442V61.192H27.3036V59.8539H35.9798C35.9798 59.013 35.8093 58.2573 35.4684 57.5868C35.1332 56.9107 34.6644 56.3766 34.0621 55.9846C33.4656 55.5925 32.7752 55.3965 31.9911 55.3965C31.1616 55.3965 30.4315 55.6181 29.8008 56.0613C29.1701 56.5045 28.6758 57.0897 28.3178 57.817C27.9656 58.5442 27.7866 59.3397 27.7809 60.2033V61.0045C27.7809 62.0442 27.9599 62.9533 28.3178 63.7317C28.6815 64.5045 29.1957 65.1039 29.8604 65.53C30.5252 65.9562 31.3121 66.1692 32.2212 66.1692C32.8406 66.1692 33.3832 66.0726 33.8491 65.8795C34.3207 65.6863 34.7156 65.4278 35.0337 65.1039C35.3576 64.7743 35.6019 64.4135 35.7667 64.0215L37.207 64.4903C37.0082 65.0414 36.6815 65.5499 36.2269 66.0158C35.7781 66.4817 35.2156 66.8567 34.5394 67.1408C33.869 67.4192 33.0962 67.5584 32.2212 67.5584ZM49.0694 57.067L47.6802 57.459C47.5438 57.067 47.3506 56.7118 47.1006 56.3937C46.8506 56.0755 46.5239 55.8226 46.1205 55.6351C45.7228 55.4476 45.2285 55.3539 44.6376 55.3539C43.7512 55.3539 43.0239 55.5641 42.4558 55.9846C41.8876 56.405 41.6035 56.9476 41.6035 57.6124C41.6035 58.1749 41.7967 58.6323 42.183 58.9846C42.5751 59.3312 43.1773 59.6067 43.9898 59.8113L45.9671 60.2971C47.0637 60.5641 47.8847 60.9874 48.4302 61.567C48.9813 62.1465 49.2569 62.8738 49.2569 63.7488C49.2569 64.4874 49.0523 65.1437 48.6433 65.7175C48.2342 66.2914 47.6631 66.7431 46.9302 67.0726C46.2029 67.3965 45.3592 67.5584 44.3989 67.5584C43.1205 67.5584 42.0665 67.2715 41.237 66.6976C40.4075 66.1181 39.8762 65.2829 39.6433 64.192L41.1006 63.834C41.2881 64.6124 41.6546 65.2005 42.2001 65.5982C42.7512 65.9959 43.4756 66.1948 44.3734 66.1948C45.379 66.1948 46.183 65.9704 46.7853 65.5215C47.3876 65.067 47.6887 64.4988 47.6887 63.817C47.6887 63.2885 47.5126 62.8454 47.1603 62.4874C46.808 62.1238 46.2739 61.8567 45.558 61.6863L43.4188 61.1749C42.2825 60.9022 41.4415 60.4704 40.8961 59.8795C40.3506 59.2885 40.0779 58.5556 40.0779 57.6806C40.0779 56.959 40.2739 56.3255 40.666 55.78C41.058 55.2289 41.5978 54.7971 42.2853 54.4846C42.9728 54.1721 43.7569 54.0158 44.6376 54.0158C45.8364 54.0158 46.7938 54.2885 47.5097 54.834C48.2313 55.3738 48.7512 56.1181 49.0694 57.067ZM51.9957 67.2857V54.1948H53.5212V67.2857H51.9957ZM52.7712 51.9448C52.4587 51.9448 52.1917 51.8397 51.9701 51.6295C51.7485 51.4135 51.6377 51.155 51.6377 50.8539C51.6377 50.5528 51.7485 50.2971 51.9701 50.0868C52.1917 49.8709 52.4587 49.763 52.7712 49.763C53.0837 49.763 53.3508 49.8709 53.5724 50.0868C53.794 50.2971 53.9048 50.5528 53.9048 50.8539C53.9048 51.155 53.794 51.4135 53.5724 51.6295C53.3508 51.8397 53.0837 51.9448 52.7712 51.9448ZM61.9276 72.4675C61.0356 72.4675 60.2543 72.351 59.5839 72.1181C58.9134 71.8908 58.3481 71.5783 57.8879 71.1806C57.4276 70.7829 57.0697 70.3368 56.814 69.8425L58.0583 69.0243C58.2458 69.3539 58.4958 69.6778 58.8083 69.9959C59.1265 70.3141 59.5384 70.5783 60.0441 70.7885C60.5555 70.9988 61.1833 71.1039 61.9276 71.1039C63.0867 71.1039 64.0214 70.8141 64.7316 70.2346C65.4475 69.655 65.8055 68.7545 65.8055 67.5329V64.584H65.6691C65.493 64.9817 65.2401 65.3795 64.9106 65.7772C64.581 66.1692 64.1492 66.4959 63.6151 66.7573C63.0867 67.0187 62.4305 67.1493 61.6464 67.1493C60.6009 67.1493 59.6719 66.8908 58.8594 66.3738C58.0526 65.8567 57.4163 65.1181 56.9504 64.1579C56.4901 63.192 56.26 62.0414 56.26 60.7062C56.26 59.3823 56.4844 58.2175 56.9333 57.2118C57.3879 56.2062 58.0214 55.4221 58.8339 54.8596C59.6464 54.2971 60.5924 54.0158 61.6719 54.0158C62.4731 54.0158 63.1379 54.1579 63.6663 54.442C64.1947 54.7204 64.618 55.067 64.9361 55.4817C65.26 55.8965 65.5129 56.2999 65.6947 56.692H65.8481V54.1948H67.331V67.6266C67.331 68.7346 67.0952 69.6465 66.6236 70.3624C66.1521 71.0783 65.51 71.6067 64.6975 71.9476C63.885 72.2942 62.9617 72.4675 61.9276 72.4675ZM61.8254 65.7601C62.6663 65.7601 63.385 65.5584 63.9816 65.155C64.5782 64.7459 65.0356 64.1607 65.3538 63.3993C65.6719 62.638 65.831 61.7317 65.831 60.6806C65.831 59.6579 65.6748 58.7516 65.3623 57.9618C65.0498 57.1664 64.5952 56.5414 63.9986 56.0868C63.4077 55.6266 62.6833 55.3965 61.8254 55.3965C60.9504 55.3965 60.2117 55.6323 59.6094 56.1039C59.0072 56.5755 58.5526 57.2118 58.2458 58.013C57.939 58.8084 57.7856 59.6976 57.7856 60.6806C57.7856 61.6806 57.9418 62.5641 58.2543 63.3312C58.5668 64.0925 59.0242 64.6891 59.6265 65.1209C60.2288 65.5471 60.9617 65.7601 61.8254 65.7601ZM72.2644 59.1039V67.2857H70.7474V54.1948H72.2218V56.2488H72.3582C72.665 55.5783 73.1423 55.0414 73.79 54.638C74.4434 54.2289 75.2502 54.0243 76.2104 54.0243C77.0911 54.0243 77.8638 54.209 78.5286 54.5783C79.1991 54.942 79.719 55.4789 80.0883 56.1891C80.4633 56.8993 80.6508 57.7715 80.6508 58.8056V67.2857H79.1337V58.8993C79.1337 57.8255 78.8326 56.976 78.2303 56.351C77.6337 55.726 76.8326 55.4135 75.8269 55.4135C75.1394 55.4135 74.5286 55.5613 73.9945 55.8567C73.4604 56.1522 73.0371 56.5783 72.7246 57.1351C72.4178 57.6863 72.2644 58.3425 72.2644 59.1039ZM99.9884 54.1948C99.8918 53.2232 99.4629 52.4505 98.7015 51.8766C97.9401 51.3028 96.9827 51.0158 95.8293 51.0158C95.0168 51.0158 94.3009 51.155 93.6816 51.4334C93.068 51.7118 92.585 52.0982 92.2327 52.5925C91.8862 53.0812 91.7129 53.638 91.7129 54.263C91.7129 54.7232 91.8123 55.1266 92.0112 55.4732C92.21 55.8198 92.4771 56.1181 92.8123 56.3681C93.1532 56.6124 93.5282 56.8226 93.9373 56.9988C94.3521 57.1749 94.7697 57.3226 95.1901 57.442L97.031 57.9704C97.5879 58.1238 98.1447 58.3198 98.7015 58.5584C99.2583 58.7971 99.7668 59.0982 100.227 59.4618C100.693 59.8198 101.065 60.2601 101.344 60.7829C101.628 61.2999 101.77 61.9221 101.77 62.6493C101.77 63.5812 101.528 64.4192 101.045 65.1635C100.562 65.9079 99.8691 66.4988 98.9657 66.9363C98.0623 67.3681 96.9799 67.584 95.7185 67.584C94.531 67.584 93.4998 67.388 92.6248 66.9959C91.7498 66.5982 91.0623 66.0499 90.5623 65.351C90.0623 64.6522 89.781 63.8425 89.7185 62.9221H91.3549C91.4117 63.6096 91.639 64.192 92.0367 64.6692C92.4344 65.1465 92.9515 65.5101 93.5879 65.7601C94.2242 66.0045 94.9344 66.1266 95.7185 66.1266C96.5879 66.1266 97.3606 65.9817 98.0367 65.692C98.7185 65.3965 99.2526 64.9874 99.639 64.4647C100.031 63.9363 100.227 63.3226 100.227 62.6238C100.227 62.0329 100.074 61.5385 99.7668 61.1408C99.46 60.7374 99.031 60.3993 98.4799 60.1266C97.9344 59.8539 97.3009 59.6124 96.5793 59.4022L94.4913 58.7885C93.1219 58.3795 92.0594 57.8141 91.3038 57.0925C90.5481 56.3709 90.1702 55.4505 90.1702 54.3312C90.1702 53.3937 90.4202 52.5698 90.9202 51.8596C91.4259 51.1437 92.1077 50.5868 92.9657 50.1891C93.8293 49.7857 94.7981 49.584 95.8719 49.584C96.9572 49.584 97.9174 49.7829 98.7526 50.1806C99.5879 50.5783 100.25 51.1266 100.738 51.8255C101.233 52.5187 101.497 53.3084 101.531 54.1948H99.9884ZM105.746 72.1948C105.445 72.1948 105.164 72.1664 104.903 72.1096C104.641 72.0528 104.434 71.9903 104.28 71.9221L104.69 70.584C105.207 70.7431 105.667 70.7999 106.07 70.7545C106.474 70.7147 106.832 70.5329 107.144 70.209C107.457 69.8908 107.735 69.4022 107.979 68.7431L108.457 67.4135L103.641 54.1948H105.286L109.173 65.2829H109.292L113.178 54.1948H114.823L109.283 69.3567C109.05 69.9874 108.763 70.513 108.423 70.9334C108.082 71.3596 107.687 71.6749 107.238 71.8795C106.795 72.0897 106.298 72.1948 105.746 72.1948ZM125.987 57.067L124.597 57.459C124.461 57.067 124.268 56.7118 124.018 56.3937C123.768 56.0755 123.441 55.8226 123.038 55.6351C122.64 55.4476 122.146 55.3539 121.555 55.3539C120.668 55.3539 119.941 55.5641 119.373 55.9846C118.805 56.405 118.521 56.9476 118.521 57.6124C118.521 58.1749 118.714 58.6323 119.1 58.9846C119.492 59.3312 120.095 59.6067 120.907 59.8113L122.884 60.2971C123.981 60.5641 124.802 60.9874 125.347 61.567C125.899 62.1465 126.174 62.8738 126.174 63.7488C126.174 64.4874 125.97 65.1437 125.56 65.7175C125.151 66.2914 124.58 66.7431 123.847 67.0726C123.12 67.3965 122.276 67.5584 121.316 67.5584C120.038 67.5584 118.984 67.2715 118.154 66.6976C117.325 66.1181 116.793 65.2829 116.56 64.192L118.018 63.834C118.205 64.6124 118.572 65.2005 119.117 65.5982C119.668 65.9959 120.393 66.1948 121.291 66.1948C122.296 66.1948 123.1 65.9704 123.702 65.5215C124.305 65.067 124.606 64.4988 124.606 63.817C124.606 63.2885 124.43 62.8454 124.077 62.4874C123.725 62.1238 123.191 61.8567 122.475 61.6863L120.336 61.1749C119.2 60.9022 118.359 60.4704 117.813 59.8795C117.268 59.2885 116.995 58.5556 116.995 57.6806C116.995 56.959 117.191 56.3255 117.583 55.78C117.975 55.2289 118.515 54.7971 119.202 54.4846C119.89 54.1721 120.674 54.0158 121.555 54.0158C122.754 54.0158 123.711 54.2885 124.427 54.834C125.149 55.3738 125.668 56.1181 125.987 57.067ZM134.052 54.1948V55.5158H127.805V54.1948H134.052ZM129.757 51.0584H131.282V63.8681C131.282 64.4135 131.376 64.8425 131.563 65.155C131.751 65.4618 131.995 65.6806 132.296 65.8113C132.598 65.9363 132.919 65.9988 133.259 65.9988C133.458 65.9988 133.629 65.9874 133.771 65.9647C133.913 65.9363 134.038 65.9079 134.146 65.8795L134.47 67.2516C134.322 67.3084 134.14 67.3596 133.924 67.405C133.708 67.4562 133.441 67.4817 133.123 67.4817C132.566 67.4817 132.029 67.3596 131.512 67.1153C131.001 66.8709 130.58 66.5073 130.251 66.0243C129.921 65.5414 129.757 64.942 129.757 64.226V51.0584ZM142.049 67.5584C140.828 67.5584 139.771 67.2743 138.879 66.7062C137.987 66.1323 137.297 65.3397 136.808 64.3283C136.325 63.3113 136.083 62.1408 136.083 60.817C136.083 59.4988 136.325 58.3283 136.808 57.3056C137.297 56.2772 137.97 55.4732 138.828 54.8937C139.691 54.3084 140.689 54.0158 141.819 54.0158C142.529 54.0158 143.214 54.1465 143.873 54.4079C144.532 54.6635 145.123 55.0584 145.646 55.5925C146.174 56.1209 146.592 56.7885 146.899 57.5954C147.206 58.3965 147.359 59.3454 147.359 60.442V61.192H137.132V59.8539H145.808C145.808 59.013 145.637 58.2573 145.297 57.5868C144.961 56.9107 144.493 56.3766 143.89 55.9846C143.294 55.5925 142.603 55.3965 141.819 55.3965C140.99 55.3965 140.26 55.6181 139.629 56.0613C138.998 56.5045 138.504 57.0897 138.146 57.817C137.794 58.5442 137.615 59.3397 137.609 60.2033V61.0045C137.609 62.0442 137.788 62.9533 138.146 63.7317C138.51 64.5045 139.024 65.1039 139.689 65.53C140.353 65.9562 141.14 66.1692 142.049 66.1692C142.669 66.1692 143.211 66.0726 143.677 65.8795C144.149 65.6863 144.544 65.4278 144.862 65.1039C145.186 64.7743 145.43 64.4135 145.595 64.0215L147.035 64.4903C146.836 65.0414 146.51 65.5499 146.055 66.0158C145.606 66.4817 145.044 66.8567 144.368 67.1408C143.697 67.4192 142.924 67.5584 142.049 67.5584ZM150.102 67.2857V54.1948H151.576V56.2062H151.713C151.974 55.53 152.409 54.9988 153.017 54.6124C153.63 54.2204 154.366 54.0243 155.224 54.0243C156.128 54.0243 156.869 54.2374 157.449 54.6635C158.034 55.084 158.471 55.6635 158.761 56.4022H158.872C159.167 55.6749 159.648 55.0982 160.312 54.6721C160.983 54.2403 161.795 54.0243 162.75 54.0243C163.966 54.0243 164.926 54.4079 165.63 55.1749C166.335 55.9363 166.687 57.0499 166.687 58.5158V67.2857H165.17V58.5158C165.17 57.4817 164.906 56.7062 164.378 56.1891C163.849 55.6721 163.153 55.4135 162.29 55.4135C161.29 55.4135 160.52 55.7204 159.98 56.334C159.44 56.9476 159.17 57.726 159.17 58.6692V67.2857H157.619V58.3795C157.619 57.4931 157.372 56.7772 156.878 56.2317C156.383 55.6863 155.687 55.4135 154.79 55.4135C154.187 55.4135 153.645 55.5613 153.162 55.8567C152.684 56.1522 152.307 56.5641 152.028 57.0925C151.755 57.6153 151.619 58.2175 151.619 58.8993V67.2857H150.102Z" fill="#3A5DAE"/>
<defs>
<clipPath id="clip0_1306_424">
<rect width="160" height="24.2857" fill="white" transform="translate(12.5 12)"/>
</clipPath>
</defs>
</svg>
