<svg viewBox="0 0 516 154" version="1.1" xmlns="http://www.w3.org/2000/svg" xmlns:xlink="http://www.w3.org/1999/xlink">
  <g stroke="none" stroke-width="1" fill="none" fill-rule="evenodd">
    <g fill-rule="nonzero" fill="#0ea5e9">
      <path d="M374.875,66.088 C375.012,65.987 375.153,65.896 375.3,65.813 C376.033,65.347 376.783,65.113 377.55,65.113 C378.35,65.113 379.166,65.446 380,66.113 C381.233,67.113 381.85,68.413 381.85,70.013 L381.85,70.563 C381.794,71.119 381.695,71.752 381.55,72.463 C381.261,73.907 380.794,75.673 380.15,77.763 L377.85,84.863 C375.317,94.13 373.951,101.513 373.75,107.013 L373.75,108.163 C373.75,111.362 374.116,113.812 374.85,115.513 C375.002,115.884 375.185,116.209 375.4,116.488 C376.03,117.331 376.93,117.789 378.1,117.863 L378.4,117.863 C379.468,117.863 380.56,117.572 381.675,116.988 C382.553,116.522 383.445,115.881 384.35,115.063 C385.05,114.397 385.883,113.48 386.85,112.313 L388.9,109.563 C390.534,107.363 392.217,104.763 393.951,101.763 L398.65,93.663 C398.717,93.562 398.784,93.463 398.85,93.362 C399.083,92.529 399.35,91.713 399.65,90.913 C401.751,85.18 404.633,80.213 408.3,76.013 C410.656,73.35 413.206,71.158 415.95,69.438 C417.976,68.173 420.11,67.165 422.349,66.413 C424.849,65.646 427.2,65.263 429.399,65.263 C432.233,65.263 434.899,65.88 437.399,67.113 C442.2,69.513 444.916,73.53 445.549,79.163 L445.549,79.763 L445.549,79.888 C445.523,80.862 445.172,81.654 444.499,82.263 C444.182,82.58 443.807,82.822 443.374,82.988 C442.887,83.172 442.328,83.263 441.699,83.263 C440.499,83.263 439.466,82.913 438.598,82.213 C437.631,81.446 437.081,80.43 436.949,79.163 C436.716,76.83 435.466,75.263 433.199,74.463 C432.098,74.063 430.898,73.863 429.598,73.863 C428.732,73.863 427.765,73.963 426.699,74.163 C424.532,74.622 422.448,75.489 420.449,76.763 C418.229,78.18 416.113,80.096 414.098,82.513 C410.965,86.246 408.648,90.43 407.148,95.063 C406.148,98.129 405.648,101.046 405.648,103.813 C405.648,105.68 405.881,107.497 406.348,109.263 C406.592,110.195 406.909,111.053 407.298,111.838 C408.751,114.684 411.218,116.526 414.698,117.362 C415.998,117.696 417.347,117.862 418.748,117.862 C421.481,117.862 424.215,117.213 426.948,115.913 C427.792,115.511 428.626,115.069 429.448,114.588 C436.582,110.466 443.032,103.49 448.798,93.663 C448.864,93.529 448.948,93.413 449.048,93.312 C449.081,93.146 449.131,92.979 449.198,92.812 C451.831,84.779 455.998,78.162 461.698,72.962 C463.338,71.459 465.005,70.176 466.698,69.112 C470.738,66.579 474.922,65.312 479.248,65.312 L481.448,65.412 C485.314,65.712 488.514,67.279 491.048,70.112 C493.449,72.77 494.699,75.92 494.798,79.562 L494.798,80.012 L494.798,80.262 C494.798,85.229 492.948,90.029 489.248,94.662 C487.043,97.449 484.526,99.649 481.698,101.262 C478.537,103.045 474.986,104.095 471.048,104.412 L468.548,104.512 C464.381,104.512 460.198,103.712 455.998,102.112 L455.948,103.062 L455.897,104.413 C455.897,107.527 456.439,110.119 457.522,112.187 C458.155,113.366 458.963,114.375 459.948,115.212 C461.781,116.679 464.048,117.562 466.748,117.861 L468.647,117.912 C470.547,117.912 472.364,117.628 474.097,117.061 C476.035,116.472 477.952,115.63 479.847,114.537 C482.768,112.86 485.634,110.585 488.448,107.712 C492.248,103.878 495.731,99.229 498.897,93.762 C498.998,93.628 499.097,93.495 499.198,93.362 C504.198,84.396 506.748,74.695 506.847,64.262 L506.847,63.712 C506.847,52.579 503.897,43.212 497.997,35.612 C492.063,28.045 483.547,23.379 472.447,21.612 C468.913,21.145 465.013,20.912 460.747,20.912 L448.947,21.312 C441.113,21.645 433.23,22.295 425.297,23.262 C414.264,24.529 400.897,26.945 385.197,30.512 L345.547,40.112 C337.413,41.979 329.714,43.495 322.447,44.662 C322.38,44.817 322.313,44.975 322.247,45.137 C321.759,46.246 321.209,47.471 320.597,48.812 L316.997,56.362 C311.497,67.762 304.181,81.412 295.047,97.312 C295.228,102.921 295.994,107.613 297.347,111.387 C297.492,111.792 297.642,112.184 297.797,112.562 C298.663,114.496 299.647,115.946 300.747,116.913 C301.113,117.213 301.514,117.446 301.947,117.612 C302.413,117.812 302.846,117.913 303.247,117.913 L303.747,117.862 C304.493,117.745 305.226,117.503 305.947,117.137 C307.061,116.561 308.144,115.686 309.197,114.512 L312.247,110.462 L313.097,109.111 C314.464,107.011 315.948,104.462 317.547,101.462 L321.847,93.662 C321.981,93.429 322.147,93.212 322.347,93.012 C324.681,86.512 328.33,80.696 333.297,75.562 C335.697,73.078 338.164,71.044 340.697,69.462 C345.171,66.662 349.854,65.262 354.747,65.262 L355.097,65.262 C361.985,65.325 367.001,68.517 370.147,74.837 C370.299,75.154 370.45,75.479 370.597,75.812 L372.797,69.412 L373.397,68.062 C373.804,67.201 374.296,66.542 374.875,66.088 Z M347.725,115.838 C350.551,114.257 353.26,111.748 355.85,108.313 C357.951,105.513 360.017,102.08 362.05,98.013 C362.984,95.98 363.75,94.246 364.35,92.813 L366.3,88.063 C366.9,86.664 367.5,85.013 368.1,83.113 L367.4,83.214 C366.8,83.214 366.184,83.08 365.55,82.814 C364.416,82.347 363.633,81.498 363.2,80.264 C362.066,77.031 360.033,75.014 357.099,74.214 C356.299,73.981 355.366,73.864 354.299,73.864 C352.399,73.864 350.365,74.331 348.199,75.264 C346.981,75.784 345.806,76.4 344.674,77.114 C340.27,79.898 336.479,84.164 333.299,89.914 C331.999,92.181 330.966,94.597 330.199,97.164 C329.232,100.197 328.716,103.03 328.648,105.664 L328.648,106.363 C328.648,109.139 329.182,111.415 330.249,113.188 C331.622,115.468 333.872,116.926 336.999,117.563 C338.065,117.763 339.132,117.863 340.199,117.863 C342.793,117.862 345.302,117.188 347.725,115.838 Z M397.325,112.987 C397.134,113.262 396.942,113.538 396.75,113.812 C393.337,118.703 389.771,122.195 386.05,124.288 C385.161,124.795 384.261,125.221 383.35,125.562 C381.75,126.163 380.184,126.462 378.65,126.462 C377.217,126.462 375.734,126.195 374.201,125.662 C371.1,124.561 368.817,122.578 367.35,119.712 C366.05,117.111 365.317,114.028 365.15,110.462 L365.15,109.512 C364.819,110.022 364.486,110.522 364.15,111.012 C360.909,115.717 357.475,119.384 353.85,122.012 C353.154,122.5 352.446,122.95 351.725,123.362 C348.097,125.429 344.222,126.463 340.1,126.463 C339.166,126.463 338.067,126.379 336.8,126.213 C330.067,125.346 325.283,122.23 322.45,116.862 C321.849,115.729 321.366,114.562 321,113.362 C320.729,113.783 320.463,114.183 320.2,114.562 C319.878,115.041 319.56,115.492 319.25,115.913 C316.431,120.016 313.48,122.924 310.399,124.638 C308.2,125.855 305.933,126.463 303.599,126.463 L303.2,126.463 C297.166,126.263 292.683,122.579 289.75,115.413 C288.85,113.079 288.116,110.562 287.55,107.862 C287.255,108.236 286.955,108.602 286.65,108.963 C283.646,112.628 280.446,115.795 277.05,118.463 C275.303,119.833 273.553,121.025 271.8,122.038 C266.728,124.987 261.627,126.463 256.5,126.463 C255.367,126.463 254.017,126.346 252.45,126.112 C244.384,124.845 239.083,120.812 236.55,114.012 C235.817,112.078 235.35,110.029 235.15,107.862 L236.1,99.612 L227.65,96.812 C227.565,97.093 227.473,97.376 227.375,97.663 C226.732,99.678 225.957,101.694 225.05,103.713 L219.55,113.413 C216.304,117.998 212.713,121.415 208.775,123.663 C208.305,123.928 207.83,124.178 207.35,124.413 C204.517,125.779 201.583,126.463 198.55,126.463 C197.15,126.463 195.583,126.296 193.85,125.963 C188.95,124.93 185.083,122.612 182.25,119.013 C180.65,117.046 179.466,114.813 178.7,112.313 C178.634,112.379 178.567,112.463 178.5,112.563 C178.296,112.884 178.096,113.201 177.9,113.513 C175.22,117.596 172.686,120.629 170.3,122.613 C169.314,123.421 168.322,124.104 167.325,124.664 C165.158,125.863 162.966,126.464 160.75,126.464 C160.017,126.464 159.183,126.38 158.25,126.214 C152.983,125.214 150.017,121.564 149.35,115.264 C149.25,114.364 149.2,113.414 149.2,112.414 C149.2,108.247 149.983,103.264 151.55,97.464 L154.05,88.613 C155.05,85.18 155.75,82.28 156.15,79.914 C156.35,78.68 156.45,77.43 156.45,76.164 L156.45,75.464 C156.45,74.43 156.35,73.864 156.15,73.764 C156.017,73.697 155.883,73.664 155.75,73.664 C155.45,73.664 154.966,73.881 154.3,74.314 L154.175,74.414 L152.35,76.014 C150.617,77.447 148.634,79.63 146.4,82.564 C142.833,87.13 138.9,93.064 134.6,100.364 C132.9,103.298 131.167,106.398 129.4,109.665 L122.9,121.665 C122.4,122.564 121.833,123.432 121.2,124.265 C120.498,125.123 119.748,125.732 118.95,126.09 C118.392,126.34 117.809,126.465 117.2,126.465 C116.767,126.465 116.35,126.399 115.95,126.265 C114.35,125.865 113.134,124.798 112.3,123.065 C111.7,121.798 111.25,120.166 110.95,118.166 C110.55,115.365 110.35,112.266 110.35,108.865 L110.35,108.515 C110.019,108.77 109.686,109.012 109.35,109.24 C108.792,109.629 108.225,109.987 107.65,110.315 C105.369,111.616 102.969,112.432 100.45,112.765 C100.432,112.915 100.415,113.066 100.4,113.215 C99.548,119.776 97.265,125.825 93.55,131.364 C89.782,136.912 84.924,141.421 78.975,144.889 C77.35,145.844 75.642,146.719 73.85,147.514 C65.55,151.214 56.567,153.064 46.9,153.064 C33.567,152.931 22.75,149.931 14.45,144.064 C4.816,137.263 0,128.213 0,116.913 L0,115.362 C0.333,107.663 2.6,100.362 6.8,93.463 C9.369,89.215 12.677,85.823 16.725,83.288 C19.194,81.746 21.935,80.52 24.95,79.612 C29.05,78.412 33.167,77.812 37.3,77.812 C41.567,77.812 45.967,78.596 50.5,80.163 C55.033,81.729 60.15,84.43 65.85,88.263 L80.7,98.213 C84.389,100.623 87.79,102.34 90.9,103.362 C91.268,103.492 91.635,103.609 92,103.713 C91.3,96.813 88.8,90.913 84.5,86.013 C80.2,81.046 74.716,77.413 68.05,75.113 L61.65,72.913 C55.783,70.847 51.417,68.813 48.55,66.813 C40.817,61.58 36.517,54.396 35.65,45.263 L35.5,42.563 C35.5,33.763 39.066,26.396 46.2,20.463 C47.443,19.428 48.735,18.495 50.075,17.663 C55.57,14.23 61.845,12.513 68.9,12.513 C75.5,12.513 81.417,14.413 86.65,18.213 C91.757,21.93 94.716,27.155 95.525,33.888 C95.554,34.093 95.579,34.301 95.6,34.513 L95.75,37.263 C95.75,42.363 94.433,46.73 91.8,50.363 C89.934,52.874 88.217,54.515 86.65,55.288 C85.955,55.638 85.289,55.813 84.65,55.813 C84.216,55.78 83.817,55.73 83.45,55.663 L82.75,56.313 L82,57.038 L74.1,64.413 C73.846,64.554 73.604,64.671 73.375,64.763 C72.268,65.171 71.493,64.904 71.05,63.963 C70.517,63.363 70.567,62.613 71.2,61.713 L71.25,61.663 C71.383,61.463 71.566,61.246 71.8,61.013 L80.5,52.813 C80.4,52.38 80.333,51.93 80.3,51.463 C80.3,50.33 80.75,49.38 81.65,48.613 C85.45,45.213 87.35,41.296 87.35,36.863 C87.35,32.463 85.683,28.763 82.35,25.763 C79.017,22.763 74.467,21.23 68.7,21.163 C63.18,21.163 58.413,22.438 54.4,24.988 C53.181,25.76 52.031,26.652 50.95,27.663 C46.317,31.996 44,37.196 44,43.263 C44,45.896 44.542,48.388 45.625,50.738 C46.565,52.768 47.907,54.693 49.65,56.513 C53.383,60.413 59.15,63.48 66.95,65.713 C69.078,66.329 71.111,67.029 73.05,67.813 C74.421,68.367 75.746,68.959 77.025,69.588 C83.161,72.667 88.152,76.708 92,81.713 C96.324,87.3 99.04,93.467 100.15,100.213 C100.355,101.476 100.505,102.759 100.6,104.063 C100.796,104.002 100.988,103.936 101.175,103.863 C101.811,103.633 102.436,103.349 103.05,103.013 C106.017,101.369 108.783,98.453 111.35,94.263 C111.384,93.93 111.417,93.579 111.45,93.213 L112.45,84.913 C114.65,68.479 117.7,54.179 121.6,42.013 L124,34.513 C125.1,31.58 126.2,28.98 127.3,26.713 C130.015,21.09 133.249,17.074 137,14.663 C137.168,14.562 137.334,14.462 137.5,14.363 C139.466,13.163 141.5,12.563 143.6,12.563 L144.6,12.663 C147.3,12.93 149.384,14.097 150.85,16.163 C152.15,18.03 152.8,20.347 152.8,23.113 L152.75,25.063 C152.583,26.63 152.316,28.213 151.95,29.813 L150.7,34.213 C148.433,41.546 144.267,51.196 138.2,63.163 C133.634,72.363 127.467,83.697 119.7,97.163 L119.5,100.463 C119.233,103.563 119.1,106.579 119.1,109.513 L119.1,110.763 C122.9,103.697 125.967,98.23 128.3,94.363 C132.533,87.297 136.433,81.464 140,76.863 C142.1,74.23 143.867,72.213 145.3,70.813 C146.595,69.519 147.895,68.452 149.2,67.613 C150.081,67.042 150.965,66.575 151.85,66.213 C153.217,65.58 154.634,65.263 156.1,65.263 C156.9,65.263 157.667,65.363 158.4,65.563 C160.733,66.13 162.483,67.413 163.65,69.413 C164.641,71.065 165.141,73.14 165.15,75.638 L165.15,75.713 L165.15,76.113 C165.15,77.246 165.033,78.413 164.8,79.613 L159.15,103.563 C158.85,104.73 158.583,105.98 158.35,107.313 C157.983,109.447 157.8,111.296 157.8,112.863 C157.8,113.763 157.833,114.414 157.9,114.813 C158.003,115.995 158.527,116.811 159.475,117.263 C159.766,117.394 160.091,117.494 160.45,117.563 L162.25,117.463 C162.605,117.397 162.914,117.305 163.175,117.188 C163.314,117.138 163.439,117.08 163.55,117.013 C165.083,116.079 166.683,114.546 168.35,112.413 L171.9,106.713 C173.167,104.579 174.4,102.413 175.6,100.213 L179.1,93.963 C179.733,91.696 180.567,89.413 181.6,87.112 C184.333,81.046 188.1,76.029 192.9,72.062 C194.009,71.16 195.143,70.351 196.3,69.637 C199.783,67.447 203.467,66.088 207.35,65.562 L209.3,65.262 C210.167,65.195 210.8,65.162 211.2,65.162 C214.233,65.162 217.217,65.895 220.15,67.362 C225.722,70.104 228.83,74.854 229.475,81.612 C229.558,82.494 229.6,83.411 229.6,84.362 L229.5,86.163 C229.466,86.829 229.417,87.496 229.35,88.163 L231.125,88.763 L237.05,90.788 L237.75,91.013 C240.35,83.813 244.283,77.796 249.55,72.963 C251.186,71.473 252.844,70.197 254.525,69.138 C258.601,66.588 262.809,65.313 267.15,65.313 L269.3,65.413 C273.166,65.713 276.366,67.28 278.9,70.113 C281.302,72.771 282.552,75.921 282.65,79.563 L282.65,80.013 L282.65,80.263 C282.65,85.23 280.8,90.03 277.1,94.663 C274.917,97.462 272.41,99.662 269.576,101.263 C266.433,103.047 262.892,104.098 258.951,104.413 L256.451,104.513 C252.951,104.513 249.434,103.947 245.901,102.813 C245.768,102.78 245.651,102.747 245.551,102.713 L244.951,102.513 C244.584,102.379 244.234,102.246 243.901,102.113 L243.901,102.164 C243.856,102.388 243.823,102.687 243.801,103.063 L243.801,103.664 L243.801,104.414 C243.801,107.528 244.343,110.12 245.426,112.188 C246.059,113.367 246.867,114.376 247.851,115.213 C249.684,116.68 251.951,117.563 254.651,117.862 L256.501,117.913 C258.435,117.913 260.268,117.629 262.001,117.062 C263.939,116.473 265.855,115.631 267.751,114.538 C270.671,112.861 273.538,110.586 276.351,107.713 C279.851,104.18 283.185,99.779 286.351,94.513 L286.351,92.663 C286.518,86.763 287.368,79.029 288.901,69.463 C290.268,61.296 291.918,53.913 293.851,47.313 L291.651,47.313 C282.252,47.313 274.551,46.347 268.551,44.413 C261.784,42.28 255.768,38.98 250.501,34.513 C244.668,29.58 240.684,24.03 238.551,17.863 C238.351,17.363 238.251,16.88 238.251,16.413 C238.251,15.746 238.434,15.146 238.801,14.613 C238.868,14.48 238.951,14.363 239.051,14.263 L238.551,13.138 L236.376,8.238 L235.851,7.063 L234.001,2.863 C233.956,2.606 233.93,2.364 233.926,2.138 C233.895,1.54 233.995,1.074 234.226,0.738 C234.469,0.38 234.86,0.172 235.401,0.113 C236.168,-0.187 236.868,0.113 237.501,1.013 L237.551,1.063 C237.684,1.263 237.818,1.513 237.951,1.813 L242.801,12.663 C243.468,12.696 244.034,12.83 244.501,13.063 C245.567,13.497 246.351,14.347 246.851,15.613 L246.901,15.863 C247.768,17.596 248.301,18.63 248.501,18.963 C250.168,21.863 252.368,24.58 255.101,27.113 C263.468,34.913 275.068,38.813 289.901,38.813 L290.252,38.813 C292.131,38.813 294.039,38.771 295.977,38.688 C296.232,38.684 296.49,38.675 296.752,38.663 C298.985,32.73 301.519,27.58 304.352,23.213 C306.052,20.546 307.769,18.429 309.502,16.863 C310.37,16.059 311.245,15.367 312.127,14.788 C313.55,13.867 314.991,13.242 316.452,12.913 C317.351,12.68 318.235,12.563 319.101,12.563 C321.601,12.563 323.685,13.48 325.351,15.313 C327.218,17.38 328.151,19.98 328.151,23.113 L328.151,23.313 L328.101,24.363 C327.834,27.763 327.101,31.413 325.901,35.313 C326.901,35.146 327.918,34.963 328.952,34.763 C329.035,34.746 329.118,34.73 329.202,34.713 C335.192,33.525 341.459,32.175 348.002,30.663 L366.852,26.013 C400.418,17.646 429.902,13.163 455.302,12.563 L458.952,12.513 C473.252,12.513 484.335,14.83 492.202,19.463 C500.835,24.463 507.151,31.846 511.151,41.613 C512.618,45.125 513.71,48.783 514.426,52.588 C515.11,56.23 515.451,60.005 515.451,63.913 C515.451,66.013 515.35,68.13 515.15,70.263 C514.184,80.129 511.3,89.329 506.501,97.863 C506.367,98.096 506.234,98.313 506.101,98.513 C501.134,106.879 495.485,113.53 489.151,118.463 C487.398,119.838 485.64,121.038 483.877,122.063 C478.823,124.997 473.748,126.463 468.651,126.463 C467.551,126.463 466.185,126.346 464.551,126.112 C456.485,124.845 451.185,120.812 448.651,114.012 C448.185,112.812 447.835,111.562 447.601,110.262 C447.297,110.615 446.99,110.964 446.676,111.312 C442.715,115.724 438.49,119.241 434.001,121.862 C432.434,122.768 430.833,123.568 429.201,124.262 C425.701,125.729 422.201,126.462 418.701,126.462 C417.301,126.462 415.834,126.328 414.301,126.062 C408.801,125.163 404.534,122.679 401.501,118.612 C399.968,116.612 398.851,114.329 398.15,111.762 C397.876,112.174 397.601,112.582 397.325,112.987 Z M461.6,94.963 C463.883,95.596 466.183,95.913 468.5,95.913 L470.6,95.862 C473.121,95.613 475.379,94.938 477.375,93.838 C479.926,92.438 482.051,90.346 483.75,87.563 C484.783,85.93 485.5,84.313 485.899,82.713 C486.132,81.879 486.25,80.996 486.25,80.063 C486.25,79.163 486.1,78.313 485.8,77.513 C484.866,75.18 482.95,73.963 480.05,73.863 L479.7,73.863 C477.5,73.863 475.217,74.429 472.849,75.563 C471.994,75.977 471.16,76.435 470.349,76.938 C466.551,79.349 463.318,82.824 460.649,87.363 C459.483,89.397 458.5,91.464 457.7,93.563 C458.992,94.131 460.292,94.597 461.6,94.963 Z M311.25,37.488 C312.597,37.331 313.964,37.156 315.35,36.963 C315.613,36.934 315.879,36.901 316.15,36.863 C316.35,36.363 316.534,35.863 316.701,35.363 L317.701,32.413 C318.1,31.113 318.384,30.097 318.551,29.363 C319.151,27.296 319.501,25.246 319.601,23.213 C319.601,22.146 319.185,21.613 318.351,21.613 L317.551,21.713 C317.041,21.849 316.508,22.124 315.951,22.538 C314.872,23.328 313.705,24.637 312.451,26.463 C310.951,28.663 309.534,31.163 308.201,33.963 C307.567,35.263 306.951,36.613 306.35,38.013 C307.958,37.86 309.592,37.686 311.25,37.488 Z M249.475,94.963 C251.756,95.596 254.048,95.913 256.35,95.913 L258.451,95.862 C260.999,95.627 263.282,94.952 265.301,93.838 C267.841,92.445 269.958,90.354 271.651,87.563 C272.718,85.897 273.418,84.28 273.752,82.713 C274.019,81.913 274.151,81.029 274.151,80.063 C274.151,79.163 274.002,78.313 273.702,77.513 C272.768,75.18 270.835,73.963 267.901,73.863 L267.601,73.863 C265.401,73.863 263.118,74.429 260.751,75.563 C259.895,75.977 259.062,76.435 258.251,76.938 C254.453,79.349 251.219,82.824 248.551,87.363 C247.351,89.397 246.368,91.464 245.601,93.563 C246.268,93.863 246.934,94.129 247.601,94.363 C248.223,94.585 248.848,94.785 249.475,94.963 Z M302.825,47.438 C300.111,55.747 298.053,65.122 296.649,75.563 L296.625,75.763 L296.399,77.413 C301.733,67.68 306.016,59.413 309.25,52.613 C310.35,50.346 311.366,48.163 312.3,46.063 C311.033,46.196 309.767,46.33 308.5,46.463 C306.6,46.63 304.767,46.779 303,46.913 C302.94,47.091 302.882,47.266 302.825,47.438 Z M208.85,81.263 C209.188,81.387 209.555,81.504 209.95,81.613 L220,85.013 L221,85.363 L221,84.863 C221,78.897 218.667,75.33 214,74.163 C212.867,73.896 211.9,73.763 211.1,73.763 C209.507,73.763 208.157,74.171 207.05,74.988 C206.487,75.41 205.987,75.936 205.55,76.563 C204.712,78.627 205.812,80.194 208.85,81.263 Z M236.775,6.538 L237.25,7.638 L239.45,12.663 C239.554,12.55 239.671,12.45 239.8,12.363 C240.103,12.154 240.47,12.037 240.9,12.013 L236.1,1.313 C235.7,1.213 235.4,1.213 235.2,1.313 C234.994,1.401 234.852,1.585 234.775,1.863 C234.766,1.891 234.758,1.924 234.75,1.963 L236.775,6.538 Z M236.6,1.213 L240.65,10.363 L241.25,10.013 L236.9,1.113 L236.6,1.213 Z M141.4,22.062 C139.741,23.318 138.025,25.484 136.25,28.562 C132.183,35.862 128.466,47.112 125.1,62.312 C124.55,64.888 123.884,68.222 123.1,72.312 C122.99,72.925 122.873,73.558 122.75,74.212 C128.383,63.879 132.933,54.862 136.4,47.162 L141.2,36.212 C142.8,31.912 143.75,28.062 144.05,24.662 L144.2,22.962 C144.2,22.462 144.15,22.012 144.05,21.612 L144,21.412 L143.85,21.162 L143.3,21.162 L143.2,21.262 L142.9,21.412 L142.5,21.462 L142.4,21.462 L142.4,21.412 C142.069,21.592 141.736,21.809 141.4,22.062 Z M80.35,57.863 C80.35,57.096 79.9,57.096 79,57.863 C78.566,58.263 78.017,58.83 77.35,59.563 C77.117,59.73 76.634,60.18 75.9,60.913 C75.133,61.713 74.75,62.196 74.75,62.363 L74.8,62.713 C75,62.779 75.133,62.813 75.2,62.813 C75.233,62.813 76.1,62.013 77.8,60.413 C79.5,58.813 80.35,57.963 80.35,57.863 Z M80.35,54.713 C80.35,54.046 78.95,54.963 76.15,57.463 C73.35,59.996 71.95,61.363 71.95,61.563 C71.95,61.863 72.117,62.013 72.45,62.013 C72.483,62.013 75.117,59.58 80.35,54.713 Z M74.15,63.312 C74.15,63.045 74.017,62.912 73.75,62.912 C73.45,62.912 73.183,63.062 72.95,63.362 C72.417,63.329 72.033,63.395 71.8,63.562 C71.7,63.629 71.65,63.695 71.65,63.762 C71.65,63.962 71.783,64.112 72.05,64.212 L72.95,64.212 C73.75,63.913 74.15,63.613 74.15,63.312 Z M10.25,126.312 C11.944,130.518 14.844,134.068 18.95,136.962 C25.917,141.929 35.467,144.412 47.6,144.412 C57.134,144.412 65.167,142.712 71.7,139.311 C72.35,138.971 72.984,138.621 73.6,138.261 C79.194,135 83.61,130.851 86.85,125.811 C89.55,121.544 91.217,117.078 91.85,112.412 C89.65,111.845 87.617,111.162 85.75,110.361 C81.55,108.662 76.333,105.695 70.1,101.462 L59.85,94.512 C55.517,91.745 51.567,89.679 48,88.312 C44.4,86.979 40.867,86.312 37.4,86.312 L35.9,86.312 C30.377,86.604 25.618,88.012 21.625,90.538 C19.244,92.043 17.136,93.952 15.3,96.263 C10.733,101.963 8.45,108.697 8.45,116.463 C8.45,120.073 9.05,123.356 10.25,126.312 Z M187.85,112.013 C189.172,114.555 191.272,116.272 194.15,117.163 C195.517,117.562 196.85,117.763 198.15,117.763 C200.362,117.763 202.538,117.171 204.675,115.988 C206.049,115.223 207.407,114.215 208.75,112.964 L210.25,111.464 L215.25,104.214 C215.783,103.214 216.25,102.28 216.65,101.414 C217.083,100.547 217.45,99.764 217.75,99.063 C218.417,97.33 218.983,95.68 219.45,94.113 L199.2,87.464 C197,86.13 195.55,84.297 194.85,81.964 C194.557,82.302 194.273,82.644 194,82.988 C191.13,86.559 188.997,90.668 187.6,95.313 C186.667,98.414 186.2,101.379 186.2,104.213 C186.2,105.513 186.3,106.779 186.5,108.013 C186.783,109.523 187.233,110.856 187.85,112.013 Z"></path>
    </g>
  </g>
</svg>
