<svg width="198" height="100" viewBox="0 0 198 100" fill="none" xmlns="http://www.w3.org/2000/svg">
<g clip-path="url(#clip0_405_2)">
<rect width="198" height="100" fill="#2F3654"/>
<path d="M24.222 48.5794C37.2469 48.1089 47.6689 37.4298 47.6689 24.2899C47.6689 11.1496 37.2469 0.470551 24.222 0V48.5794Z" fill="#353D5F"/>
<path d="M22.4473 48.5794V0C9.42221 0.470551 -1 11.1496 -1 24.2899C-1 37.4298 9.42221 48.1089 22.4473 48.5794Z" fill="#353D5F"/>
<path d="M-1 99.3848C12.0251 98.9143 22.4471 88.2352 22.4471 75.0949C22.4471 61.9546 12.0251 51.2759 -1 50.8054V99.3848Z" fill="#353D5F"/>
<path d="M47.669 99.3848V50.8054C34.644 51.2759 24.2216 61.9546 24.2216 75.0949C24.2216 88.2352 34.644 98.9143 47.669 99.3848Z" fill="#353D5F"/>
<path d="M99.9322 50.839C100.403 63.8643 111.081 74.2863 124.221 74.2863C137.362 74.2863 148.041 63.8643 148.512 50.839H99.9322Z" fill="#353D5F"/>
<path d="M99.9322 99.5082H148.512C148.041 86.4832 137.362 76.0608 124.221 76.0608C111.081 76.0608 100.403 86.4832 99.9322 99.5082Z" fill="#353D5F"/>
<path d="M150.376 50.326C150.846 63.351 161.525 73.773 174.665 73.773C187.805 73.773 198.484 63.351 198.955 50.326H150.376Z" fill="#353D5F"/>
<path d="M150.376 98.9949H198.955C198.484 85.9699 187.805 75.5475 174.665 75.5475C161.525 75.5475 150.846 85.9699 150.376 98.9949Z" fill="#353D5F"/>
<path d="M49.3648 99.3848C62.3912 98.9471 72.8404 88.2944 72.8736 75.1545C72.9072 62.0146 62.5123 51.3088 49.4881 50.8054L49.3648 99.3848Z" fill="#353D5F"/>
<path d="M98.0339 99.5082L98.1573 50.9288C85.1308 51.3665 74.6813 62.0188 74.6481 75.1591C74.6149 88.299 85.0098 99.0044 98.0339 99.5082Z" fill="#353D5F"/>
<path d="M49.6612 0.362045C50.0989 13.3881 60.7512 23.8377 73.8911 23.8709C87.0314 23.9041 97.7368 13.5092 98.2406 0.485039L49.6612 0.362045Z" fill="#353D5F"/>
<path d="M49.5374 49.0309L98.1168 49.1543C97.6791 36.1282 87.0268 25.6786 73.8865 25.6454C60.7466 25.6118 50.0412 36.0071 49.5374 49.0309Z" fill="#353D5F"/>
<path d="M148.556 0.485077C135.531 0.955627 125.109 11.6347 125.109 24.775C125.109 37.9149 135.531 48.594 148.556 49.0645V0.485077Z" fill="#353D5F"/>
<path d="M99.8871 0.485077V49.0645C112.912 48.594 123.334 37.9149 123.334 24.775C123.334 11.6347 112.912 0.955627 99.8871 0.485077Z" fill="#353D5F"/>
<path d="M199 0.485077C185.975 0.955627 175.553 11.6347 175.553 24.775C175.553 37.9149 185.975 48.594 199 49.0645V0.485077Z" fill="#353D5F"/>
<path d="M150.331 0.485077V49.0645C163.356 48.594 173.778 37.9149 173.778 24.775C173.778 11.6347 163.356 0.955627 150.331 0.485077Z" fill="#353D5F"/>
</g>
<defs>
<clipPath id="clip0_405_2">
<rect width="198" height="100" fill="white"/>
</clipPath>
</defs>
</svg>
