<svg width="198" height="100" viewBox="0 0 198 100" fill="none" xmlns="http://www.w3.org/2000/svg">
<g clip-path="url(#clip0_405_173)">
<path d="M198 0H0V100H198V0Z" fill="#F6F8FA"/>
<path d="M86.72 50.7111C86.72 48.08 86.5065 46.16 86.0445 44.1689H56V56.0443H73.6354C73.28 58.9955 71.36 63.44 67.0933 66.4265L67.0334 66.8241L76.5329 74.1832L77.1911 74.2489C83.2354 68.6666 86.72 60.4532 86.72 50.7111Z" fill="#4285F4"/>
<path d="M56 82C64.6398 82 71.8931 79.1554 77.191 74.2489L67.0932 66.4265C64.391 68.311 60.7643 69.6265 56 69.6265C47.5378 69.6265 40.3556 64.0445 37.7954 56.3289L37.4201 56.3608L27.5424 64.0052L27.4132 64.3643C32.6754 74.8176 43.4843 82 56 82Z" fill="#34A853"/>
<path d="M37.7954 56.3289C37.1199 54.3378 36.7289 52.2043 36.7289 50C36.7289 47.7954 37.1199 45.6622 37.7599 43.6711L37.742 43.247L27.7405 35.4798L27.4133 35.6354C25.2445 39.9733 24 44.8445 24 50C24 55.1555 25.2445 60.0265 27.4133 64.3643L37.7954 56.3289Z" fill="#FBBC05"/>
<path d="M56 30.3733C62.0087 30.3733 66.062 32.9688 68.3732 35.1378L77.4043 26.32C71.8578 21.1645 64.6398 18 56 18C43.4843 18 32.6754 25.1822 27.4132 35.6354L37.7598 43.6711C40.3556 35.9555 47.5378 30.3733 56 30.3733Z" fill="#EB4335"/>
</g>
<defs>
<clipPath id="clip0_405_173">
<rect width="198" height="100" fill="white"/>
</clipPath>
</defs>
</svg>
