<svg width="1120" height="170" viewBox="0 0 1120 170" fill="none" xmlns="http://www.w3.org/2000/svg">
<path d="M1086.34 101.009L1061.89 101.08L1061.89 58.1244H1018.94L1019.01 33.6696L1086.34 33.6696L1086.34 101.009Z" fill="#3A5DAE"/>
<path d="M0 56.6974H41.1587V167.727H69.2543V56.6974H110.413V33.2572H0V56.6974Z" fill="#353D5F"/>
<path d="M144.293 169.697C169.238 169.697 186.043 157.55 189.981 138.837L164.118 137.13C161.295 144.812 154.074 148.817 144.753 148.817C130.771 148.817 121.909 139.559 121.909 124.523V124.458H190.572V116.775C190.572 82.5015 169.829 65.5614 143.177 65.5614C113.506 65.5614 94.2726 86.638 94.2726 117.76C94.2726 149.736 113.244 169.697 144.293 169.697ZM121.909 107.124C122.499 95.6333 131.23 86.441 143.637 86.441C155.781 86.441 164.183 95.108 164.249 107.124H121.909Z" fill="#353D5F"/>
<path d="M228.331 169.631C243.232 169.631 252.881 163.131 257.805 153.742H258.592V167.727H285.113V99.7041C285.113 75.6729 264.763 65.5614 242.313 65.5614C218.156 65.5614 202.27 77.1174 198.397 95.502L224.261 97.603C226.164 90.9058 232.138 85.9814 242.181 85.9814C251.7 85.9814 257.148 90.7745 257.148 99.0475V99.4415C257.148 105.942 250.256 106.795 232.729 108.502C212.773 110.341 194.852 117.038 194.852 139.559C194.852 159.52 209.097 169.631 228.331 169.631ZM236.339 150.327C227.74 150.327 221.569 146.322 221.569 138.64C221.569 130.761 228.068 126.887 237.915 125.508C244.02 124.655 253.997 123.21 257.345 120.978V131.68C257.345 142.251 248.615 150.327 236.339 150.327Z" fill="#353D5F"/>
<path d="M297.565 167.727H325.53V107.189C325.53 96.0272 332.619 88.6078 341.941 88.6078C351.131 88.6078 357.301 94.911 357.301 104.826V167.727H384.412V106.139C384.412 95.6989 390.386 88.6078 400.561 88.6078C409.488 88.6078 416.184 94.1888 416.184 105.416V167.727H444.082V99.9011C444.082 78.0366 431.085 65.5614 412.311 65.5614C397.541 65.5614 386.053 73.1122 381.918 84.6682H380.867C377.651 72.9809 367.345 65.5614 353.494 65.5614C339.906 65.5614 329.599 72.7839 325.398 84.6682H324.217V66.8746H297.565V167.727Z" fill="#353D5F"/>
<path d="M540.822 95.6333C538.327 77.0518 523.361 65.5614 497.891 65.5614C472.093 65.5614 455.091 77.5114 455.157 96.9465C455.091 112.048 464.609 121.831 484.302 125.771L501.764 129.251C510.56 131.024 514.564 134.241 514.696 139.297C514.564 145.272 508.066 149.539 498.285 149.539C488.307 149.539 481.677 145.272 479.97 137.064L452.465 138.509C455.091 157.812 471.502 169.697 498.219 169.697C524.345 169.697 543.054 156.368 543.119 136.473C543.054 121.897 533.535 113.164 513.974 109.159L495.725 105.482C486.337 103.447 482.858 100.229 482.924 95.3706C482.858 89.33 489.685 85.3905 498.35 85.3905C508.066 85.3905 513.842 90.7088 515.221 97.2091L540.822 95.6333Z" fill="#353D5F"/>
<path d="M579.45 109.422C579.516 96.4212 587.459 88.8047 598.881 88.8047C610.237 88.8047 616.933 96.0929 616.867 108.502V167.727H644.831V103.512C644.897 79.8751 630.981 65.5614 609.974 65.5614C594.679 65.5614 584.439 72.7839 579.844 84.6682H578.662V33.2572H551.486V167.727H579.45V109.422Z" fill="#353D5F"/>
<path d="M686.348 169.631C701.249 169.631 710.899 163.131 715.822 153.742H716.61V167.727H743.13V99.7041C743.13 75.6729 722.78 65.5614 700.33 65.5614C676.173 65.5614 660.287 77.1174 656.414 95.502L682.278 97.603C684.182 90.9058 690.155 85.9814 700.199 85.9814C709.717 85.9814 715.166 90.7745 715.166 99.0475V99.4415C715.166 105.942 708.273 106.795 690.746 108.502C670.79 110.341 652.87 117.038 652.87 139.559C652.87 159.52 667.114 169.631 686.348 169.631ZM694.356 150.327C685.757 150.327 679.587 146.322 679.587 138.64C679.587 130.761 686.085 126.887 695.932 125.508C702.037 124.655 712.015 123.21 715.363 120.978V131.68C715.363 142.251 706.632 150.327 694.356 150.327Z" fill="#353D5F"/>
<path d="M755.583 167.727H783.547V110.669C783.547 98.2596 792.606 89.724 804.947 89.724C808.82 89.724 814.137 90.3805 816.763 91.2341V66.415C814.268 65.8241 810.789 65.4301 807.966 65.4301C796.676 65.4301 787.42 71.996 783.744 84.4712H782.693V66.8746H755.583V167.727Z" fill="#353D5F"/>
<path d="M863.235 169.697C888.18 169.697 904.985 157.55 908.923 138.837L883.06 137.13C880.237 144.812 873.016 148.817 863.695 148.817C849.713 148.817 840.851 139.559 840.851 124.523V124.458H909.514V116.775C909.514 82.5015 888.771 65.5614 862.119 65.5614C832.448 65.5614 813.215 86.638 813.215 117.76C813.215 149.736 832.186 169.697 863.235 169.697ZM840.851 107.124C841.442 95.6333 850.172 86.441 862.579 86.441C874.723 86.441 883.125 95.108 883.191 107.124H840.851Z" fill="#353D5F"/>
<path d="M1002.41 95.6333C999.919 77.0518 984.952 65.5614 959.482 65.5614C933.684 65.5614 916.683 77.5114 916.748 96.9465C916.683 112.048 926.201 121.831 945.894 125.771L963.355 129.251C972.152 131.024 976.156 134.241 976.287 139.297C976.156 145.272 969.657 149.539 959.876 149.539C949.898 149.539 943.268 145.272 941.562 137.064L914.057 138.509C916.683 157.812 933.094 169.697 959.811 169.697C985.937 169.697 1004.65 156.368 1004.71 136.473C1004.65 121.897 995.127 113.164 975.565 109.159L957.316 105.482C947.929 103.447 944.45 100.229 944.516 95.3706C944.45 89.33 951.277 85.3905 959.942 85.3905C969.657 85.3905 975.434 90.7088 976.812 97.2091L1002.41 95.6333Z" fill="#353D5F"/>
</svg>
