<?xml version="1.0" encoding="UTF-8"?>
<svg width="127px" height="141px" viewBox="0 0 127 141" version="1.1" xmlns="http://www.w3.org/2000/svg" xmlns:xlink="http://www.w3.org/1999/xlink">
    <!-- Generator: Sketch 43.2 (39069) - http://www.bohemiancoding.com/sketch -->
    <title>logo</title>
    <desc>Created with Sketch.</desc>
    <defs></defs>
    <g id="Page-1" stroke="none" stroke-width="1" fill="none" fill-rule="evenodd">
        <g id="logo" fill-rule="nonzero" fill="#F1634A">
            <path d="M102.375,90.85 C102.979,90.557 103.57,90.215 104.15,89.826 L106.425,88.501 C106.848,88.19 107.64,87.573 108.8,86.65 L108.95,86.501 C109.883,85.567 110.916,85.117 112.05,85.15 C112.55,85.15 113.133,85.284 113.8,85.55 L122.3,78 C122.533,77.8 122.767,77.633 123,77.5 L123.05,77.5 C123.95,76.967 124.7,77 125.3,77.6 C126.367,78.166 126.45,79.133 125.55,80.5 L116.65,88.399 C116.717,88.533 116.75,88.666 116.75,88.799 C116.883,89.399 116.833,89.999 116.6,90.599 C116.4,90.999 116.117,91.382 115.75,91.749 C115.379,92.145 114.996,92.528 114.6,92.898 L109.45,96.648 C108.99,96.97 108.523,97.27 108.05,97.548 C107.46,97.906 106.86,98.232 106.25,98.523 C105.985,98.644 105.718,98.76 105.45,98.874 C103.841,99.559 102.174,100.017 100.45,100.249 C99.65,106.982 97.35,113.183 93.55,118.849 C88.75,125.915 82.183,131.299 73.85,134.999 C65.55,138.699 56.567,140.549 46.9,140.549 C33.567,140.415 22.75,137.415 14.45,131.549 C4.817,124.75 0,115.7 0,104.399 L0,102.849 C0.333,95.149 2.6,87.849 6.8,80.95 C10.933,74.116 16.983,69.5 24.95,67.1 C29.05,65.9 33.166,65.3 37.3,65.3 C41.567,65.3 45.967,66.083 50.5,67.65 C55.033,69.216 60.15,71.916 65.85,75.75 L80.7,85.7 C84.833,88.399 88.6,90.233 92,91.2 C91.3,84.3 88.8,78.399 84.5,73.5 C80.2,68.533 74.717,64.9 68.05,62.6 L61.65,60.4 C55.783,58.333 51.417,56.3 48.55,54.3 C40.817,49.067 36.517,41.883 35.65,32.75 L35.5,30.05 C35.5,21.25 39.067,13.883 46.2,7.95 C52.567,2.65 60.133,0 68.9,0 C75.5,0 81.417,1.9 86.65,5.7 C91.917,9.533 94.9,14.967 95.6,22 L95.75,24.75 C95.75,29.85 94.433,34.216 91.8,37.85 C89.1,41.483 86.717,43.3 84.65,43.3 C84.21,43.269 83.802,43.21 83.425,43.125 L74.1,51.9 C72.6,52.733 71.583,52.583 71.05,51.45 C70.517,50.85 70.567,50.1 71.2,49.2 L71.25,49.15 C71.383,48.95 71.567,48.733 71.8,48.5 L80.475,40.275 C80.376,39.872 80.318,39.431 80.3,38.95 C80.3,37.817 80.75,36.867 81.65,36.1 C85.45,32.7 87.35,28.784 87.35,24.35 C87.35,19.95 85.683,16.25 82.35,13.25 C79.017,10.25 74.467,8.716 68.7,8.65 C61.5,8.65 55.583,10.817 50.95,15.15 C46.317,19.483 44,24.683 44,30.75 C44,35.65 45.883,40.066 49.65,44 C53.383,47.9 59.15,50.966 66.95,53.2 C77.883,56.367 86.233,61.7 92,69.2 C97.133,75.833 100,83.283 100.6,91.55 C101.199,91.365 101.791,91.132 102.375,90.85 Z M71.95,49.05 C71.95,49.35 72.117,49.5 72.45,49.5 C72.483,49.5 75.117,47.066 80.35,42.2 C80.35,41.533 78.95,42.45 76.15,44.95 C73.35,47.483 71.95,48.85 71.95,49.05 Z M74.15,50.8 C74.15,50.533 74.017,50.4 73.75,50.4 C73.45,50.4 73.183,50.55 72.95,50.85 C72.416,50.817 72.033,50.884 71.8,51.05 C71.7,51.117 71.65,51.183 71.65,51.25 C71.65,51.45 71.783,51.6 72.05,51.7 L72.95,51.7 C73.75,51.4 74.15,51.1 74.15,50.8 Z M80.35,45.35 C80.35,44.583 79.9,44.583 79,45.35 C78.567,45.75 78.017,46.317 77.35,47.05 C77.117,47.217 76.633,47.667 75.9,48.4 C75.133,49.2 74.75,49.683 74.75,49.85 L74.8,50.2 C75,50.267 75.133,50.3 75.2,50.3 C75.233,50.3 76.1,49.5 77.8,47.9 C79.5,46.3 80.35,45.45 80.35,45.35 Z M124.2,78.3 L115.8,85.7 C116.3,85.967 116.667,86.349 116.9,86.849 L125.2,79.45 C125.266,79.116 125.217,78.849 125.05,78.649 C124.883,78.517 124.6,78.399 124.2,78.3 Z M123.75,78.05 L123.55,77.85 L116.15,83.85 L116.6,84.4 L123.75,78.05 Z M91.85,99.899 C89.65,99.333 87.617,98.649 85.75,97.849 C81.55,96.149 76.333,93.183 70.1,88.95 L59.85,82 C55.517,79.233 51.567,77.166 48,75.8 C44.4,74.467 40.867,73.8 37.4,73.8 L35.9,73.8 C27.067,74.267 20.2,77.583 15.3,83.75 C10.734,89.45 8.45,96.184 8.45,103.95 C8.45,112.683 11.95,119.516 18.95,124.45 C25.916,129.416 35.467,131.899 47.6,131.899 C57.133,131.899 65.166,130.2 71.7,126.799 C78.2,123.399 83.25,118.899 86.85,113.299 C89.55,109.033 91.217,104.566 91.85,99.899 Z" id="Shape"></path>
        </g>
    </g>
</svg>