<?xml version="1.0" encoding="UTF-8"?>
<svg width="127px" height="148px" viewBox="0 0 127 148" version="1.1" xmlns="http://www.w3.org/2000/svg" xmlns:xlink="http://www.w3.org/1999/xlink">
    <!-- Generator: Sketch 43.2 (39069) - http://www.bohemiancoding.com/sketch -->
    <title>logo</title>
    <desc>Created with Sketch.</desc>
    <defs></defs>
    <g id="Page-1" stroke="none" stroke-width="1" fill="none" fill-rule="evenodd">
        <g id="logo">
            <g id="Light_Sky_Blue" transform="translate(0.000000, 6.000000)" fill="#7FDBFF">
                <path d="M47.8,8.35 C54.167,3.05 61.734,0.4 70.5,0.4 C77.1,0.4 83.017,2.3 88.25,6.1 C93.517,9.933 96.5,15.367 97.2,22.4 L97.35,25.15 C97.35,30.25 96.033,34.617 93.4,38.25 C92.417,39.573 91.475,40.656 90.575,41.5 C88.692,43.5 86.984,44.5 85.45,44.5 C85.016,44.466 84.617,44.417 84.25,44.35 L74.9,53.1 C73.4,53.933 72.383,53.784 71.85,52.65 C71.317,52.05 71.367,51.3 72,50.4 L72.05,50.35 C72.183,50.15 72.367,49.933 72.6,49.7 L73.075,49.25 C73.17,49.138 73.278,49.021 73.4,48.9 L81.3,41.45 C81.199,41.036 81.133,40.603 81.1,40.15 C81.1,39.017 81.55,38.067 82.45,37.3 C82.52,37.238 82.586,37.171 82.65,37.1 C82.824,36.892 83.025,36.692 83.25,36.5 C83.419,36.348 83.586,36.198 83.75,36.05 C86.683,32.947 88.15,29.447 88.15,25.55 C88.15,21.15 86.483,17.45 83.15,14.45 C79.817,11.45 75.267,9.917 69.5,9.85 C62.3,9.85 56.383,12.017 51.75,16.35 C51.71,16.388 51.668,16.421 51.625,16.45 L51.525,16.575 C47.575,20.695 45.6,25.553 45.6,31.15 C45.6,36.05 47.483,40.466 51.25,44.4 C54.983,48.3 60.75,51.367 68.55,53.6 C79.484,56.767 87.834,62.1 93.6,69.6 C98.733,76.234 101.6,83.684 102.2,91.951 C103.309,91.609 104.392,91.101 105.45,90.426 C106.826,89.547 108.16,88.389 109.45,86.951 L109.45,87.975 C109.499,87.932 109.549,87.891 109.6,87.85 L109.75,87.701 C110.683,86.767 111.717,86.317 112.85,86.35 C113.35,86.35 113.933,86.484 114.6,86.75 L123.1,79.2 C123.333,79 123.567,78.833 123.8,78.7 L123.85,78.7 C124.75,78.166 125.5,78.2 126.1,78.8 C127.166,79.366 127.25,80.333 126.35,81.7 L117.45,89.599 C117.516,89.733 117.55,89.866 117.55,89.999 C117.683,90.599 117.633,91.199 117.4,91.799 C117.2,92.199 116.917,92.582 116.55,92.949 C116.183,93.348 115.8,93.732 115.4,94.098 L110.25,97.848 C109.783,98.182 109.317,98.482 108.85,98.748 C108.25,99.114 107.65,99.448 107.05,99.748 C106.783,99.848 106.517,99.965 106.25,100.098 C104.87,100.673 103.437,101.09 101.95,101.348 C101.086,107.809 98.82,113.776 95.15,119.248 C93.467,121.727 91.567,124.001 89.45,126.073 C85.367,130.255 80.433,133.63 74.65,136.198 C66.35,139.897 57.367,141.748 47.7,141.748 C34.367,141.614 23.55,138.614 15.25,132.748 C5.617,125.95 0.8,116.899 0.8,105.6 L0.8,104.05 C1.133,96.35 3.4,89.05 7.6,82.15 C9.054,79.748 10.745,77.623 12.675,75.775 C16.366,71.933 20.991,69.175 26.55,67.501 C30.65,66.301 34.767,65.701 38.9,65.701 C43.167,65.701 47.567,66.484 52.1,68.051 C56.633,69.618 61.75,72.318 67.45,76.151 L82.3,86.1 C86.062,88.558 89.521,90.299 92.675,91.326 C91.832,84.884 89.374,79.342 85.3,74.7 C81,69.733 75.517,66.1 68.85,63.8 L62.45,61.6 C56.583,59.534 52.217,57.5 49.35,55.5 C41.617,50.267 37.317,43.083 36.45,33.95 L36.3,31.25 C36.3,23.319 39.2,16.552 45,10.95 C45.859,10.054 46.792,9.188 47.8,8.35 Z M124.55,79.25 L124.35,79.05 L116.95,85.05 L117.4,85.6 L124.55,79.25 Z M72.8,52.15 C72.727,52.173 72.661,52.207 72.6,52.25 C72.5,52.316 72.45,52.383 72.45,52.45 C72.45,52.65 72.583,52.8 72.85,52.9 L73.75,52.9 C73.816,52.875 73.883,52.85 73.95,52.825 C73.471,52.794 73.088,52.569 72.8,52.15 Z M125.85,79.85 C125.683,79.717 125.4,79.6 125,79.5 L116.6,86.899 C117.1,87.166 117.467,87.549 117.7,88.049 L126,80.649 C126.067,80.316 126.017,80.05 125.85,79.85 Z M86.55,99.05 C82.35,97.35 77.133,94.383 70.9,90.15 L60.65,83.2 C56.317,80.433 52.367,78.366 48.8,77 C45.2,75.666 41.667,75 38.2,75 L36.7,75 C29.246,75.394 23.196,77.818 18.55,82.274 C17.974,82.865 17.425,83.49 16.9,84.149 C12.334,89.849 10.05,96.583 10.05,104.349 C10.05,113.082 13.55,119.915 20.55,124.849 C27.517,129.816 37.067,132.299 49.2,132.299 C58.733,132.299 66.766,130.599 73.3,127.199 C77.068,125.227 80.352,122.886 83.15,120.174 C84.839,118.429 86.339,116.537 87.65,114.499 C90.35,110.232 92.017,105.766 92.65,101.099 C90.45,100.533 88.417,99.85 86.55,99.05 Z" id="Shape"></path>
            </g>
            <g id="Tomato">
                <g id="Group">
                    <path d="M102.375,90.85 C102.979,90.557 103.57,90.215 104.15,89.826 L106.425,88.501 C106.848,88.19 107.64,87.573 108.8,86.65 L108.95,86.501 C109.883,85.567 110.916,85.117 112.05,85.15 C112.55,85.15 113.133,85.284 113.8,85.55 L122.3,78 C122.533,77.8 122.767,77.633 123,77.5 L123.05,77.5 C123.95,76.967 124.7,77 125.3,77.6 C126.367,78.166 126.45,79.133 125.55,80.5 L116.65,88.399 C116.717,88.533 116.75,88.666 116.75,88.799 C116.883,89.399 116.833,89.999 116.6,90.599 C116.4,90.999 116.117,91.382 115.75,91.749 C115.379,92.145 114.996,92.528 114.6,92.898 L109.45,96.648 C108.99,96.97 108.523,97.27 108.05,97.548 C107.46,97.906 106.86,98.232 106.25,98.523 C105.985,98.644 105.718,98.76 105.45,98.874 C103.841,99.559 102.174,100.017 100.45,100.249 C99.65,106.982 97.35,113.183 93.55,118.849 C88.75,125.915 82.183,131.299 73.85,134.999 C65.55,138.699 56.567,140.549 46.9,140.549 C33.567,140.415 22.75,137.415 14.45,131.549 C4.817,124.75 0,115.7 0,104.399 L0,102.849 C0.333,95.149 2.6,87.849 6.8,80.95 C10.933,74.116 16.983,69.5 24.95,67.1 C29.05,65.9 33.166,65.3 37.3,65.3 C41.567,65.3 45.967,66.083 50.5,67.65 C55.033,69.216 60.15,71.916 65.85,75.75 L80.7,85.7 C84.833,88.399 88.6,90.233 92,91.2 C91.3,84.3 88.8,78.399 84.5,73.5 C80.2,68.533 74.717,64.9 68.05,62.6 L61.65,60.4 C55.783,58.333 51.417,56.3 48.55,54.3 C40.817,49.067 36.517,41.883 35.65,32.75 L35.5,30.05 C35.5,21.25 39.067,13.883 46.2,7.95 C52.567,2.65 60.133,0 68.9,0 C75.5,0 81.417,1.9 86.65,5.7 C91.917,9.533 94.9,14.967 95.6,22 L95.75,24.75 C95.75,29.85 94.433,34.216 91.8,37.85 C89.1,41.483 86.717,43.3 84.65,43.3 C84.21,43.269 83.802,43.21 83.425,43.125 L74.1,51.9 C72.6,52.733 71.583,52.583 71.05,51.45 C70.517,50.85 70.567,50.1 71.2,49.2 L71.25,49.15 C71.383,48.95 71.567,48.733 71.8,48.5 L80.475,40.275 C80.376,39.872 80.318,39.431 80.3,38.95 C80.3,37.817 80.75,36.867 81.65,36.1 C85.45,32.7 87.35,28.784 87.35,24.35 C87.35,19.95 85.683,16.25 82.35,13.25 C79.017,10.25 74.467,8.716 68.7,8.65 C61.5,8.65 55.583,10.817 50.95,15.15 C46.317,19.483 44,24.683 44,30.75 C44,35.65 45.883,40.066 49.65,44 C53.383,47.9 59.15,50.966 66.95,53.2 C77.883,56.367 86.233,61.7 92,69.2 C97.133,75.833 100,83.283 100.6,91.55 C101.199,91.365 101.791,91.132 102.375,90.85 Z M71.95,49.05 C71.95,49.35 72.117,49.5 72.45,49.5 C72.483,49.5 75.117,47.066 80.35,42.2 C80.35,41.533 78.95,42.45 76.15,44.95 C73.35,47.483 71.95,48.85 71.95,49.05 Z M74.15,50.8 C74.15,50.533 74.017,50.4 73.75,50.4 C73.45,50.4 73.183,50.55 72.95,50.85 C72.416,50.817 72.033,50.884 71.8,51.05 C71.7,51.117 71.65,51.183 71.65,51.25 C71.65,51.45 71.783,51.6 72.05,51.7 L72.95,51.7 C73.75,51.4 74.15,51.1 74.15,50.8 Z M80.35,45.35 C80.35,44.583 79.9,44.583 79,45.35 C78.567,45.75 78.017,46.317 77.35,47.05 C77.117,47.217 76.633,47.667 75.9,48.4 C75.133,49.2 74.75,49.683 74.75,49.85 L74.8,50.2 C75,50.267 75.133,50.3 75.2,50.3 C75.233,50.3 76.1,49.5 77.8,47.9 C79.5,46.3 80.35,45.45 80.35,45.35 Z M124.2,78.3 L115.8,85.7 C116.3,85.967 116.667,86.349 116.9,86.849 L125.2,79.45 C125.266,79.116 125.217,78.849 125.05,78.649 C124.883,78.517 124.6,78.399 124.2,78.3 Z M123.75,78.05 L123.55,77.85 L116.15,83.85 L116.6,84.4 L123.75,78.05 Z M91.85,99.899 C89.65,99.333 87.617,98.649 85.75,97.849 C81.55,96.149 76.333,93.183 70.1,88.95 L59.85,82 C55.517,79.233 51.567,77.166 48,75.8 C44.4,74.467 40.867,73.8 37.4,73.8 L35.9,73.8 C27.067,74.267 20.2,77.583 15.3,83.75 C10.734,89.45 8.45,96.184 8.45,103.95 C8.45,112.683 11.95,119.516 18.95,124.45 C25.916,129.416 35.467,131.899 47.6,131.899 C57.133,131.899 65.166,130.2 71.7,126.799 C78.2,123.399 83.25,118.899 86.85,113.299 C89.55,109.033 91.217,104.566 91.85,99.899 Z" id="Shape" fill="#F1634A"></path>
                    <path d="M102.375,90.85 C102.979,90.557 103.57,90.215 104.15,89.826" id="Shape" stroke="#00CCFF" stroke-linecap="round" stroke-linejoin="round"></path>
                </g>
            </g>
            <g id="Layer_6" transform="translate(107.000000, 97.000000)" stroke="#00CCFF" stroke-linecap="round" stroke-linejoin="round">
                <path d="M1.025,0.55 L0.2,1.05" id="Shape"></path>
            </g>
        </g>
    </g>
</svg>