<svg width="198" height="100" viewBox="0 0 198 100" fill="none" xmlns="http://www.w3.org/2000/svg">
<g clip-path="url(#clip0_405_191)">
<path d="M198 0H0V100H198V0Z" fill="#F6F8FA"/>
<path fill-rule="evenodd" clip-rule="evenodd" d="M35.993 29.3896C37.9734 30.9985 38.7163 30.8758 42.4351 30.6276L77.4936 28.5225C78.2372 28.5225 77.6189 27.7807 77.3709 27.6575L71.5485 23.4483C70.4328 22.5821 68.9464 21.5902 66.0977 21.8383L32.1505 24.3143C30.9124 24.4371 30.6651 25.0561 31.1582 25.5522L35.993 29.3896ZM38.0979 37.56V74.4476C38.0979 76.4301 39.0886 77.1718 41.3183 77.0491L79.8476 74.8197C82.0785 74.697 82.327 73.3335 82.327 71.723V35.0828C82.327 33.475 81.7085 32.608 80.3429 32.7317L40.0794 35.0828C38.5934 35.2077 38.0978 35.951 38.0978 37.56H38.0979ZM76.1339 39.5387C76.381 40.6539 76.1339 41.768 75.0166 41.8934L73.1603 42.2633V69.4961C71.5485 70.3624 70.0621 70.8577 68.8236 70.8577C66.8406 70.8577 66.3439 70.2383 64.8586 68.3826L52.7155 49.3194V67.7636L56.5581 68.6306C56.5581 68.6306 56.5581 70.8577 53.4579 70.8577L44.9115 71.3535C44.6632 70.8577 44.9115 69.6209 45.7784 69.3731L48.0086 68.755V44.3683L44.9121 44.1201C44.6637 43.005 45.2823 41.397 47.018 41.2723L56.1863 40.6542L68.8236 59.9656V42.8822L65.6015 42.5124C65.3543 41.1491 66.3439 40.1592 67.583 40.0365L76.1339 39.5387ZM29.3002 20.9723L64.6107 18.3719C68.9469 18 70.0626 18.2491 72.788 20.2289L84.0596 28.1511C85.9194 29.5134 86.5393 29.8843 86.5393 31.3694V74.8197C86.5393 77.5428 85.5473 79.1532 82.0791 79.3996L41.0729 81.8759C38.4694 82 37.2304 81.629 35.8669 79.8949L27.5664 69.1254C26.0792 67.1429 25.4606 65.6598 25.4606 63.9247V25.3032C25.4606 23.0764 26.4529 21.2188 29.3002 20.9723Z" fill="black"/>
</g>
<defs>
<clipPath id="clip0_405_191">
<rect width="198" height="100" fill="white"/>
</clipPath>
</defs>
</svg>
